<svg width="200" height="51" viewBox="0 0 200 51" fill="none" xmlns="http://www.w3.org/2000/svg">
<path d="M40.9957 21.2757V29.5566H11.3211C9.41646 29.5566 7.87207 28.0122 7.87207 26.1076V24.7247C7.87207 24.2718 7.96128 23.8233 8.13461 23.4048C8.30794 22.9864 8.56199 22.6062 8.88226 22.2859C9.20253 21.9656 9.58274 21.7116 10.0012 21.5383C10.4196 21.3649 10.8681 21.2757 11.3211 21.2757H40.9957Z" fill="#DEDFF5"/>
<path d="M46.2545 7.95999L69.4204 22.2446C69.9186 22.5514 70.3306 22.9799 70.6176 23.4899C70.9046 23.9998 71.0571 24.5744 71.0609 25.1595C71.0646 25.7446 70.9194 26.3211 70.6389 26.8346C70.3584 27.3482 69.9519 27.7819 69.4576 28.095L46.2917 42.7647C45.77 43.0954 45.1691 43.28 44.5517 43.2991C43.9343 43.3182 43.3231 43.1711 42.782 42.8732C42.2408 42.5754 41.7896 42.1377 41.4755 41.6058C41.1613 41.074 40.9958 40.4675 40.9961 39.8498V10.8956C40.9955 10.2815 41.1588 9.67835 41.4693 9.14851C41.7798 8.61866 42.226 8.18131 42.7621 7.88165C43.2981 7.58198 43.9044 7.43086 44.5184 7.44391C45.1323 7.45695 45.7317 7.63369 46.2545 7.95585V7.95999Z" fill="#DEDFF5"/>
<path d="M161.005 21.2757V29.5566H190.679C192.584 29.5566 194.128 28.0122 194.128 26.1076V24.7247C194.128 24.2718 194.039 23.8233 193.865 23.4048C193.692 22.9864 193.438 22.6062 193.118 22.2859C192.798 21.9656 192.417 21.7116 191.999 21.5383C191.58 21.3649 191.132 21.2757 190.679 21.2757H161.005Z" fill="#DEDFF5"/>
<path d="M155.748 7.95999L132.582 22.2446C132.084 22.5514 131.672 22.9799 131.385 23.4899C131.098 23.9998 130.946 24.5744 130.942 25.1595C130.938 25.7446 131.083 26.3211 131.364 26.8346C131.644 27.3482 132.051 27.7819 132.545 28.095L155.71 42.7647C156.232 43.0954 156.833 43.28 157.45 43.2991C158.068 43.3182 158.679 43.1711 159.22 42.8732C159.761 42.5754 160.212 42.1377 160.527 41.6058C160.841 41.074 161.006 40.4675 161.006 39.8498V10.8956C161.006 10.2815 160.843 9.67835 160.533 9.14851C160.222 8.61866 159.776 8.18131 159.24 7.88165C158.704 7.58198 158.098 7.43086 157.484 7.44391C156.87 7.45695 156.27 7.63369 155.748 7.95585V7.95999Z" fill="#DEDFF5"/>
<path d="M81.8517 34.6005C82.9502 37.138 84.4356 39.3426 86.3079 41.2143C88.1796 43.0866 90.3772 44.5727 92.8989 45.6705C95.4211 46.7697 98.1213 47.3186 100.999 47.3186C103.877 47.3186 106.585 46.7697 109.123 45.6705C111.66 44.5727 113.865 43.0866 115.737 41.2143C117.609 39.3426 119.095 37.138 120.193 34.6005C121.292 32.0623 121.841 29.3546 121.841 26.4771C121.841 23.599 121.292 20.8989 120.193 18.3766C119.095 15.855 117.609 13.6574 115.737 11.7857C113.865 9.91335 111.66 8.42791 109.123 7.32946C106.585 6.231 103.877 5.68141 100.999 5.68141C98.1213 5.68141 95.4211 6.231 92.8989 7.32946C90.3773 8.42797 88.1796 9.91335 86.3079 11.7857C84.4356 13.6574 82.9502 15.855 81.8517 18.3766C80.7532 20.8989 80.2036 23.599 80.2036 26.4771C80.2036 29.3546 80.7532 32.0623 81.8517 34.6005Z" fill="#F5BE95"/>
<path d="M101.022 34.9325C102.685 34.9325 104.032 36.2797 104.032 37.9431C104.032 39.6064 102.685 40.9536 101.022 40.9536C99.3583 40.9536 98.0111 39.6064 98.0111 37.9431C98.0111 36.2797 99.3583 34.9325 101.022 34.9325Z" fill="white"/>
<path d="M101.022 32.0177C101.853 32.0177 102.527 30.6125 102.527 28.8775L104.032 14.7466C104.032 13.0116 102.685 11.6064 101.022 11.6064C99.3583 11.6064 98.0111 13.0116 98.0111 14.7466L99.5164 28.8775C99.5164 30.6125 100.191 32.0177 101.022 32.0177Z" fill="white"/>
</svg>
