<svg width="60" height="60" viewBox="0 0 60 60" fill="none" xmlns="http://www.w3.org/2000/svg">
<path d="M46.8102 16.2363C46.8102 14.9626 45.7681 13.8047 44.3787 13.8047H19.3681C18.0944 13.8047 17.0523 14.8468 17.0523 16.2363V38.5837C16.5892 38.5837 16.2418 38.6995 15.8944 38.931C15.4313 39.1626 14.8523 39.9731 15.1997 41.4784V41.71C15.8944 43.0995 16.4734 44.4889 16.8208 45.531C17.0523 46.2258 17.2839 46.9205 17.5155 47.3837L17.6313 47.6152C17.9787 48.1942 18.4418 49.2363 19.4839 50.0468C19.4839 50.0468 19.9471 50.51 20.0629 51.0889H19.4839C19.0208 51.0889 18.6734 51.4363 18.6734 51.8995V53.9837C18.6734 54.4468 19.0208 54.7942 19.4839 54.7942C19.9471 54.7942 20.2944 54.4468 20.2944 53.9837V52.8258H32.9155V53.9837C32.9155 54.4468 33.2629 54.7942 33.726 54.7942C34.1892 54.7942 34.4208 54.4468 34.4208 53.9837V52.0152C34.4208 51.5521 34.0734 51.2047 33.6102 51.2047H33.0313V50.8573L34.4208 48.4258C34.5366 48.31 34.5366 48.1942 34.5366 47.9626V41.4784H39.2839C39.3997 41.4784 39.5155 41.4784 39.6313 41.3626L39.7471 41.2468C39.7471 41.2468 39.8629 41.2468 39.8629 41.131L46.4629 34.8784C46.4629 34.8784 46.5787 34.7626 46.5787 34.6468V34.531V34.4152V16.2363H46.8102ZM40.2102 36.731C40.2102 35.9205 40.7892 35.3416 41.5997 35.3416H44.0313L40.2102 38.931V36.731ZM19.3681 15.4258H44.3787C44.8418 15.4258 45.1892 15.7731 45.1892 16.2363V33.7205H41.5997C39.9787 33.7205 38.5892 35.11 38.5892 36.731V40.0889H34.4208C34.1892 39.2784 33.6102 38.8152 33.1471 38.6995C32.6839 38.4679 32.2208 38.4679 31.6418 38.5837C31.4102 37.8889 30.9471 37.31 30.3681 37.0784C29.7892 36.731 28.9787 36.731 28.2839 36.9626C28.0523 36.6152 27.705 36.3837 27.3576 36.1521C26.8944 35.9205 26.3155 35.8047 25.7366 35.9205V31.7521C25.7366 30.3626 24.5787 29.0889 23.0734 29.0889C21.6839 29.0889 20.4102 30.2468 20.4102 31.7521V41.8258L19.7155 40.7837C19.7155 40.6679 19.5997 40.6679 19.5997 40.5521C19.3681 40.2047 19.0208 39.7416 18.4418 39.2784V16.2363C18.6734 15.7731 19.0208 15.4258 19.3681 15.4258ZM21.7997 51.2047C21.5681 49.931 20.8734 49.1205 20.6418 48.8889C19.8313 48.1942 19.4839 47.4995 19.2523 46.9205L19.1366 46.5731C18.905 46.2258 18.6734 45.6468 18.4418 44.9521C18.0944 43.91 17.5155 42.5205 16.8208 41.0152C16.705 40.5521 16.8208 40.3205 16.8208 40.2047C16.9366 40.0889 17.2839 40.0889 17.7471 40.4363C17.9787 40.6679 18.2102 40.8995 18.326 41.2468C18.4418 41.3626 18.4418 41.4784 18.4418 41.4784L20.0629 44.1416C20.1787 44.3731 20.526 44.4889 20.7576 44.4889H20.8734C21.2208 44.4889 21.4523 44.2574 21.5681 44.0258L22.0313 42.8679C22.0313 42.7521 22.1471 42.6363 22.1471 42.5205V31.6363C22.1471 31.0574 22.6102 30.5942 23.1892 30.5942C23.7681 30.5942 24.2313 31.0574 24.2313 31.6363V40.6679C24.2313 41.131 24.5787 41.4784 25.0418 41.4784C25.505 41.4784 25.8523 41.131 25.8523 40.6679V37.4258C26.1997 37.31 26.5471 37.4258 26.7787 37.5416C27.0102 37.6574 27.126 37.8889 27.2418 38.1205V41.131C27.2418 41.5942 27.5892 41.9416 28.0523 41.9416C28.5155 41.9416 28.8629 41.5942 28.8629 41.131V38.3521C29.2102 38.2363 29.5576 38.3521 29.7892 38.4679C30.0208 38.5837 30.1366 38.8152 30.2523 39.0468V42.0574C30.2523 42.5205 30.5997 42.8679 31.0629 42.8679C31.526 42.8679 31.8734 42.5205 31.8734 42.0574V40.0889C32.105 39.9731 32.4523 39.9731 32.5681 40.0889C32.6839 40.0889 32.7997 40.2047 32.9155 40.6679V47.9626L31.526 50.3942C31.4102 50.51 31.4102 50.6258 31.4102 50.8573V51.4363H21.7997V51.2047Z" fill="#101010"/>
<path d="M23.1894 22.4889H40.7894C41.2526 22.4889 41.6 22.1416 41.6 21.6784C41.6 21.2153 41.2526 20.8679 40.7894 20.8679H23.1894C22.7263 20.8679 22.3789 21.2153 22.3789 21.6784C22.3789 22.1416 22.7263 22.4889 23.1894 22.4889ZM40.7894 27.3521H28.9789C28.5157 27.3521 28.1684 27.6995 28.1684 28.1626C28.1684 28.6258 28.5157 28.9732 28.9789 28.9732H40.7894C41.2526 28.9732 41.6 28.6258 41.6 28.1626C41.6 27.6995 41.2526 27.3521 40.7894 27.3521Z" fill="#101010"/>
<ellipse cx="18.6212" cy="15.6053" rx="8.31458" ry="8.15533" fill="white"/>
<path d="M18.6208 5.92496C13.2743 5.92496 8.94043 10.2589 8.94043 15.6053C8.94043 20.9517 13.2743 25.2856 18.6208 25.2856C23.9672 25.2856 28.3011 20.9517 28.3011 15.6053C28.3011 10.2589 23.9672 5.92496 18.6208 5.92496ZM21.77 21.7409C20.6231 20.2099 18.8214 20.1663 18.6208 20.1663C16.7074 20.1663 15.5927 21.5801 15.4716 21.7409C15.271 22.0078 14.8906 22.0626 14.6237 21.862C14.3569 21.6614 14.302 21.281 14.5026 21.0142C14.6086 20.8722 15.0079 20.3726 15.6722 19.9052C16.556 19.2844 17.5761 18.9551 18.6208 18.9551C18.7987 18.9551 19.4365 18.974 20.2086 19.2257C21.2363 19.5607 22.1125 20.1777 22.7389 21.0142C22.9396 21.281 22.8847 21.6614 22.6178 21.862C22.351 22.0626 21.9706 22.0078 21.77 21.7409ZM13.9273 12.5962C14.6805 12.5962 15.2899 13.2056 15.2899 13.9588C15.2899 14.712 14.6805 15.3214 13.9273 15.3214C13.174 15.3214 12.5646 14.712 12.5646 13.9588C12.5646 13.2056 13.174 12.5962 13.9273 12.5962ZM23.3143 15.3214C22.561 15.3214 21.9516 14.712 21.9516 13.9588C21.9516 13.2056 22.561 12.5962 23.3143 12.5962C24.0675 12.5962 24.6769 13.2056 24.6769 13.9588C24.6769 14.712 24.0675 15.3214 23.3143 15.3214Z" fill="#75B68C"/>
</svg>
