<svg width="60" height="60" viewBox="0 0 60 60" fill="none" xmlns="http://www.w3.org/2000/svg">
<path d="M45.9326 51.2736L37.5802 51.2617C36.7526 51.2605 36.0823 50.5893 36.0823 49.7617V40.2094C36.0823 39.6571 35.6346 39.2094 35.0823 39.2094H33.3853C32.3726 39.2094 31.8152 38.0324 32.4569 37.249L40.815 27.0451C41.4171 26.3101 42.5421 26.3129 43.1405 27.0509L51.414 37.2535C52.0501 38.0379 51.4918 39.2093 50.4819 39.2093H48.4347C47.8825 39.2093 47.4347 39.6571 47.4347 40.2093V49.7736C47.4347 50.6029 46.7619 51.2748 45.9326 51.2736Z" fill="#F7C869"/>
<path d="M40.9443 48.2747H39.2312C38.679 48.2747 38.2312 47.827 38.2312 47.2747V45.3375" stroke="white" stroke-width="2" stroke-linecap="round"/>
<path d="M43.1043 12.5864C43.2118 12.4212 43.2865 12.236 43.3242 12.0412C43.3618 11.8465 43.3616 11.6461 43.3236 11.4514C43.2855 11.2568 43.2104 11.0717 43.1025 10.9068C42.9946 10.7418 42.8561 10.6003 42.6948 10.4901C42.5334 10.38 42.3525 10.3035 42.1623 10.265C41.9721 10.2265 41.7763 10.2267 41.5862 10.2656C41.3961 10.3046 41.2153 10.3814 41.0542 10.4919C40.8931 10.6024 40.7548 10.7442 40.6473 10.9094C38.9064 13.584 35.2776 19.1654 34.8093 19.9222C34.7547 20.0082 34.656 20.1458 34.5195 20.335C33.9903 21.066 32.9088 22.571 31.8189 24.7446C31.7949 24.7226 31.7711 24.7004 31.7475 24.678C31.0524 24.0136 29.8008 22.586 27.9465 18.5849C25.8675 14.0957 22.9359 11.9629 19.9917 11.1244C17.1294 10.3052 14.4183 10.7524 12.8349 11.0513C12.6442 11.0873 12.4622 11.1614 12.2995 11.2694C12.1368 11.3773 11.9964 11.5171 11.8865 11.6806C11.7765 11.8441 11.699 12.0282 11.6585 12.2223C11.618 12.4165 11.6153 12.6169 11.6505 12.8121C11.6856 13.0074 11.758 13.1936 11.8635 13.3602C11.9689 13.5268 12.1054 13.6705 12.2651 13.7831C12.4248 13.8957 12.6046 13.975 12.7943 14.0165C12.9839 14.0579 13.1797 14.0607 13.3704 14.0247C14.8971 13.7366 17.0328 13.4163 19.1958 14.0355C21.2748 14.6289 23.5449 16.1403 25.2795 19.8813C27.2388 24.1104 28.6857 25.8906 29.7357 26.8903C29.952 27.0967 30.1452 27.2644 30.2901 27.3891L30.3531 27.4429C30.4434 27.5203 30.498 27.5719 30.5316 27.602C30.5332 27.6364 30.5339 27.6708 30.5337 27.7052C29.7405 29.837 29.2012 32.059 28.9272 34.3229C28.9034 34.52 28.9179 34.7199 28.9696 34.9113C29.0214 35.1026 29.1094 35.2817 29.2288 35.4382C29.3481 35.5947 29.4964 35.7257 29.6652 35.8235C29.8339 35.9214 30.0199 35.9842 30.2124 36.0085C30.4048 36.0328 30.6001 36.018 30.787 35.965C30.974 35.912 31.1488 35.8219 31.3017 35.6997C31.4546 35.5775 31.5825 35.4257 31.6781 35.2529C31.7736 35.0801 31.835 34.8898 31.8588 34.6927C32.6526 28.1051 35.6913 23.8266 36.8988 22.1259C37.0752 21.8787 37.2138 21.683 37.2978 21.5454C39.2242 18.5525 41.1604 15.5661 43.1064 12.5864H43.1043ZM48.3543 15.5168C48.425 15.1223 48.3397 14.7151 48.1172 14.3848C47.8947 14.0546 47.5532 13.8284 47.1678 13.756C46.7823 13.6836 46.3846 13.7709 46.0621 13.9987C45.7395 14.2265 45.5186 14.5762 45.4479 14.9707C44.1249 22.371 42.0963 29.5305 39.5049 34.8002C38.2092 37.4361 36.8085 39.5216 35.3469 40.932C33.8916 42.3316 32.4573 42.9895 31.0377 42.9895C30.3699 42.9895 29.2422 42.5122 27.684 41.3039C26.193 40.1494 24.5424 38.5197 22.8771 36.6578C19.5507 32.9404 16.2999 28.4663 14.3238 25.5079C14.2143 25.344 14.0743 25.2038 13.9119 25.0952C13.7495 24.9867 13.5678 24.912 13.3772 24.8754C13.1866 24.8387 12.9908 24.8409 12.801 24.8817C12.6112 24.9226 12.4311 25.0013 12.271 25.1134C12.1109 25.2255 11.974 25.3687 11.868 25.535C11.762 25.7013 11.689 25.8873 11.6532 26.0825C11.6174 26.2776 11.6195 26.4781 11.6594 26.6724C11.6993 26.8667 11.7762 27.0511 11.8857 27.215C13.9122 30.2465 17.2491 34.8432 20.6994 38.7003C22.4214 40.6245 24.2085 42.4047 25.9011 43.7162C27.5244 44.9718 29.3283 46.0146 31.0377 46.0146C33.4317 46.0146 35.5527 44.8837 37.3692 43.1336C39.1752 41.3921 40.7628 38.969 42.1446 36.159C44.9103 30.5346 47.0019 23.0655 48.3543 15.5168Z" fill="#1E1F24"/>
</svg>
