<svg width="61" height="60" viewBox="0 0 61 60" fill="none" xmlns="http://www.w3.org/2000/svg">
<path d="M46.1497 35.9584C51.2688 35.9584 55.4186 40.1082 55.4186 45.2272C55.4186 50.3463 51.2688 54.4961 46.1497 54.4961C41.0307 54.4961 36.8809 50.3463 36.8809 45.2272C36.8809 40.1082 41.0307 35.9584 46.1497 35.9584ZM50.6408 46.7766H42.0886V46.78C42.0886 49.1416 44.0031 51.0561 46.3647 51.0561C48.7263 51.0561 50.6408 49.1416 50.6408 46.78V46.7766ZM43.522 41.405C42.7304 41.405 42.0886 42.0467 42.0886 42.8384C42.0886 43.63 42.7304 44.2717 43.522 44.2717C44.3135 44.2717 44.9553 43.63 44.9553 42.8383C44.9553 42.0467 44.3135 41.405 43.5219 41.405H43.522ZM49.2075 41.405C48.4159 41.405 47.7741 42.0467 47.7741 42.8384C47.7741 43.63 48.4159 44.2717 49.2075 44.2717C49.9991 44.2717 50.6408 43.63 50.6408 42.8383C50.6408 42.0467 49.9991 41.405 49.2075 41.405Z" fill="#73ACEC"/>
<path d="M47.002 21.3112L46.498 21.2344C46.7548 21.1103 46.9712 20.9161 47.1224 20.6743C47.2735 20.4325 47.3532 20.1529 47.3522 19.8677V18.4583C47.414 17.5794 47.1479 16.7087 46.6052 16.0146C46.0625 15.3204 45.2817 14.8521 44.4138 14.7C34.8494 10.8223 24.1508 10.8223 14.5863 14.7C13.7246 14.8455 12.9464 15.3027 12.3999 15.9847C11.8534 16.6667 11.5767 17.5258 11.6224 18.3985V19.8677C11.6236 20.1502 11.7043 20.4266 11.8554 20.6653C12.0065 20.904 12.2218 21.0953 12.4765 21.2173L11.9043 21.3198C11.1648 21.3571 10.4681 21.678 9.95911 22.2156C9.45007 22.7533 9.16778 23.4664 9.17092 24.2069V38.1041C9.17092 38.8721 9.476 39.6086 10.019 40.1517C10.5621 40.6947 11.2986 40.9998 12.0665 40.9998H21.9066C22.3239 40.9892 22.734 40.8883 23.1085 40.704C23.4831 40.5197 23.8132 40.2563 24.0761 39.9321L28.253 37.3098L28.3213 37.2073C28.443 37.0473 28.5949 36.9129 28.7685 36.8118C28.9422 36.7106 29.134 36.6446 29.3331 36.6177C29.5322 36.5907 29.7347 36.6032 29.929 36.6546C30.1233 36.7059 30.3055 36.795 30.4653 36.9168C30.5725 37.0027 30.6699 37.1001 30.7557 37.2073L30.8326 37.3098L35.0095 39.9321C35.266 40.2466 35.5854 40.5041 35.9473 40.6879C36.3091 40.8718 36.7054 40.978 37.1107 40.9998H46.9336C47.7016 40.9998 48.4381 40.6947 48.9812 40.1517C49.5242 39.6086 49.8293 38.8721 49.8293 38.1041V24.2069C49.8273 23.4512 49.5309 22.7261 49.003 22.1855C48.4751 21.6448 47.7573 21.3312 47.002 21.3112ZM20.1982 23.0196C23.2702 22.4834 26.3817 22.2062 29.5001 22.191C32.618 22.201 35.7295 22.4724 38.802 23.0025L46.5834 24.3094H46.8311V37.976H37.2388L36.7776 37.5148L32.8057 34.9523C31.995 34.089 30.8783 33.5779 29.6951 33.5284C28.5118 33.4789 27.3563 33.895 26.4763 34.6875C26.3738 34.7786 26.2799 34.8725 26.1945 34.9693L22.3336 37.455L21.7699 38.0016H12.1776V24.335L20.1982 23.0196ZM14.629 19.8677V18.3985C14.629 17.9629 14.8426 17.6896 14.928 17.6896H15.3893L15.5174 17.6041C24.4723 13.9053 34.5279 13.9053 43.4828 17.6041L43.6109 17.6554H44.0209C44.1286 17.7402 44.2143 17.8496 44.2708 17.9745C44.3273 18.0994 44.3529 18.236 44.3455 18.3729V19.8421C44.3506 20.0528 44.4005 20.26 44.4918 20.45C44.5831 20.6399 44.7137 20.8083 44.8751 20.9439L39.3999 20.0129C32.8749 18.9082 26.2107 18.9082 19.6857 20.0129L14.1849 20.9354C14.3257 20.7956 14.4375 20.6292 14.5137 20.446C14.59 20.2627 14.6292 20.0662 14.629 19.8677Z" fill="#1E1F24"/>
<path d="M19.6775 32.9791C20.4621 32.9808 21.2295 32.7496 21.8826 32.3148C22.5356 31.8799 23.045 31.261 23.346 30.5365C23.647 29.8119 23.7262 29.0143 23.5736 28.2447C23.4209 27.4751 23.0433 26.7681 22.4885 26.2133C21.9337 25.6585 21.2267 25.2809 20.4571 25.1282C19.6875 24.9756 18.8899 25.0548 18.1653 25.3558C17.4408 25.6569 16.8219 26.1662 16.387 26.8192C15.9522 27.4723 15.721 28.2398 15.7227 29.0244C15.7227 29.5437 15.825 30.058 16.0237 30.5378C16.2225 31.0176 16.5138 31.4536 16.881 31.8208C17.2482 32.1881 17.6842 32.4794 18.164 32.6781C18.6438 32.8769 19.1581 32.9791 19.6775 32.9791ZM18.7208 29.0244C18.7225 28.8355 18.78 28.6514 18.8862 28.4952C18.9923 28.339 19.1423 28.2177 19.3172 28.1466C19.4922 28.0755 19.6843 28.0578 19.8693 28.0957C20.0543 28.1335 20.2239 28.2253 20.3569 28.3594C20.4898 28.4936 20.5801 28.664 20.6163 28.8494C20.6525 29.0347 20.6331 29.2266 20.5605 29.4009C20.4878 29.5753 20.3652 29.7242 20.2081 29.8289C20.0509 29.9337 19.8663 29.9896 19.6775 29.9896C19.4252 29.9896 19.1832 29.89 19.004 29.7124C18.8248 29.5348 18.723 29.2937 18.7208 29.0414V29.0244ZM39.3233 32.9791C40.1079 32.9808 40.8753 32.7496 41.5284 32.3148C42.1815 31.8799 42.6908 31.261 42.9918 30.5365C43.2929 29.8119 43.3721 29.0143 43.2194 28.2447C43.0668 27.4751 42.6891 26.7681 42.1343 26.2133C41.5795 25.6585 40.8725 25.2809 40.1029 25.1282C39.3333 24.9756 38.5357 25.0548 37.8112 25.3558C37.0866 25.6569 36.4677 26.1662 36.0329 26.8192C35.598 27.4723 35.3668 28.2398 35.3685 29.0244C35.3685 30.0732 35.7852 31.0792 36.5268 31.8208C37.2685 32.5625 38.2744 32.9791 39.3233 32.9791ZM38.3666 29.0244C38.3683 28.8355 38.4258 28.6514 38.532 28.4952C38.6381 28.339 38.7881 28.2177 38.9631 28.1466C39.138 28.0755 39.3301 28.0578 39.5151 28.0957C39.7001 28.1335 39.8698 28.2253 40.0027 28.3594C40.1357 28.4936 40.2259 28.664 40.2622 28.8494C40.2984 29.0347 40.2789 29.2266 40.2063 29.4009C40.1336 29.5753 40.011 29.7242 39.8539 29.8289C39.6968 29.9337 39.5121 29.9896 39.3233 29.9896C39.071 29.9896 38.829 29.89 38.6498 29.7124C38.4707 29.5348 38.3689 29.2937 38.3666 29.0414V29.0244Z" fill="#1E1F24"/>
</svg>
