<svg width="61" height="60" viewBox="0 0 61 60" fill="none" xmlns="http://www.w3.org/2000/svg">
<path d="M44.066 50.2507L36.9 50.2405C36.0724 50.2393 35.4021 49.5681 35.4021 48.7405V40.4475C35.4021 39.8952 34.9544 39.4475 34.4021 39.4475H33.2517C32.2391 39.4475 31.6817 38.2705 32.3234 37.4871L39.5183 28.7033C40.1204 27.9683 41.2454 27.9711 41.8438 28.709L48.9658 37.4916C49.6018 38.276 49.0436 39.4475 48.0337 39.4475H46.5681C46.0158 39.4475 45.5681 39.8952 45.5681 40.4475V48.7507C45.5681 49.58 44.8952 50.2519 44.066 50.2507Z" fill="#F7C869"/>
<path d="M39.7559 47.5654H38.3263C37.774 47.5654 37.3263 47.1177 37.3263 46.5654V44.9352" stroke="white" stroke-width="2" stroke-linecap="round"/>
<path d="M51.5801 22.1083H42.0738L32.8113 17.1083H44.2676C44.9988 17.1083 45.4863 16.6083 45.4863 15.8583C45.4863 15.1083 44.7551 14.6083 44.2676 14.6083H29.6426C29.1551 14.6083 28.9113 14.8583 28.6676 14.8583L19.1613 9.8583H18.9176H18.6738H18.4301H18.1863C17.9426 9.6083 17.9426 9.8583 17.6988 9.8583C17.4551 10.1083 17.4551 10.3583 17.4551 10.6083V48.3583C17.4551 49.1083 17.9426 49.6083 18.4301 49.6083C18.9176 49.6083 19.6488 49.1083 19.6488 48.3583V36.6083L28.6676 31.8583C28.9113 31.8583 29.1551 32.1083 29.6426 32.1083H44.2676C44.9988 32.1083 45.4863 31.6083 45.4863 30.8583C45.4863 30.1083 44.7551 29.6083 44.2676 29.6083H32.8113L42.0738 24.6083H51.5801C52.3113 24.6083 52.7988 24.1083 52.7988 23.3583C52.7988 22.6083 52.0676 22.1083 51.5801 22.1083ZM19.8926 33.8583V12.8583L39.1488 23.3583L19.8926 33.8583Z" fill="black"/>
</svg>
