<svg width="61" height="60" viewBox="0 0 61 60" fill="none" xmlns="http://www.w3.org/2000/svg">
<path d="M7.72397 29.1041H33.3122C34.0952 29.1041 34.8462 29.4152 35.3999 29.9689C35.9536 30.5226 36.2647 31.2736 36.2647 32.0566V37.9616C36.2647 38.7446 35.9536 39.4956 35.3999 40.0493C34.8462 40.603 34.0952 40.9141 33.3122 40.9141H7.72397C6.94092 40.9141 6.18995 40.603 5.63625 40.0493C5.08255 39.4956 4.77148 38.7446 4.77148 37.9616V32.0566C4.77148 31.2736 5.08255 30.5226 5.63625 29.9689C6.18995 29.4152 6.94092 29.1041 7.72397 29.1041ZM18.5498 33.0408C18.0277 33.0408 17.5271 33.2482 17.1579 33.6173C16.7888 33.9864 16.5814 34.4871 16.5814 35.0091C16.5814 35.5311 16.7888 36.0318 17.1579 36.4009C17.5271 36.77 18.0277 36.9774 18.5498 36.9774H22.4864C23.0084 36.9774 23.5091 36.77 23.8782 36.4009C24.2474 36.0318 24.4547 35.5311 24.4547 35.0091C24.4547 34.4871 24.2474 33.9864 23.8782 33.6173C23.5091 33.2482 23.0084 33.0408 22.4864 33.0408H18.5498ZM7.72397 42.8824H33.3122C34.0952 42.8824 34.8462 43.1935 35.3999 43.7472C35.9536 44.3009 36.2647 45.0518 36.2647 45.8349V51.7399C36.2647 52.5229 35.9536 53.2739 35.3999 53.8276C34.8462 54.3813 34.0952 54.6923 33.3122 54.6923H7.72397C6.94092 54.6923 6.18995 54.3813 5.63625 53.8276C5.08255 53.2739 4.77148 52.5229 4.77148 51.7399V45.8349C4.77148 45.0518 5.08255 44.3009 5.63625 43.7472C6.18995 43.1935 6.94092 42.8824 7.72397 42.8824ZM18.5498 46.819C18.0278 46.8191 17.5272 47.0265 17.1581 47.3957C16.7891 47.7648 16.5817 48.2654 16.5817 48.7874C16.5817 49.3094 16.7891 49.81 17.1581 50.1791C17.5272 50.5482 18.0278 50.7556 18.5498 50.7557H22.4864C23.0084 50.7556 23.509 50.5482 23.878 50.1791C24.2471 49.81 24.4544 49.3094 24.4544 48.7874C24.4544 48.2654 24.2471 47.7648 23.878 47.3957C23.509 47.0265 23.0084 46.8191 22.4864 46.819H18.5498Z" fill="#75B68C"/>
<path d="M52.1285 17.1692V13.4043C52.1285 13.0422 51.9846 12.6948 51.7285 12.4387C51.4724 12.1826 51.1251 12.0388 50.7629 12.0388H22.086C21.7238 12.0388 21.3765 12.1826 21.1204 12.4387C20.8643 12.6948 20.7204 13.0422 20.7204 13.4043V17.1692H52.1285ZM20.7204 19.9003V42.0813C20.7204 42.4434 20.8643 42.7908 21.1204 43.0469C21.3765 43.303 21.7238 43.4468 22.086 43.4468H50.7629C51.1251 43.4468 51.4724 43.303 51.7285 43.0469C51.9846 42.7908 52.1285 42.4434 52.1285 42.0813V38.386C52.1285 38.0239 52.2724 37.6765 52.5284 37.4204C52.7845 37.1643 53.1319 37.0205 53.4941 37.0205C53.8562 37.0205 54.2036 37.1643 54.4597 37.4204C54.7157 37.6765 54.8596 38.0239 54.8596 38.386V42.0813C54.8596 43.1678 54.428 44.2098 53.6597 44.9781C52.8914 45.7464 51.8494 46.178 50.7629 46.178H22.086C20.9995 46.178 19.9574 45.7464 19.1892 44.9781C18.4209 44.2098 17.9893 43.1678 17.9893 42.0813V13.4043C17.9893 12.3178 18.4209 11.2758 19.1892 10.5075C19.9574 9.73923 20.9995 9.30762 22.086 9.30762H50.7629C51.8494 9.30762 52.8914 9.73923 53.6597 10.5075C54.428 11.2758 54.8596 12.3178 54.8596 13.4043V18.5348C54.8596 18.8969 54.7157 19.2443 54.4597 19.5004C54.2036 19.7565 53.8562 19.9003 53.4941 19.9003H20.7204Z" fill="#1E1F24"/>
<path d="M40.6857 23.8632C40.7469 23.6947 40.8408 23.5398 40.9619 23.4075C41.0829 23.2752 41.2289 23.1681 41.3914 23.0922C41.5539 23.0163 41.7298 22.9731 41.9089 22.9652C42.0881 22.9573 42.2671 22.9847 42.4357 23.046C42.6042 23.1072 42.7591 23.201 42.8914 23.3221C43.0237 23.4432 43.1309 23.5892 43.2067 23.7517C43.2826 23.9142 43.3258 24.09 43.3337 24.2692C43.3416 24.4484 43.3142 24.6274 43.253 24.7959L38.5827 37.086C38.459 37.4265 38.2052 37.7039 37.877 37.8571C37.5488 38.0104 37.1732 38.027 36.8327 37.9033C36.4923 37.7797 36.2149 37.5258 36.0617 37.1976C35.9084 36.8694 35.8918 36.4938 36.0154 36.1534L40.6857 23.8632ZM47.0165 25.2425C46.8965 25.109 46.804 24.9533 46.7442 24.7841C46.6844 24.615 46.6585 24.4357 46.6681 24.2565C46.6873 23.8946 46.8494 23.5552 47.1189 23.3129C47.3883 23.0706 47.743 22.9453 48.1049 22.9645C48.284 22.974 48.4596 23.0187 48.6215 23.0961C48.7834 23.1734 48.9285 23.2819 49.0484 23.4153L54.4438 29.417C54.6691 29.6677 54.7938 29.9928 54.7938 30.3299C54.7938 30.667 54.6691 30.9921 54.4438 31.2428L49.0484 37.2445C48.8063 37.5139 48.4671 37.6762 48.1054 37.6955C47.7436 37.7148 47.389 37.5897 47.1196 37.3476C46.8501 37.1054 46.6879 36.7662 46.6685 36.4045C46.6492 36.0427 46.7744 35.6881 47.0165 35.4187L51.5925 30.3306L47.0178 25.2425H47.0165ZM32.5947 25.2425C32.7147 25.1091 32.8072 24.9535 32.867 24.7844C32.9268 24.6153 32.9528 24.4361 32.9433 24.257C32.9339 24.0779 32.8892 23.9024 32.812 23.7405C32.7347 23.5786 32.6263 23.4336 32.493 23.3136C32.3596 23.1936 32.204 23.1011 32.0349 23.0413C31.8658 22.9815 31.6866 22.9555 31.5075 22.965C31.3283 22.9744 31.1528 23.0191 30.991 23.0963C30.8291 23.1736 30.6841 23.282 30.5641 23.4153L25.1674 29.417C24.942 29.6677 24.8174 29.9928 24.8174 30.3299C24.8174 30.667 24.942 30.9921 25.1674 31.2428L30.5641 37.2445C30.8081 37.5064 31.1452 37.662 31.5029 37.6778C31.8605 37.6936 32.21 37.5683 32.4762 37.329C32.7424 37.0897 32.904 36.7554 32.9261 36.3981C32.9483 36.0408 32.8293 35.6891 32.5947 35.4187L28.02 30.3306L32.5947 25.2425Z" fill="#1E1F24"/>
</svg>
