<svg width="60" height="60" viewBox="0 0 60 60" fill="none" xmlns="http://www.w3.org/2000/svg">
<path d="M33.7807 35.2995H50.068C50.5664 35.2995 51.0444 35.4975 51.3968 35.8499C51.7493 36.2023 51.9473 36.6803 51.9473 37.1788V40.9374C51.9473 41.4358 51.7493 41.9138 51.3968 42.2662C51.0444 42.6187 50.5664 42.8167 50.068 42.8167H33.7807C33.2822 42.8167 32.8042 42.6187 32.4518 42.2662C32.0994 41.9138 31.9014 41.4358 31.9014 40.9374V37.1788C31.9014 36.6803 32.0994 36.2023 32.4518 35.8499C32.8042 35.4975 33.2822 35.2995 33.7807 35.2995ZM40.6714 37.8052C40.3392 37.8052 40.0205 37.9372 39.7855 38.1722C39.5506 38.4071 39.4186 38.7258 39.4186 39.0581C39.4186 39.3904 39.5506 39.709 39.7855 39.944C40.0205 40.1789 40.3392 40.3109 40.6714 40.3109H43.1772C43.5095 40.3109 43.8281 40.1789 44.0631 39.944C44.2981 39.709 44.4301 39.3904 44.4301 39.0581C44.4301 38.7258 44.2981 38.4071 44.0631 38.1722C43.8281 37.9372 43.5095 37.8052 43.1772 37.8052H40.6714ZM33.7807 44.0696H50.068C50.5664 44.0696 51.0444 44.2675 51.3968 44.62C51.7493 44.9724 51.9473 45.4504 51.9473 45.9489V49.7075C51.9473 50.2059 51.7493 50.6839 51.3968 51.0363C51.0444 51.3888 50.5664 51.5868 50.068 51.5868H33.7807C33.2822 51.5868 32.8042 51.3888 32.4518 51.0363C32.0994 50.6839 31.9014 50.2059 31.9014 49.7075V45.9489C31.9014 45.4504 32.0994 44.9724 32.4518 44.62C32.8042 44.2675 33.2822 44.0696 33.7807 44.0696ZM40.6714 46.5753C40.3392 46.5753 40.0206 46.7074 39.7857 46.9423C39.5507 47.1773 39.4188 47.4959 39.4188 47.8282C39.4188 48.1604 39.5507 48.479 39.7857 48.714C40.0206 48.949 40.3392 49.081 40.6714 49.081H43.1772C43.5094 49.081 43.8281 48.949 44.063 48.714C44.2979 48.479 44.4299 48.1604 44.4299 47.8282C44.4299 47.4959 44.2979 47.1773 44.063 46.9423C43.8281 46.7074 43.5094 46.5753 43.1772 46.5753H40.6714Z" fill="#75B68C"/>
<path d="M44.8102 14.2363C44.8102 12.9626 43.7681 11.8047 42.3787 11.8047H17.3681C16.0944 11.8047 15.0523 12.8468 15.0523 14.2363V36.5837C14.5892 36.5837 14.2418 36.6995 13.8944 36.931C13.4313 37.1626 12.8523 37.9731 13.1997 39.4784V39.71C13.8944 41.0995 14.4734 42.4889 14.8208 43.531C15.0523 44.2258 15.2839 44.9205 15.5155 45.3837L15.6313 45.6152C15.9787 46.1942 16.4418 47.2363 17.4839 48.0468C17.4839 48.0468 17.9471 48.51 18.0629 49.0889H17.4839C17.0208 49.0889 16.6734 49.4363 16.6734 49.8995V51.9837C16.6734 52.4468 17.0208 52.7942 17.4839 52.7942C17.9471 52.7942 18.2944 52.4468 18.2944 51.9837V50.8258H30.9155V51.9837C30.9155 52.4468 31.2629 52.7942 31.726 52.7942C32.1892 52.7942 32.4208 52.4468 32.4208 51.9837V50.0152C32.4208 49.5521 32.0734 49.2047 31.6102 49.2047H31.0313V48.8573L32.4208 46.4258C32.5366 46.31 32.5366 46.1942 32.5366 45.9626V39.4784H37.2839C37.3997 39.4784 37.5155 39.4784 37.6313 39.3626L37.7471 39.2468C37.7471 39.2468 37.8629 39.2468 37.8629 39.131L44.4629 32.8784C44.4629 32.8784 44.5787 32.7626 44.5787 32.6468V32.531V32.4152V14.2363H44.8102ZM38.2102 34.731C38.2102 33.9205 38.7892 33.3416 39.5997 33.3416H42.0313L38.2102 36.931V34.731ZM17.3681 13.4258H42.3787C42.8418 13.4258 43.1892 13.7731 43.1892 14.2363V31.7205H39.5997C37.9787 31.7205 36.5892 33.11 36.5892 34.731V38.0889H32.4208C32.1892 37.2784 31.6102 36.8152 31.1471 36.6995C30.6839 36.4679 30.2208 36.4679 29.6418 36.5837C29.4102 35.8889 28.9471 35.31 28.3681 35.0784C27.7892 34.731 26.9787 34.731 26.2839 34.9626C26.0523 34.6152 25.705 34.3837 25.3576 34.1521C24.8944 33.9205 24.3155 33.8047 23.7366 33.9205V29.7521C23.7366 28.3626 22.5787 27.0889 21.0734 27.0889C19.6839 27.0889 18.4102 28.2468 18.4102 29.7521V39.8258L17.7155 38.7837C17.7155 38.6679 17.5997 38.6679 17.5997 38.5521C17.3681 38.2047 17.0208 37.7416 16.4418 37.2784V14.2363C16.6734 13.7731 17.0208 13.4258 17.3681 13.4258ZM19.7997 49.2047C19.5681 47.931 18.8734 47.1205 18.6418 46.8889C17.8313 46.1942 17.4839 45.4995 17.2523 44.9205L17.1366 44.5731C16.905 44.2258 16.6734 43.6468 16.4418 42.9521C16.0944 41.91 15.5155 40.5205 14.8208 39.0152C14.705 38.5521 14.8208 38.3205 14.8208 38.2047C14.9366 38.0889 15.2839 38.0889 15.7471 38.4363C15.9787 38.6679 16.2102 38.8995 16.326 39.2468C16.4418 39.3626 16.4418 39.4784 16.4418 39.4784L18.0629 42.1416C18.1787 42.3731 18.526 42.4889 18.7576 42.4889H18.8734C19.2208 42.4889 19.4523 42.2574 19.5681 42.0258L20.0313 40.8679C20.0313 40.7521 20.1471 40.6363 20.1471 40.5205V29.6363C20.1471 29.0573 20.6102 28.5942 21.1892 28.5942C21.7681 28.5942 22.2313 29.0573 22.2313 29.6363V38.6679C22.2313 39.131 22.5787 39.4784 23.0418 39.4784C23.505 39.4784 23.8523 39.131 23.8523 38.6679V35.4258C24.1997 35.31 24.5471 35.4258 24.7787 35.5416C25.0102 35.6574 25.126 35.8889 25.2418 36.1205V39.131C25.2418 39.5942 25.5892 39.9416 26.0523 39.9416C26.5155 39.9416 26.8629 39.5942 26.8629 39.131V36.3521C27.2102 36.2363 27.5576 36.3521 27.7892 36.4679C28.0208 36.5837 28.1366 36.8152 28.2523 37.0468V40.0574C28.2523 40.5205 28.5997 40.8679 29.0629 40.8679C29.526 40.8679 29.8734 40.5205 29.8734 40.0574V38.0889C30.105 37.9731 30.4523 37.9731 30.5681 38.0889C30.6839 38.0889 30.7997 38.2047 30.9155 38.6679V45.9626L29.526 48.3942C29.4102 48.51 29.4102 48.6258 29.4102 48.8573V49.4363H19.7997V49.2047Z" fill="#101010"/>
<path d="M21.1894 20.4889H38.7894C39.2526 20.4889 39.6 20.1416 39.6 19.6784C39.6 19.2153 39.2526 18.8679 38.7894 18.8679H21.1894C20.7263 18.8679 20.3789 19.2153 20.3789 19.6784C20.3789 20.1416 20.7263 20.4889 21.1894 20.4889ZM38.7894 25.3521H26.9789C26.5157 25.3521 26.1684 25.6995 26.1684 26.1626C26.1684 26.6258 26.5157 26.9732 26.9789 26.9732H38.7894C39.2526 26.9732 39.6 26.6258 39.6 26.1626C39.6 25.6995 39.2526 25.3521 38.7894 25.3521Z" fill="#101010"/>
</svg>
