<svg width="61" height="60" viewBox="0 0 61 60" fill="none" xmlns="http://www.w3.org/2000/svg">
<path d="M33.6947 35.405H49.982C50.4804 35.405 50.9585 35.603 51.3109 35.9555C51.6633 36.3079 51.8613 36.7859 51.8613 37.2843V41.0429C51.8613 41.5414 51.6633 42.0194 51.3109 42.3718C50.9585 42.7242 50.4804 42.9222 49.982 42.9222H33.6947C33.1963 42.9222 32.7183 42.7242 32.3659 42.3718C32.0134 42.0194 31.8154 41.5414 31.8154 41.0429V37.2843C31.8154 36.7859 32.0134 36.3079 32.3659 35.9555C32.7183 35.603 33.1963 35.405 33.6947 35.405ZM40.5855 37.9108C40.2532 37.9108 39.9346 38.0428 39.6996 38.2777C39.4646 38.5127 39.3326 38.8314 39.3326 39.1636C39.3326 39.4959 39.4646 39.8146 39.6996 40.0495C39.9346 40.2845 40.2532 40.4165 40.5855 40.4165H43.0912C43.4235 40.4165 43.7422 40.2845 43.9772 40.0495C44.2121 39.8146 44.3441 39.4959 44.3441 39.1636C44.3441 38.8314 44.2121 38.5127 43.9772 38.2777C43.7422 38.0428 43.4235 37.9108 43.0912 37.9108H40.5855ZM33.6947 44.1751H49.982C50.4804 44.1751 50.9585 44.3731 51.3109 44.7255C51.6633 45.078 51.8613 45.556 51.8613 46.0544V49.813C51.8613 50.3114 51.6633 50.7895 51.3109 51.1419C50.9585 51.4943 50.4804 51.6923 49.982 51.6923H33.6947C33.1963 51.6923 32.7183 51.4943 32.3659 51.1419C32.0134 50.7895 31.8154 50.3114 31.8154 49.813V46.0544C31.8154 45.556 32.0134 45.078 32.3659 44.7255C32.7183 44.3731 33.1963 44.1751 33.6947 44.1751ZM40.5855 46.6808C40.2533 46.6809 39.9346 46.8129 39.6997 47.0479C39.4648 47.2828 39.3328 47.6015 39.3328 47.9337C39.3328 48.266 39.4648 48.5846 39.6997 48.8196C39.9346 49.0545 40.2533 49.1865 40.5855 49.1866H43.0912C43.4235 49.1865 43.7421 49.0545 43.977 48.8196C44.212 48.5846 44.3439 48.266 44.3439 47.9337C44.3439 47.6015 44.212 47.2828 43.977 47.0479C43.7421 46.8129 43.4235 46.6809 43.0912 46.6808H40.5855Z" fill="#75B68C"/>
<path d="M28.9076 8.83024C29.5117 8.47657 30.1991 8.29016 30.8991 8.29016C31.5991 8.29016 32.2865 8.47657 32.8906 8.83024L46.3243 16.6723C47.5572 17.3919 48.3158 18.7211 48.3158 20.1579V35.8421C48.3166 36.546 48.1333 37.2379 47.7839 37.849C47.4346 38.4601 46.9313 38.9691 46.3243 39.3254L32.8906 47.1698C32.2865 47.5235 31.5991 47.7099 30.8991 47.7099C30.1991 47.7099 29.5117 47.5235 28.9076 47.1698L15.4762 39.3277C14.8684 38.9715 14.3645 38.4622 14.0147 37.8507C13.6649 37.2391 13.4814 36.5466 13.4824 35.8421V20.1579C13.4824 18.7211 14.241 17.3919 15.4739 16.6746L28.9076 8.83024ZM31.5637 11.1563C31.3627 11.0364 31.1331 10.9731 30.8991 10.9731C30.6651 10.9731 30.4355 11.0364 30.2345 11.1563L16.8008 18.9961C16.5982 19.1149 16.4303 19.2846 16.3137 19.4885C16.1971 19.6923 16.1359 19.9231 16.1362 20.1579V35.8421C16.1362 36.3234 16.3883 36.7634 16.8008 37.004L30.2345 44.8461C30.4408 44.9652 30.663 45.0248 30.8991 45.0248C31.1351 45.0248 31.3574 44.9652 31.5637 44.8461L44.9974 37.004C45.2 36.8852 45.3679 36.7154 45.4845 36.5116C45.6011 36.3077 45.6623 36.0769 45.662 35.8421V20.1579C45.662 19.679 45.4099 19.2367 44.9974 18.9961L31.5637 11.1563ZM30.8326 28.2659C31.4835 28.2659 32.0243 28.7471 32.1343 29.3796L32.1572 29.6248V35.0904C32.1596 35.2665 32.1274 35.4413 32.0622 35.6049C31.9971 35.7685 31.9003 35.9176 31.7776 36.0438C31.6548 36.17 31.5083 36.2708 31.3466 36.3404C31.1848 36.41 31.011 36.447 30.8349 36.4494C30.5216 36.4466 30.2193 36.3334 29.9812 36.1297C29.7431 35.9259 29.5845 35.6448 29.5333 35.3357L29.5126 35.0904V29.6248C29.5126 28.8732 30.1039 28.2659 30.8349 28.2659H30.8326ZM38.4593 25.5388C39.1078 25.5388 39.6487 26.02 39.7587 26.6548L39.7816 26.8977V35.0882C39.7843 35.2644 39.7523 35.4395 39.6873 35.6033C39.6222 35.7671 39.5256 35.9166 39.4028 36.043C39.2799 36.1694 39.1334 36.2704 38.9715 36.3402C38.8096 36.4099 38.6356 36.447 38.4593 36.4494C38.146 36.446 37.844 36.3322 37.6063 36.1281C37.3687 35.9239 37.2106 35.6425 37.1599 35.3334L37.137 35.0882V26.8977C37.137 26.1484 37.7305 25.5388 38.4593 25.5388ZM22.8622 20.0388C23.5108 20.0388 24.0516 20.5086 24.1616 21.1273L24.1845 21.3657V34.5954C24.1775 34.921 24.0508 35.2325 23.8286 35.4705C23.6065 35.7086 23.3044 35.8564 22.9802 35.8859C22.6559 35.9154 22.3321 35.8244 22.0707 35.6303C21.8093 35.4363 21.6285 35.1527 21.5628 34.8338L21.5399 34.5954V21.3634C21.5399 20.63 22.1335 20.0365 22.8622 20.0365V20.0388Z" fill="#1E1F24"/>
</svg>
