<svg width="61" height="60" viewBox="0 0 61 60" fill="none" xmlns="http://www.w3.org/2000/svg">
<path d="M20.6057 23.2913C29.1651 23.2913 36.1039 30.2301 36.1039 38.7895C36.1039 47.3489 29.1651 54.2877 20.6057 54.2877C12.0462 54.2877 5.10742 47.3489 5.10742 38.7895C5.10742 30.2301 12.0462 23.2913 20.6057 23.2913ZM28.1151 41.3801H13.8152V41.3858C13.8152 45.3346 17.0163 48.5358 20.9651 48.5358C24.914 48.5358 28.1151 45.3347 28.1151 41.3858V41.3801ZM16.2118 32.3985C14.8882 32.3985 13.8152 33.4715 13.8152 34.7951C13.8152 36.1187 14.8882 37.1917 16.2118 37.1917C17.5354 37.1917 18.6085 36.1187 18.6085 34.7951C18.6085 33.4715 17.5354 32.3985 16.2118 32.3985H16.2118ZM25.7185 32.3985C24.3949 32.3985 23.3218 33.4715 23.3218 34.7951C23.3218 36.1187 24.3949 37.1917 25.7185 37.1917C27.0421 37.1917 28.1151 36.1187 28.1151 34.7951C28.1151 33.4715 27.0421 32.3985 25.7185 32.3985Z" fill="#73ACEC"/>
<path d="M56.5072 31.4692C56.3883 31.3567 56.2471 31.2674 56.0917 31.2065C55.9362 31.1456 55.7696 31.1142 55.6013 31.1142C55.433 31.1142 55.2663 31.1456 55.1109 31.2065C54.9554 31.2674 54.8142 31.3567 54.6953 31.4692L46.6314 39.0885L42.8256 35.4926C42.7066 35.3802 42.5653 35.291 42.4099 35.2302C42.2544 35.1693 42.0878 35.138 41.9196 35.138C41.7513 35.138 41.5847 35.1693 41.4293 35.2302C41.2738 35.291 41.1326 35.3802 41.0136 35.4926C40.8947 35.605 40.8003 35.7384 40.7359 35.8853C40.6715 36.0322 40.6384 36.1896 40.6384 36.3486C40.6384 36.5076 40.6715 36.665 40.7359 36.8119C40.8003 36.9587 40.8947 37.0922 41.0136 37.2046L45.7254 41.6565C45.8443 41.7691 45.9855 41.8584 46.141 41.9193C46.2964 41.9802 46.4631 42.0115 46.6314 42.0115C46.7997 42.0115 46.9663 41.9802 47.1218 41.9193C47.2772 41.8584 47.4184 41.7691 47.5373 41.6565L56.5072 33.1812C56.6263 33.0689 56.7208 32.9355 56.7853 32.7886C56.8498 32.6417 56.883 32.4843 56.883 32.3252C56.883 32.1662 56.8498 32.0088 56.7853 31.8619C56.7208 31.715 56.6263 31.5816 56.5072 31.4692ZM48.797 22.2639C48.797 21.9427 48.662 21.6348 48.4216 21.4077C48.1813 21.1807 47.8554 21.0531 47.5155 21.0531H27.0129C26.673 21.0531 26.3471 21.1807 26.1068 21.4077C25.8665 21.6348 25.7314 21.9427 25.7314 22.2639C25.7314 22.585 25.8665 22.8929 26.1068 23.12C26.3471 23.3471 26.673 23.4746 27.0129 23.4746H47.5155C47.8554 23.4746 48.1813 23.3471 48.4216 23.12C48.662 22.8929 48.797 22.585 48.797 22.2639ZM27.0129 29.5284C26.673 29.5284 26.3471 29.656 26.1068 29.883C25.8665 30.1101 25.7314 30.418 25.7314 30.7392C25.7314 31.0603 25.8665 31.3682 26.1068 31.5953C26.3471 31.8223 26.673 31.9499 27.0129 31.9499H38.5456C38.8855 31.9499 39.2114 31.8223 39.4517 31.5953C39.692 31.3682 39.827 31.0603 39.827 30.7392C39.827 30.418 39.692 30.1101 39.4517 29.883C39.2114 29.656 38.8855 29.5284 38.5456 29.5284H27.0129Z" fill="#1E1F24"/>
<path d="M47.6395 44.0575H24.5715C23.8052 44.0575 23.1683 43.44 23.1683 42.6603V13.975C23.1683 13.1953 23.8052 12.5778 24.5715 12.5778H49.9563C50.7226 12.5778 51.3595 13.1953 51.3595 13.975V27.2377C51.3595 27.5588 51.4945 27.8667 51.7348 28.0938C51.9751 28.3209 52.301 28.4484 52.6409 28.4484C52.9808 28.4484 53.3067 28.3209 53.547 28.0938C53.7873 27.8667 53.9223 27.5588 53.9223 27.2377V13.975C53.9223 11.8732 52.154 10.1563 49.9563 10.1563H24.5715C22.3738 10.1563 20.6055 11.8732 20.6055 13.975V42.6603C20.6055 44.7622 22.3738 46.479 24.5715 46.479H47.6395C47.9794 46.479 48.3053 46.3514 48.5456 46.1244C48.7859 45.8973 48.9209 45.5894 48.9209 45.2682C48.9209 44.9471 48.7859 44.6392 48.5456 44.4121C48.3053 44.1851 47.9794 44.0575 47.6395 44.0575Z" fill="#1E1F24"/>
</svg>
