<svg width="61" height="60" viewBox="0 0 61 60" fill="none" xmlns="http://www.w3.org/2000/svg">
<path d="M43.6345 39.9124C44.0745 39.3657 44.5411 38.8724 45.0345 38.4324C45.4611 38.0724 45.9445 37.7457 46.4845 37.4524C47.0245 37.1591 47.5878 37.0324 48.1745 37.0724C49.0011 37.1391 49.6911 37.3357 50.2445 37.6624C50.7978 37.9891 51.2378 38.4024 51.5645 38.9024C51.8911 39.4024 52.1145 39.9691 52.2345 40.6024C52.3545 41.2357 52.3945 41.8857 52.3545 42.5524C52.3145 43.2191 52.1978 43.8557 52.0045 44.4624C51.8111 45.0691 51.5711 45.6357 51.2845 46.1624C50.9978 46.6891 50.6811 47.1757 50.3345 47.6224C49.9878 48.0691 49.6411 48.4724 49.2945 48.8324C48.7611 49.3791 48.2045 49.8891 47.6245 50.3624C47.0445 50.8357 46.4911 51.2424 45.9645 51.5824C45.4378 51.9224 44.9578 52.1924 44.5245 52.3924C44.0911 52.5924 43.7545 52.6924 43.5145 52.6924C43.2478 52.7057 42.9078 52.6124 42.4945 52.4124C42.0811 52.2124 41.6278 51.9424 41.1345 51.6024C40.6411 51.2624 40.1211 50.8591 39.5745 50.3924C39.0278 49.9257 38.4878 49.4324 37.9545 48.9124C37.6078 48.5791 37.2345 48.1924 36.8345 47.7524C36.4345 47.3124 36.0578 46.8291 35.7045 46.3024C35.3511 45.7757 35.0478 45.2057 34.7945 44.5924C34.5411 43.9791 34.4011 43.3257 34.3745 42.6324C34.3478 41.9391 34.4211 41.2891 34.5945 40.6824C34.7678 40.0757 35.0278 39.5324 35.3745 39.0524C35.7211 38.5724 36.1478 38.1691 36.6545 37.8424C37.1611 37.5157 37.7345 37.2857 38.3745 37.1524C38.6945 37.0857 39.0145 37.0757 39.3345 37.1224C39.6545 37.1691 39.9678 37.2491 40.2745 37.3624C40.5811 37.4757 40.8745 37.6191 41.1545 37.7924C41.4345 37.9657 41.7011 38.1457 41.9545 38.3324C42.5411 38.7724 43.1011 39.2991 43.6345 39.9124Z" fill="#73ACEC"/>
<path d="M30.0629 48.8125C29.2566 48.8125 28.7191 48.5437 28.1816 48.0062L10.1754 29.7313C9.63789 29.1938 9.36914 28.3875 9.36914 27.5812C9.36914 26.775 9.63789 26.2375 10.1754 25.7L23.6129 11.9937C24.1504 11.4562 24.9566 11.1875 25.4941 11.1875C26.0316 11.1875 26.8379 11.4562 27.3754 11.9937L31.9441 16.5625L36.2441 11.9937C36.7816 11.4562 37.3191 11.1875 38.1254 11.1875C38.9316 11.1875 39.4691 11.4562 40.0066 11.9937L51.2941 23.55C52.1004 24.0875 52.3691 24.8938 52.3691 25.7C52.3691 26.5063 52.1004 27.0437 51.5629 27.5812L46.4566 32.6875L46.1879 32.4187L45.9191 33.225C45.6504 33.7625 45.6504 34.0313 45.3816 34.3L31.9441 48.0062C31.4066 48.5437 30.8691 48.8125 30.0629 48.8125ZM25.4941 14.1437C24.9566 14.1437 24.4191 14.4125 24.1504 14.6812L12.8629 26.2375C12.5941 26.5062 12.3254 27.0437 12.3254 27.5812C12.3254 28.1187 12.5941 28.6562 12.8629 28.925L28.4504 45.05C28.7191 45.3188 29.2566 45.5875 29.7941 45.5875C30.3316 45.5875 30.8691 45.3188 31.1379 45.05L31.9441 44.2438L23.6129 35.375V34.8375L24.6879 33.7625H25.2254L34.0941 42.6312L36.5129 40.2125L28.4504 32.15V31.6125L29.5254 30.5375H30.0629L38.1254 38.6L40.5441 36.1813L33.0191 28.925V28.3875L34.3629 27.3125H34.9004L42.1566 34.5687L42.9629 33.7625C43.2316 33.4937 43.5004 32.9562 43.5004 32.4187C43.5004 31.8812 43.2316 31.3437 42.9629 31.075L27.3754 14.95C26.5691 14.4125 26.0316 14.1437 25.4941 14.1437ZM38.3941 14.4125C37.8566 14.4125 37.3191 14.6813 37.0504 14.95L33.8254 18.4438L45.6504 30.5375L48.8754 27.3125C49.1441 27.0437 49.4129 26.5063 49.4129 25.9688C49.4129 25.4312 49.1441 24.8938 48.8754 24.625L40.0066 15.4875C39.4691 14.6812 38.9316 14.4125 38.3941 14.4125Z" fill="black"/>
</svg>
