<svg width="60" height="60" viewBox="0 0 60 60" fill="none" xmlns="http://www.w3.org/2000/svg">
<g clip-path="url(#clip0_325_536)">
<path d="M21.5645 52.7672L7.97111 52.7479C7.14352 52.7467 6.47325 52.0755 6.47325 51.2479V36.1324C6.47325 35.5801 6.02553 35.1324 5.47325 35.1324H1.36118C0.348511 35.1324 -0.208843 33.9554 0.432852 33.172L13.9293 16.6951C14.5313 15.9601 15.6564 15.9629 16.2548 16.7008L29.6152 33.1765C30.2513 33.9609 29.693 35.1323 28.6831 35.1323H24.0667C23.5144 35.1323 23.0667 35.5801 23.0667 36.1323V51.2672C23.0667 52.0965 22.3938 52.7684 21.5645 52.7672Z" fill="#F7C869"/>
<path d="M13.5801 48.3828H10.6145C10.0622 48.3828 9.61445 47.9351 9.61445 47.3828V44.0897" stroke="white" stroke-width="2" stroke-linecap="round"/>
<path d="M52.1773 18.7651H41.6893C38.1934 18.7651 35.333 21.6255 35.333 25.1215V42.9192C35.333 46.4151 38.1934 49.2755 41.6893 49.2755H52.1773C55.6732 49.2755 58.5336 46.4151 58.5336 42.9192V25.1215C58.5336 21.6255 55.6732 18.7651 52.1773 18.7651ZM41.6893 21.9433H52.1773C53.7663 21.9433 55.3554 23.2146 55.3554 25.1215V41.0123H38.829V25.1215C38.829 23.2146 40.1002 21.9433 41.6893 21.9433ZM52.1773 45.7795H41.6893C40.4181 45.7795 39.4646 45.1439 38.829 43.8726H54.7198C54.402 45.1439 53.4485 45.7795 52.1773 45.7795Z" fill="#1E1F24"/>
<path d="M33.4257 37.8341C33.4257 36.8807 32.7901 36.245 31.8367 36.245H15.628C14.6746 36.245 13.7211 35.2916 13.7211 34.3381V13.9979C13.7211 13.0444 14.6746 12.4088 15.628 12.4088H46.774C47.7275 12.4088 48.6809 13.3623 48.6809 14.3157V16.2226C48.6809 17.1761 49.3165 17.8117 50.27 17.8117C51.2234 17.8117 51.8591 17.1761 51.8591 16.2226V13.9979C51.8591 11.4554 49.6344 9.23065 46.774 9.23065H15.628C12.7677 9.23065 10.543 11.4554 10.543 13.9979V34.3381C10.543 37.1985 12.7677 39.4232 15.628 39.4232H31.8367C33.1079 39.4232 33.4257 38.4697 33.4257 37.8341ZM33.4257 41.0123H24.8447C23.8912 41.0123 23.2556 41.6479 23.2556 42.6013C23.2556 43.5548 23.8912 44.1904 24.8447 44.1904H33.1079C34.0614 44.1904 34.697 43.5548 34.697 42.6013C34.697 41.6479 34.0614 41.0123 33.4257 41.0123Z" fill="#1E1F24"/>
</g>
<defs>
<clipPath id="clip0_325_536">
<rect width="60" height="60" fill="white"/>
</clipPath>
</defs>
</svg>
