<svg width="60" height="60" viewBox="0 0 60 60" fill="none" xmlns="http://www.w3.org/2000/svg">
<path d="M33.7807 35.2995H50.068C50.5664 35.2995 51.0444 35.4975 51.3968 35.8499C51.7493 36.2023 51.9473 36.6803 51.9473 37.1788V40.9374C51.9473 41.4358 51.7493 41.9138 51.3968 42.2662C51.0444 42.6187 50.5664 42.8167 50.068 42.8167H33.7807C33.2822 42.8167 32.8042 42.6187 32.4518 42.2662C32.0994 41.9138 31.9014 41.4358 31.9014 40.9374V37.1788C31.9014 36.6803 32.0994 36.2023 32.4518 35.8499C32.8042 35.4975 33.2822 35.2995 33.7807 35.2995ZM40.6714 37.8052C40.3392 37.8052 40.0205 37.9372 39.7855 38.1722C39.5506 38.4071 39.4186 38.7258 39.4186 39.0581C39.4186 39.3904 39.5506 39.709 39.7855 39.944C40.0205 40.1789 40.3392 40.3109 40.6714 40.3109H43.1772C43.5095 40.3109 43.8281 40.1789 44.0631 39.944C44.2981 39.709 44.4301 39.3904 44.4301 39.0581C44.4301 38.7258 44.2981 38.4071 44.0631 38.1722C43.8281 37.9372 43.5095 37.8052 43.1772 37.8052H40.6714ZM33.7807 44.0696H50.068C50.5664 44.0696 51.0444 44.2675 51.3968 44.62C51.7493 44.9724 51.9473 45.4504 51.9473 45.9489V49.7075C51.9473 50.2059 51.7493 50.6839 51.3968 51.0363C51.0444 51.3888 50.5664 51.5868 50.068 51.5868H33.7807C33.2822 51.5868 32.8042 51.3888 32.4518 51.0363C32.0994 50.6839 31.9014 50.2059 31.9014 49.7075V45.9489C31.9014 45.4504 32.0994 44.9724 32.4518 44.62C32.8042 44.2675 33.2822 44.0696 33.7807 44.0696ZM40.6714 46.5753C40.3392 46.5753 40.0206 46.7074 39.7857 46.9423C39.5507 47.1773 39.4188 47.4959 39.4188 47.8282C39.4188 48.1604 39.5507 48.479 39.7857 48.714C40.0206 48.949 40.3392 49.081 40.6714 49.081H43.1772C43.5094 49.081 43.8281 48.949 44.063 48.714C44.2979 48.479 44.4299 48.1604 44.4299 47.8282C44.4299 47.4959 44.2979 47.1773 44.063 46.9423C43.8281 46.7074 43.5094 46.5753 43.1772 46.5753H40.6714Z" fill="#75B68C"/>
<path d="M30.5245 18.708C31.084 18.7445 32.1542 18.7897 33.2192 18.8939C33.9002 18.9634 34.5743 19.1094 35.2484 19.2397C35.7905 19.3439 36.3325 19.4586 36.8642 19.5993C37.4305 19.747 37.9987 19.8981 38.5477 20.0979C39.4407 20.4228 40.3371 20.7407 41.1954 21.1456C42.2795 21.6563 43.3341 22.2349 44.3852 22.8186C44.8126 23.0566 45.1705 23.4475 45.61 23.656C46.2007 23.934 46.7132 24.3284 47.2206 24.728C48.2543 25.5359 49.2741 26.368 50.2679 27.2298C50.9281 27.7996 51.5501 28.4233 52.1616 29.0523C52.3475 29.2451 52.4726 29.5266 52.5716 29.7906C52.6185 29.9123 52.5369 30.0895 52.5073 30.2406C52.4969 30.2945 52.4552 30.3449 52.4552 30.397C52.4378 30.6836 52.2763 30.8661 52.0904 31.052C50.7966 32.3605 49.4226 33.5871 47.9763 34.7247C46.2947 36.0544 44.4894 37.2197 42.5853 38.2047C41.7322 38.639 40.8549 39.0317 39.9688 39.3913C39.26 39.6797 38.5268 39.9125 37.7971 40.1331C37.1091 40.3416 36.4107 40.5049 35.7158 40.6735C33.3703 41.2364 30.9936 41.3736 28.5995 41.2537C27.75 41.2138 26.9039 41.1321 26.0595 41.0244C25.4723 40.9497 24.8938 40.802 24.3117 40.6769C23.7784 40.5623 23.2433 40.458 22.7186 40.3104C22.0445 40.1209 21.3785 39.9035 20.7224 39.6588C19.9458 39.3635 19.1657 39.0525 18.4204 38.679C17.2841 38.1039 16.1444 37.5149 15.0568 36.8426C13.1152 35.6412 11.2987 34.2484 9.63454 32.6851C9.01281 32.102 8.39774 31.5118 7.78947 30.9147C7.27521 30.4144 7.29779 29.603 7.8051 29.0818C9.25423 27.5926 10.8117 26.2129 12.4647 24.9538C14.0162 23.7555 15.6742 22.7018 17.4179 21.8057C18.2935 21.3627 19.197 20.9736 20.1004 20.607C20.7919 20.3238 21.4972 20.0892 22.2095 19.8755C22.8941 19.6688 23.5942 19.5072 24.2892 19.3335C26.1707 18.8696 28.0853 18.7254 30.5263 18.7063M30.0103 21.5573C29.5933 21.5955 29.1763 21.6216 28.7629 21.6754C27.7031 21.8144 26.7284 22.2192 25.8267 22.8065C24.6777 23.5531 23.7354 24.5772 23.0869 25.7843C22.4641 26.909 22.1058 28.1609 22.0393 29.4449C22.0236 29.7854 22.1609 30.1485 21.9316 30.4647C21.9229 30.4769 21.9402 30.5099 21.9455 30.5325C22.0323 30.9495 22.1244 31.3699 22.2009 31.7886C22.3173 32.4314 22.531 33.036 22.7916 33.625C23.2923 34.7389 24.0291 35.7307 24.9511 36.5316C25.8024 37.2821 26.7684 37.8103 27.8264 38.13C28.5627 38.3437 29.3272 38.4439 30.0937 38.4271C31.0793 38.4235 32.0546 38.2258 32.9638 37.845C34.1338 37.3449 35.1668 36.5716 35.9764 35.5899C37.0852 34.2911 37.7676 32.6825 37.9309 30.9825C38.0907 29.3876 37.8909 27.8344 37.2099 26.3698C36.722 25.3106 36.0267 24.3601 35.165 23.5744C34.3 22.7862 33.2686 22.2031 32.1472 21.8683C31.4523 21.6546 30.74 21.5486 30.0103 21.5573ZM37.5296 37.5445C37.5409 37.5643 37.5513 37.5846 37.5608 37.6053C37.8979 37.4837 38.2384 37.3707 38.5702 37.237C39.2617 36.959 39.9584 36.6966 40.6325 36.3804C42.2792 35.6025 43.8517 34.6761 45.3303 33.6128C46.788 32.5704 48.1622 31.4168 49.4774 30.1781C49.6216 30.0426 49.6198 29.9487 49.4722 29.8219C48.6678 29.1252 47.8755 28.4129 47.0642 27.7267C45.9461 26.7931 44.7622 25.9414 43.5217 25.178C43.1048 24.9174 42.6756 24.6741 42.2413 24.45C41.5259 24.0815 40.8036 23.7264 40.0748 23.385C39.5334 23.1376 38.9847 22.9065 38.4295 22.6918C38.1446 22.5771 37.8475 22.5024 37.5556 22.4086C39.3607 24.5873 40.3563 27.0752 40.3597 29.9783C40.3632 32.897 39.3746 35.3971 37.5296 37.5445ZM22.4528 37.5949C20.6112 35.4318 19.6904 32.904 19.6539 30.0252C19.6174 27.1064 20.6355 24.5994 22.5101 22.4173C22.418 22.4277 22.3729 22.426 22.3364 22.4399C21.9594 22.5754 21.5806 22.7005 21.2158 22.8568C20.2394 23.2756 19.2491 23.6717 18.304 24.1564C16.6789 24.983 15.1432 25.9745 13.7208 27.1151C12.6332 27.9925 11.5891 28.9272 10.5241 29.8341C10.3816 29.9557 10.3833 30.053 10.5241 30.1746C11.4136 30.9477 12.2788 31.7556 13.1927 32.4922C14.664 33.6956 16.251 34.7501 17.9304 35.6403C18.5854 35.9809 19.2456 36.304 19.911 36.615C20.4531 36.8652 21.0056 37.0875 21.558 37.3082C21.8516 37.4211 22.1557 37.4993 22.4528 37.5966" fill="black"/>
<path d="M31.8242 24.4309C30.0921 24.6533 29.5726 26.137 29.7377 27.1256C29.9201 28.2288 30.7367 28.9151 31.6661 29.0193C32.9448 29.1618 34.0463 28.2079 34.1349 26.8615L34.1975 26.8354C34.2965 27.1169 34.4199 27.3931 34.4928 27.6833C34.8455 29.0923 34.6735 30.4352 33.9369 31.6792C32.4184 34.2418 29.2113 34.8186 26.9874 33.2602C24.6316 31.6097 24.4509 28.7986 25.1389 27.1621C25.7921 25.6106 26.8693 24.5369 28.4816 24.0904C29.6352 23.7707 30.7471 23.9097 31.8225 24.4309" fill="black"/>
</svg>
