<svg width="61" height="60" viewBox="0 0 61 60" fill="none" xmlns="http://www.w3.org/2000/svg">
<path d="M44.9674 39.6156C41.1143 39.6156 37.9893 42.7406 37.9893 46.5938C37.9893 50.4469 41.1127 53.5719 44.9674 53.5719C48.8221 53.5719 51.9455 50.4484 51.9455 46.5938C51.9455 42.7406 48.8221 39.6156 44.9674 39.6156ZM46.7971 47.3016H44.8502C44.4596 47.3016 44.1424 46.9844 44.1424 46.5938V42.8953C44.1424 42.5047 44.4596 42.1875 44.8502 42.1875C45.2408 42.1875 45.558 42.5047 45.558 42.8953V45.8875H46.7971C47.1877 45.8875 47.5049 46.2047 47.5049 46.5953C47.5049 46.9859 47.1877 47.3016 46.7971 47.3016Z" fill="#F7C869"/>
<path d="M48.1875 15.3906H13.8125C12.8629 15.3906 12.0938 16.1598 12.0938 17.1094V42.8906C12.0938 43.8402 12.8629 44.6094 13.8125 44.6094H48.1875C49.1371 44.6094 49.9062 43.8402 49.9062 42.8906V17.1094C49.9062 16.1598 49.1371 15.3906 48.1875 15.3906ZM26.2734 17.1094H35.7266V26.1285L35.2969 25.6988L33.1484 27.8473L31 25.6988L28.8516 27.8473L26.7031 25.6988L26.2734 26.1328V17.1094ZM13.8125 17.1094H24.5547V23.5547H13.8125V17.1094ZM48.1875 42.8906H13.8125V25.2734H24.5547V30.4297L26.7031 28.2812L28.8516 30.4297L31 28.2812L33.1484 30.4297L35.2969 28.2812L37.4453 30.4297V25.2734H48.1875V42.8906ZM48.1875 23.5547H37.4453V17.1094H48.1875V23.5547Z" fill="#1F1402"/>
</svg>
