<svg width="61" height="60" viewBox="0 0 61 60" fill="none" xmlns="http://www.w3.org/2000/svg">
<path d="M48.0029 17.3391H13.6279C12.6783 17.3391 11.9092 18.1083 11.9092 19.0579V44.8391C11.9092 45.7887 12.6783 46.5579 13.6279 46.5579H48.0029C48.9525 46.5579 49.7217 45.7887 49.7217 44.8391V19.0579C49.7217 18.1083 48.9525 17.3391 48.0029 17.3391ZM26.0889 19.0579H35.542V28.077L35.1123 27.6473L32.9639 29.7958L30.8154 27.6473L28.667 29.7958L26.5186 27.6473L26.0889 28.0813V19.0579ZM13.6279 19.0579H24.3701V25.5032H13.6279V19.0579ZM48.0029 44.8391H13.6279V27.2219H24.3701V32.3782L26.5186 30.2297L28.667 32.3782L30.8154 30.2297L32.9639 32.3782L35.1123 30.2297L37.2607 32.3782V27.2219H48.0029V44.8391ZM48.0029 25.5032H37.2607V19.0579H48.0029V25.5032Z" fill="#1F1402"/>
<ellipse cx="15.7365" cy="18.1727" rx="8.23551" ry="8.07778" fill="white"/>
<path d="M20.0909 13.9779C19.8424 13.8572 19.5689 13.7947 19.2918 13.7953C18.9359 13.7974 18.589 13.9051 18.2962 14.1043C18.0035 14.3035 17.7786 14.585 17.6509 14.912C17.5546 15.24 17.587 15.5916 17.7416 15.8973C17.8962 16.2029 18.1617 16.4403 18.4856 16.5624C18.6001 16.602 18.721 16.621 18.8423 16.6186C19.0232 16.6192 19.2016 16.5774 19.3628 16.4968C19.5241 16.4163 19.6636 16.2991 19.7698 16.1551C19.8645 15.9966 19.8992 15.8103 19.8679 15.6292C19.8365 15.448 19.7412 15.2835 19.5986 15.1648C19.5174 15.0927 19.4119 15.0529 19.3025 15.0529C19.1932 15.0529 19.0877 15.0927 19.0064 15.1648C18.9411 15.2306 18.8995 15.3157 18.8879 15.407C18.8763 15.4983 18.8954 15.5908 18.9422 15.6705L18.9993 15.7688H18.7496C18.639 15.7158 18.5507 15.6264 18.4999 15.5162C18.4491 15.4059 18.439 15.2816 18.4713 15.1648C18.5131 15.0504 18.5813 14.9472 18.6704 14.8631C18.7595 14.779 18.8672 14.7164 18.985 14.6802C19.0795 14.6497 19.1781 14.6331 19.2776 14.631C19.4214 14.6318 19.563 14.6654 19.6914 14.7294C19.8843 14.8305 20.0412 14.9873 20.1408 15.1788C20.2553 15.4025 20.302 15.6538 20.2754 15.9028C20.2488 16.1518 20.1501 16.3881 19.991 16.5835C19.8516 16.7528 19.6754 16.8892 19.4754 16.9828C19.2754 17.0764 19.0566 17.1247 18.8352 17.1242H18.6568C18.329 17.0834 18.02 16.9503 17.7669 16.7411C17.5139 16.5318 17.3274 16.2552 17.2299 15.9444C17.1222 15.674 17.0952 15.379 17.1521 15.0941C17.209 14.8092 17.3474 14.5462 17.551 14.3361C17.6299 14.2561 17.674 14.149 17.674 14.0376C17.674 13.9261 17.6299 13.819 17.551 13.7391C17.4719 13.6597 17.3642 13.6143 17.2513 13.6127C17.1366 13.6154 17.027 13.6605 16.9445 13.7391C16.6259 14.06 16.4075 14.4642 16.3152 14.9036C16.2229 15.343 16.2605 15.7993 16.4237 16.2183C16.5772 16.6765 16.8599 17.0823 17.2389 17.3882C17.6179 17.6941 18.0776 17.8876 18.5641 17.9459H18.8281C19.1811 17.947 19.5298 17.8699 19.8484 17.7204C20.167 17.5708 20.4474 17.3527 20.6688 17.0821C20.914 16.7663 21.0658 16.39 21.1073 15.9946C21.1489 15.5992 21.0786 15.2002 20.9042 14.8417C20.734 14.4755 20.4489 14.1728 20.0909 13.9779ZM12.8778 16.2112C13.0449 15.7905 13.0846 15.3312 12.9922 14.8888C12.8997 14.4463 12.6791 14.0397 12.357 13.718C12.278 13.6386 12.1702 13.5932 12.0573 13.5916C11.9426 13.5943 11.833 13.6394 11.7505 13.718C11.7106 13.7572 11.679 13.8037 11.6574 13.8549C11.6358 13.9061 11.6246 13.961 11.6246 14.0165C11.6246 14.072 11.6358 14.1269 11.6574 14.1781C11.679 14.2293 11.7106 14.2758 11.7505 14.315C11.953 14.5259 12.09 14.7892 12.1456 15.0741C12.2012 15.359 12.1731 15.6536 12.0645 15.9233C11.9624 16.2316 11.7746 16.5055 11.5224 16.7141C11.2702 16.9226 10.9636 17.0574 10.6375 17.1032H10.4592C10.2383 17.1067 10.0195 17.0597 9.82017 16.9659C9.62084 16.8721 9.44637 16.7339 9.31051 16.5624C9.16386 16.3734 9.0724 16.1486 9.046 15.9122C9.0196 15.6758 9.05925 15.4368 9.16068 15.221C9.25532 15.0283 9.41041 14.8707 9.60303 14.7715C9.82482 14.6626 10.0815 14.645 10.3165 14.7223C10.4354 14.7565 10.5441 14.8184 10.6336 14.9028C10.723 14.9871 10.7904 15.0915 10.8302 15.2069C10.8585 15.3208 10.8463 15.4407 10.7957 15.5468C10.745 15.6528 10.659 15.7386 10.5519 15.7898H10.3379L10.4021 15.6985C10.4545 15.6105 10.4731 15.5069 10.4548 15.4065C10.4365 15.3061 10.3824 15.2154 10.3022 15.1507C10.2277 15.0911 10.1343 15.0588 10.0382 15.0594C9.9243 15.0595 9.81465 15.1022 9.73145 15.1788C9.58657 15.2991 9.48982 15.4661 9.45845 15.65C9.42709 15.834 9.46316 16.0229 9.56022 16.1831C9.66673 16.3313 9.80792 16.4521 9.97184 16.5352C10.1358 16.6183 10.3176 16.6614 10.502 16.6607C10.6157 16.6621 10.7289 16.6455 10.8373 16.6116C11.1568 16.4817 11.4175 16.242 11.571 15.9372C11.7246 15.6324 11.7605 15.283 11.6721 14.9541C11.5858 14.7106 11.4428 14.4903 11.2545 14.311C11.0661 14.1318 10.8377 13.9984 10.5876 13.9217C10.4055 13.8635 10.2154 13.8328 10.024 13.8304C9.74656 13.834 9.4735 13.8988 9.2249 14.02C8.88894 14.2092 8.61812 14.4929 8.44722 14.8347C8.26809 15.1924 8.1958 15.5929 8.23874 15.9895C8.28168 16.3861 8.4381 16.7625 8.6898 17.0751C8.91016 17.3469 9.19034 17.5658 9.50921 17.7155C9.82807 17.8651 10.1773 17.9415 10.5305 17.9389H10.7731C11.2521 17.8712 11.7026 17.6738 12.0742 17.3687C12.4459 17.0636 12.7241 16.6629 12.8778 16.2112ZM18.5855 21.5558H18.5498C18.4747 21.4734 18.4078 21.384 18.3501 21.289C18.2641 21.0922 18.1247 20.9226 17.9473 20.7987C17.7698 20.6748 17.5611 20.6015 17.3441 20.5866C17.1275 20.603 16.9195 20.677 16.7423 20.8007C16.5651 20.9244 16.4254 21.0931 16.3381 21.289C16.2883 21.3734 16.231 21.4533 16.1669 21.5277L16.1098 21.598L16.0456 21.5277C15.9868 21.451 15.932 21.3713 15.8815 21.289C15.793 21.0926 15.652 20.9236 15.4736 20.7999C15.2952 20.6762 15.086 20.6025 14.8684 20.5866C14.6435 20.5957 14.4256 20.6663 14.2392 20.7903C14.0527 20.9143 13.9049 21.087 13.8124 21.289V21.3451C13.7724 21.4118 13.7271 21.4752 13.6769 21.5348L13.6127 21.605L13.4414 21.4997C13.3803 21.4229 13.3232 21.3432 13.2702 21.2609C13.1817 21.0645 13.0407 20.8955 12.8623 20.7718C12.6839 20.6481 12.4747 20.5744 12.2571 20.5586C12.0405 20.5749 11.8325 20.6489 11.6553 20.7726C11.4781 20.8963 11.3384 21.0651 11.2511 21.2609L11.0656 21.5488H11.0228C10.9625 21.5411 10.9011 21.5461 10.8429 21.5636C10.7846 21.5811 10.7309 21.6106 10.6851 21.6501C10.6394 21.6897 10.6028 21.7384 10.5777 21.7929C10.5526 21.8475 10.5396 21.9068 10.5396 21.9667C10.5396 22.0266 10.5526 22.0858 10.5777 22.1404C10.6028 22.195 10.6394 22.2437 10.6851 22.2833C10.7309 22.3228 10.7846 22.3523 10.8429 22.3698C10.9011 22.3872 10.9625 22.3923 11.0228 22.3846C11.2479 22.3763 11.4661 22.3061 11.6527 22.1819C11.8394 22.0578 11.9869 21.8847 12.0787 21.6823L12.1144 21.6331C12.1568 21.5641 12.2045 21.4983 12.2571 21.4364L12.3213 21.3732L12.3784 21.4435C12.4372 21.5202 12.492 21.5999 12.5425 21.6823C12.6317 21.8767 12.7719 22.0443 12.9487 22.1678C13.1255 22.2912 13.3325 22.366 13.5485 22.3846C13.7659 22.368 13.9747 22.294 14.153 22.1704C14.3313 22.0468 14.4724 21.8782 14.5616 21.6823C14.5708 21.662 14.5828 21.6431 14.5973 21.6261C14.6373 21.5595 14.6826 21.4961 14.7328 21.4364L14.7899 21.3803L14.847 21.4364C14.9305 21.514 15.0069 21.5986 15.0753 21.6893C15.1645 21.8838 15.3047 22.0513 15.4815 22.1748C15.6583 22.2982 15.8653 22.3731 16.0813 22.3916C16.2985 22.3743 16.507 22.3 16.6851 22.1765C16.8633 22.053 17.0046 21.8847 17.0944 21.6893C17.1466 21.6064 17.2038 21.5267 17.2656 21.4505L17.3298 21.3803L17.3869 21.4505C17.4487 21.5267 17.5059 21.6064 17.5581 21.6893C17.646 21.8846 17.7859 22.053 17.963 22.1766C18.14 22.3002 18.3477 22.3745 18.5641 22.3916C18.6757 22.3916 18.7828 22.3479 18.8617 22.2702C18.9407 22.1925 18.985 22.0871 18.985 21.9772C18.985 21.8673 18.9407 21.7619 18.8617 21.6842C18.7828 21.6065 18.6757 21.5629 18.5641 21.5629L18.5855 21.5558ZM21.5963 24.1123C20.7281 24.9648 19.701 25.6444 18.5712 26.1138C17.3006 26.6164 15.9451 26.8785 14.5759 26.8864C13.3953 26.8778 12.2311 26.614 11.1655 26.1138C8.88315 25.1685 7.06744 23.3812 6.10707 21.1345C5.59655 19.8837 5.33029 18.5494 5.32227 17.2015C5.33102 16.0394 5.59893 14.8934 6.10707 13.8444C7.06744 11.5977 8.88315 9.8104 11.1655 8.86504C12.4361 8.36249 13.7916 8.1004 15.1609 8.0925C16.3414 8.10111 17.5056 8.36484 18.5712 8.86504C20.8536 9.8104 22.6693 11.5977 23.6297 13.8444C24.1241 14.998 24.3789 16.2374 24.3789 17.4894C24.3789 18.7415 24.1241 19.9809 23.6297 21.1345C23.1528 22.2466 22.4624 23.2576 21.5963 24.1123Z" fill="#F7C869"/>
</svg>
