<svg width="61" height="60" viewBox="0 0 61 60" fill="none" xmlns="http://www.w3.org/2000/svg">
<path d="M36.8489 37.9544H49.1933C50.0704 37.9544 50.7832 38.6672 50.7832 39.5443V51.8909C50.7832 52.7679 50.0704 53.4807 49.1933 53.4807H36.8478C35.9708 53.4807 35.258 52.7679 35.258 51.8909V39.5432C35.2591 38.6661 35.9719 37.9544 36.8489 37.9544ZM38.2548 42.3659L38.2877 42.3835L38.2921 42.4207C38.6304 44.7562 40.6637 46.518 43.0211 46.518C45.3785 46.518 47.4119 44.7562 47.7502 42.4207L47.7557 42.3835L47.7885 42.3659C48.0229 42.2269 48.163 41.9915 48.163 41.733C48.163 41.3235 47.8301 40.9907 47.4195 40.9907C47.01 40.9907 46.6772 41.3235 46.6772 41.733C46.6772 41.9488 46.7746 42.1502 46.9531 42.298L46.9881 42.3254L46.9805 42.3692C46.6684 44.3281 45.003 45.7493 43.0211 45.7493C41.0393 45.7493 39.3739 44.327 39.0618 42.3692L39.0541 42.3265L39.0881 42.2991C39.2677 42.1502 39.364 41.9498 39.364 41.7341C39.364 41.3246 39.0311 40.9917 38.6216 40.9917C38.211 40.9917 37.8782 41.3246 37.8782 41.7341C37.8793 41.9915 38.0194 42.2269 38.2548 42.3659Z" fill="#73ACEC"/>
<path d="M22.1033 29.3354L27.1518 35.2253L37.9206 23.5586C38.0056 23.4647 38.1083 23.3886 38.2229 23.3346C38.3374 23.2807 38.4615 23.25 38.588 23.2443C38.7145 23.2386 38.8409 23.258 38.9598 23.3014C39.0788 23.3448 39.1879 23.4114 39.281 23.4972C39.3741 23.5831 39.4492 23.6865 39.502 23.8016C39.5549 23.9166 39.5844 24.041 39.5889 24.1676C39.5934 24.2941 39.5728 24.4203 39.5283 24.5388C39.4837 24.6573 39.4161 24.7658 39.3294 24.8581L27.8294 37.3164C27.7377 37.4158 27.6259 37.4947 27.5016 37.5479C27.3772 37.601 27.2429 37.6272 27.1077 37.6248C26.9725 37.6223 26.8393 37.5913 26.7169 37.5337C26.5945 37.4761 26.4857 37.3932 26.3976 37.2906L20.6476 30.5822C20.5641 30.4869 20.5003 30.376 20.4599 30.2559C20.4195 30.1358 20.4033 30.0088 20.4123 29.8824C20.4213 29.756 20.4553 29.6327 20.5123 29.5195C20.5693 29.4063 20.6481 29.3055 20.7443 29.223C20.8405 29.1405 20.9521 29.0779 21.0727 29.0388C21.1932 28.9997 21.3203 28.985 21.4466 28.9953C21.5729 29.0057 21.6959 29.041 21.8085 29.0992C21.921 29.1574 22.0209 29.2374 22.1024 29.3345L22.1033 29.3354ZM20.4167 11.7471C20.4167 10.6901 21.2773 9.83334 22.3238 9.83334H37.6763C38.7285 9.83334 39.5833 10.6939 39.5833 11.7481V13.6686C39.5831 14.175 39.3823 14.6607 39.025 15.0195C38.6676 15.3784 38.1827 15.5811 37.6763 15.5833H22.3238C21.2715 15.5833 20.4167 14.7228 20.4167 13.6686V11.7481V11.7471ZM22.3333 13.6667H37.6667V11.75H22.3333V13.6667ZM17.6088 11.75V13.6667C17.6088 13.6667 14.6667 13.6676 14.6667 13.6715V46.25C14.6667 46.25 45.3333 46.2519 45.3333 46.2452C45.3333 46.2452 45.3333 13.6667 45.3276 13.6667H42.4842V11.75H45.3276C46.3894 11.75 47.25 12.6068 47.25 13.6715V46.2452C47.25 47.3061 46.3971 48.1667 45.3333 48.1667H14.6667C14.4146 48.1667 14.1649 48.1169 13.9321 48.0203C13.6992 47.9237 13.4877 47.7821 13.3097 47.6036C13.1316 47.4251 12.9906 47.2133 12.8945 46.9802C12.7985 46.7471 12.7494 46.4973 12.75 46.2452V13.6715C12.75 12.6106 13.6087 11.75 14.6705 11.75H17.6088Z" fill="#3D3D3D"/>
</svg>
