<svg width="61" height="60" viewBox="0 0 61 60" fill="none" xmlns="http://www.w3.org/2000/svg">
<path d="M23.1053 31.5323L28.1538 37.4222L38.9226 25.7554C39.0075 25.6615 39.1103 25.5854 39.2248 25.5315C39.3394 25.4775 39.4635 25.4468 39.59 25.4411C39.7165 25.4354 39.8428 25.4548 39.9618 25.4982C40.0807 25.5416 40.1899 25.6082 40.2829 25.6941C40.376 25.7799 40.4511 25.8834 40.504 25.9984C40.5569 26.1135 40.5864 26.2379 40.5909 26.3644C40.5954 26.4909 40.5748 26.6171 40.5302 26.7356C40.4857 26.8542 40.4181 26.9627 40.3313 27.0549L28.8313 39.5133C28.7396 39.6127 28.6279 39.6916 28.5035 39.7447C28.3791 39.7978 28.2449 39.8241 28.1097 39.8216C27.9744 39.8192 27.8412 39.7881 27.7188 39.7305C27.5965 39.6729 27.4877 39.5901 27.3996 39.4874L21.6496 32.7791C21.566 32.6838 21.5022 32.5729 21.4618 32.4527C21.4214 32.3326 21.4053 32.2057 21.4143 32.0793C21.4233 31.9529 21.4572 31.8295 21.5142 31.7163C21.5712 31.6031 21.6501 31.5024 21.7463 31.4199C21.8425 31.3374 21.9541 31.2748 22.0746 31.2357C22.1952 31.1966 22.3223 31.1818 22.4486 31.1922C22.5749 31.2025 22.6979 31.2378 22.8104 31.296C22.923 31.3543 23.0229 31.4342 23.1043 31.5313L23.1053 31.5323ZM21.4186 13.944C21.4186 12.8869 22.2792 12.0302 23.3257 12.0302H38.6782C39.7305 12.0302 40.5853 12.8908 40.5853 13.9449V15.8654C40.585 16.3719 40.3843 16.8576 40.0269 17.2164C39.6695 17.5752 39.1846 17.7779 38.6782 17.7802H23.3257C22.2735 17.7802 21.4186 16.9196 21.4186 15.8654V13.9449V13.944ZM23.3353 15.8635H38.6686V13.9468H23.3353V15.8635ZM18.6107 13.9468V15.8635C18.6107 15.8635 15.6686 15.8645 15.6686 15.8683V48.4468C15.6686 48.4468 46.3353 48.4488 46.3353 48.4421C46.3353 48.4421 46.3353 15.8635 46.3295 15.8635H43.4862V13.9468H46.3295C47.3914 13.9468 48.252 14.8036 48.252 15.8683V48.4421C48.252 49.5029 47.399 50.3635 46.3353 50.3635H15.6686C15.4165 50.3635 15.1669 50.3138 14.934 50.2172C14.7012 50.1205 14.4897 49.9789 14.3116 49.8004C14.1336 49.622 13.9925 49.4101 13.8965 49.177C13.8004 48.9439 13.7513 48.6942 13.752 48.4421V15.8683C13.752 14.8074 14.6106 13.9468 15.6725 13.9468H18.6107Z" fill="#3D3D3D"/>
<ellipse cx="18.6057" cy="15.614" rx="9.52363" ry="9.34123" fill="white"/>
<path d="M18.3704 5.61395C12.908 5.61395 8.47949 10.0422 8.47949 15.5049C8.47949 20.9676 12.908 25.3958 18.3704 25.3958C23.8329 25.3958 28.2614 20.9673 28.2614 15.5049C28.2614 10.0425 23.8329 5.61395 18.3704 5.61395ZM12.8689 13.8674C12.8689 13.3741 13.0873 12.9323 13.4323 12.632L11.737 12.0256C11.4532 11.9242 11.3052 11.6116 11.4069 11.3278C11.5086 11.0439 11.8209 10.896 12.1047 10.9977L16.0406 12.4054C16.3244 12.5068 16.4723 12.8194 16.3706 13.1032C16.346 13.1723 16.3076 13.2357 16.2578 13.2896C16.208 13.3434 16.1478 13.3867 16.0808 13.4166C16.1216 13.56 16.144 13.7108 16.144 13.8674C16.144 14.7717 15.4108 15.5049 14.5065 15.5049C13.6021 15.5049 12.8689 14.7717 12.8689 13.8674ZM22.8567 20.3948C22.8208 20.4156 22.7811 20.4291 22.74 20.4346C22.6988 20.44 22.657 20.4373 22.6169 20.4266C22.5768 20.4159 22.5392 20.3974 22.5063 20.3722C22.4733 20.347 22.4457 20.3155 22.4249 20.2796C22.0192 19.5794 21.44 18.9954 20.7431 18.584C20.0269 18.1617 19.2062 17.9385 18.3696 17.9385C17.5336 17.9385 16.7131 18.1614 15.9972 18.5832C15.3005 18.994 14.7214 19.5773 14.3157 20.277C14.2284 20.4281 14.035 20.4795 13.8839 20.3919C13.7328 20.3046 13.6814 20.1109 13.769 19.9601C14.2281 19.1678 14.8877 18.5033 15.6766 18.0385C16.4899 17.5596 17.421 17.3062 18.3699 17.3062C19.3191 17.3062 20.2507 17.5596 21.0643 18.039C21.8549 18.5056 22.512 19.1681 22.9722 19.9624C23.0595 20.1141 23.0078 20.3074 22.8567 20.3948ZM25.0039 12.0256L23.3086 12.632C23.6536 12.9323 23.872 13.3741 23.872 13.8674C23.872 14.7717 23.1388 15.5049 22.2344 15.5049C21.3301 15.5049 20.5969 14.7717 20.5969 13.8674C20.5969 13.7111 20.6193 13.56 20.6601 13.4166C20.5297 13.3577 20.4222 13.2486 20.3702 13.1032C20.2688 12.8194 20.4165 12.5071 20.7003 12.4054L24.6361 10.9977C24.92 10.896 25.2322 11.0439 25.3339 11.3278C25.4354 11.6116 25.2877 11.9242 25.0039 12.0256Z" fill="#73ACEC"/>
</svg>
