<svg width="649" height="521" viewBox="0 0 649 521" fill="none" xmlns="http://www.w3.org/2000/svg">
<g clip-path="url(#clip0_1502_485)">
<path d="M235.352 435.935L133.486 334.068V190.008L235.352 88.1408H379.415L481.28 190.008V334.068L379.415 435.935H235.352Z" stroke="#E4E4E4" stroke-miterlimit="10" stroke-linecap="round" stroke-linejoin="round"/>
<path d="M249.981 400.618L168.804 319.439V204.636L249.981 123.458H364.786L445.964 204.636V319.439L364.786 400.618H249.981Z" stroke="#E4E4E4" stroke-miterlimit="10" stroke-linecap="round" stroke-linejoin="round"/>
<path d="M264.611 365.301L204.121 304.81V219.265L264.611 158.775H350.157L410.646 219.265V304.81L350.157 365.301H264.611Z" stroke="#E4E4E4" stroke-miterlimit="10" stroke-linecap="round" stroke-linejoin="round"/>
<path d="M279.239 329.984L239.438 290.182V233.894L279.239 194.092H335.528L375.329 233.894V290.182L335.528 329.984H279.239Z" stroke="#E4E4E4" stroke-miterlimit="10" stroke-linecap="round" stroke-linejoin="round"/>
<path d="M320.898 229.409H293.867L274.754 248.522V275.553L293.867 294.667H320.898L340.012 275.553V248.522L320.898 229.409Z" stroke="#E4E4E4" stroke-miterlimit="10" stroke-linecap="round" stroke-linejoin="round"/>
<path d="M235.353 88.1408L379.415 435.935" stroke="#E4E4E4" stroke-miterlimit="10" stroke-linecap="round" stroke-linejoin="round"/>
<path d="M379.415 88.1408L235.353 435.935" stroke="#E4E4E4" stroke-miterlimit="10" stroke-linecap="round" stroke-linejoin="round"/>
<path d="M481.28 190.008L133.486 334.068" stroke="#E4E4E4" stroke-miterlimit="10" stroke-linecap="round" stroke-linejoin="round"/>
<path d="M133.486 190.008L481.28 334.068" stroke="#E4E4E4" stroke-miterlimit="10" stroke-linecap="round" stroke-linejoin="round"/>
<path d="M495.634 179.284C494.77 179.284 494.002 179.103 493.33 178.74C492.669 178.377 492.152 177.881 491.778 177.252C491.416 176.612 491.234 175.887 491.234 175.076V167.172H492.818V175.044C492.818 175.588 492.936 176.073 493.17 176.5C493.416 176.916 493.746 177.241 494.162 177.476C494.589 177.711 495.08 177.828 495.634 177.828C496.189 177.828 496.674 177.711 497.09 177.476C497.517 177.241 497.848 176.916 498.082 176.5C498.328 176.073 498.45 175.588 498.45 175.044V167.172H500.034V175.076C500.034 175.887 499.848 176.612 499.474 177.252C499.112 177.881 498.6 178.377 497.938 178.74C497.277 179.103 496.509 179.284 495.634 179.284ZM505.523 179.284C504.659 179.284 503.907 179.071 503.267 178.644C502.627 178.217 502.174 177.641 501.907 176.916L503.091 176.34C503.337 176.852 503.673 177.257 504.099 177.556C504.526 177.855 505.001 178.004 505.523 178.004C505.993 178.004 506.382 177.892 506.691 177.668C507.001 177.444 507.155 177.151 507.155 176.788C507.155 176.532 507.081 176.329 506.931 176.18C506.793 176.02 506.622 175.897 506.419 175.812C506.217 175.716 506.03 175.647 505.859 175.604L504.563 175.236C503.785 175.012 503.214 174.692 502.851 174.276C502.499 173.86 502.323 173.375 502.323 172.82C502.323 172.308 502.451 171.865 502.707 171.492C502.974 171.108 503.331 170.809 503.779 170.596C504.238 170.383 504.75 170.276 505.315 170.276C506.073 170.276 506.75 170.468 507.347 170.852C507.955 171.236 508.387 171.775 508.643 172.468L507.427 173.028C507.235 172.58 506.947 172.228 506.563 171.972C506.179 171.705 505.747 171.572 505.267 171.572C504.83 171.572 504.483 171.684 504.227 171.908C503.971 172.121 503.843 172.393 503.843 172.724C503.843 172.969 503.907 173.172 504.035 173.332C504.163 173.481 504.318 173.599 504.499 173.684C504.681 173.759 504.857 173.823 505.027 173.876L506.435 174.292C507.139 174.495 507.683 174.809 508.067 175.236C508.462 175.663 508.659 176.175 508.659 176.772C508.659 177.252 508.526 177.684 508.259 178.068C507.993 178.452 507.625 178.751 507.155 178.964C506.686 179.177 506.142 179.284 505.523 179.284ZM513.135 179.284C512.57 179.284 512.068 179.183 511.631 178.98C511.204 178.767 510.868 178.479 510.623 178.116C510.378 177.743 510.255 177.316 510.255 176.836C510.255 176.377 510.351 175.967 510.543 175.604C510.746 175.231 511.055 174.916 511.471 174.66C511.898 174.404 512.431 174.223 513.071 174.116L516.271 173.588V174.836L513.407 175.316C512.852 175.412 512.447 175.588 512.191 175.844C511.946 176.1 511.823 176.415 511.823 176.788C511.823 177.14 511.962 177.433 512.239 177.668C512.527 177.903 512.884 178.02 513.311 178.02C513.855 178.02 514.324 177.908 514.719 177.684C515.124 177.449 515.439 177.135 515.663 176.74C515.898 176.345 516.015 175.908 516.015 175.428V173.236C516.015 172.767 515.839 172.388 515.487 172.1C515.146 171.801 514.692 171.652 514.127 171.652C513.636 171.652 513.199 171.78 512.815 172.036C512.442 172.281 512.164 172.612 511.983 173.028L510.687 172.356C510.847 171.961 511.103 171.609 511.455 171.3C511.807 170.98 512.218 170.729 512.687 170.548C513.156 170.367 513.647 170.276 514.159 170.276C514.82 170.276 515.402 170.404 515.903 170.66C516.404 170.905 516.794 171.252 517.071 171.7C517.359 172.137 517.503 172.649 517.503 173.236V179.092H516.047V177.46L516.319 177.556C516.138 177.897 515.892 178.196 515.583 178.452C515.274 178.708 514.911 178.911 514.495 179.06C514.079 179.209 513.626 179.284 513.135 179.284ZM524.274 179.284C523.581 179.284 522.946 179.129 522.37 178.82C521.805 178.511 521.368 178.073 521.058 177.508L521.266 177.252V179.092H519.81V166.98H521.298V172.324L521.074 171.956C521.394 171.444 521.832 171.039 522.386 170.74C522.941 170.431 523.576 170.276 524.29 170.276C525.101 170.276 525.826 170.473 526.466 170.868C527.117 171.263 527.629 171.801 528.002 172.484C528.376 173.156 528.562 173.924 528.562 174.788C528.562 175.631 528.376 176.393 528.002 177.076C527.629 177.759 527.117 178.297 526.466 178.692C525.826 179.087 525.096 179.284 524.274 179.284ZM524.162 177.844C524.706 177.844 525.192 177.711 525.618 177.444C526.045 177.177 526.376 176.815 526.61 176.356C526.856 175.887 526.978 175.364 526.978 174.788C526.978 174.191 526.856 173.668 526.61 173.22C526.376 172.761 526.045 172.399 525.618 172.132C525.192 171.855 524.706 171.716 524.162 171.716C523.618 171.716 523.128 171.849 522.69 172.116C522.264 172.383 521.922 172.751 521.666 173.22C521.421 173.679 521.298 174.201 521.298 174.788C521.298 175.364 521.421 175.887 521.666 176.356C521.922 176.815 522.264 177.177 522.69 177.444C523.128 177.711 523.618 177.844 524.162 177.844ZM530.513 179.092V170.468H532.001V179.092H530.513ZM530.513 169.092V167.172H532.001V169.092H530.513ZM534.31 179.092V166.98H535.798V179.092H534.31ZM538.107 179.092V170.468H539.595V179.092H538.107ZM538.107 169.092V167.172H539.595V169.092H538.107ZM545.408 179.188C544.565 179.188 543.915 178.948 543.456 178.468C543.008 177.988 542.784 177.311 542.784 176.436V171.892H541.216V170.468H541.536C541.92 170.468 542.224 170.351 542.448 170.116C542.672 169.881 542.784 169.572 542.784 169.188V168.484H544.272V170.468H546.208V171.892H544.272V176.388C544.272 176.676 544.315 176.927 544.4 177.14C544.496 177.353 544.651 177.524 544.864 177.652C545.077 177.769 545.36 177.828 545.712 177.828C545.787 177.828 545.877 177.823 545.984 177.812C546.101 177.801 546.208 177.791 546.304 177.78V179.092C546.165 179.124 546.011 179.145 545.84 179.156C545.669 179.177 545.525 179.188 545.408 179.188ZM548.712 182.612C548.52 182.612 548.328 182.596 548.136 182.564C547.944 182.532 547.762 182.479 547.592 182.404V181.076C547.709 181.097 547.853 181.119 548.024 181.14C548.205 181.172 548.381 181.188 548.552 181.188C549.053 181.188 549.432 181.076 549.688 180.852C549.954 180.639 550.205 180.265 550.44 179.732L550.984 178.436L550.952 179.732L547.272 170.468H548.888L551.752 177.828H551.272L554.12 170.468H555.768L551.88 180.116C551.698 180.575 551.464 180.991 551.176 181.364C550.898 181.748 550.557 182.052 550.152 182.276C549.746 182.5 549.266 182.612 548.712 182.612ZM493.394 199.092V188.612H490.162V187.172H498.162V188.612H494.978V199.092H493.394ZM502.341 199.284C501.509 199.284 500.767 199.087 500.117 198.692C499.466 198.297 498.954 197.759 498.581 197.076C498.207 196.383 498.021 195.609 498.021 194.756C498.021 193.892 498.202 193.124 498.565 192.452C498.938 191.78 499.439 191.252 500.069 190.868C500.709 190.473 501.423 190.276 502.213 190.276C502.853 190.276 503.418 190.393 503.909 190.628C504.41 190.852 504.831 191.161 505.173 191.556C505.525 191.94 505.791 192.383 505.973 192.884C506.165 193.375 506.261 193.887 506.261 194.42C506.261 194.537 506.25 194.671 506.229 194.82C506.218 194.959 506.202 195.092 506.181 195.22H499.109V193.94H505.317L504.613 194.516C504.709 193.961 504.655 193.465 504.453 193.028C504.25 192.591 503.951 192.244 503.557 191.988C503.162 191.732 502.714 191.604 502.213 191.604C501.711 191.604 501.253 191.732 500.837 191.988C500.421 192.244 500.095 192.612 499.861 193.092C499.637 193.561 499.546 194.121 499.589 194.772C499.546 195.401 499.642 195.956 499.877 196.436C500.122 196.905 500.463 197.273 500.901 197.54C501.349 197.796 501.834 197.924 502.357 197.924C502.933 197.924 503.418 197.791 503.813 197.524C504.207 197.257 504.527 196.916 504.773 196.5L506.021 197.14C505.85 197.535 505.583 197.897 505.221 198.228C504.869 198.548 504.447 198.804 503.957 198.996C503.477 199.188 502.938 199.284 502.341 199.284ZM511.289 199.284C510.425 199.284 509.673 199.071 509.033 198.644C508.393 198.217 507.939 197.641 507.673 196.916L508.857 196.34C509.102 196.852 509.438 197.257 509.865 197.556C510.291 197.855 510.766 198.004 511.289 198.004C511.758 198.004 512.147 197.892 512.457 197.668C512.766 197.444 512.921 197.151 512.921 196.788C512.921 196.532 512.846 196.329 512.697 196.18C512.558 196.02 512.387 195.897 512.185 195.812C511.982 195.716 511.795 195.647 511.625 195.604L510.329 195.236C509.55 195.012 508.979 194.692 508.617 194.276C508.265 193.86 508.089 193.375 508.089 192.82C508.089 192.308 508.217 191.865 508.473 191.492C508.739 191.108 509.097 190.809 509.545 190.596C510.003 190.383 510.515 190.276 511.081 190.276C511.838 190.276 512.515 190.468 513.113 190.852C513.721 191.236 514.153 191.775 514.409 192.468L513.193 193.028C513.001 192.58 512.713 192.228 512.329 191.972C511.945 191.705 511.513 191.572 511.033 191.572C510.595 191.572 510.249 191.684 509.993 191.908C509.737 192.121 509.609 192.393 509.609 192.724C509.609 192.969 509.673 193.172 509.801 193.332C509.929 193.481 510.083 193.599 510.265 193.684C510.446 193.759 510.622 193.823 510.793 193.876L512.201 194.292C512.905 194.495 513.449 194.809 513.833 195.236C514.227 195.663 514.425 196.175 514.425 196.772C514.425 197.252 514.291 197.684 514.025 198.068C513.758 198.452 513.39 198.751 512.921 198.964C512.451 199.177 511.907 199.284 511.289 199.284ZM519.877 199.188C519.034 199.188 518.383 198.948 517.925 198.468C517.477 197.988 517.253 197.311 517.253 196.436V191.892H515.685V190.468H516.005C516.389 190.468 516.693 190.351 516.917 190.116C517.141 189.881 517.253 189.572 517.253 189.188V188.484H518.741V190.468H520.677V191.892H518.741V196.388C518.741 196.676 518.783 196.927 518.869 197.14C518.965 197.353 519.119 197.524 519.333 197.652C519.546 197.769 519.829 197.828 520.181 197.828C520.255 197.828 520.346 197.823 520.453 197.812C520.57 197.801 520.677 197.791 520.773 197.78V199.092C520.634 199.124 520.479 199.145 520.309 199.156C520.138 199.177 519.994 199.188 519.877 199.188ZM522.716 199.092V190.468H524.204V199.092H522.716ZM522.716 189.092V187.172H524.204V189.092H522.716ZM526.513 199.092V190.468H527.969V192.148L527.729 192.004C527.943 191.46 528.284 191.039 528.753 190.74C529.233 190.431 529.793 190.276 530.433 190.276C531.052 190.276 531.601 190.415 532.081 190.692C532.572 190.969 532.956 191.353 533.233 191.844C533.521 192.335 533.665 192.889 533.665 193.508V199.092H532.161V193.988C532.161 193.508 532.076 193.103 531.905 192.772C531.735 192.441 531.489 192.185 531.169 192.004C530.86 191.812 530.503 191.716 530.097 191.716C529.692 191.716 529.329 191.812 529.009 192.004C528.7 192.185 528.455 192.447 528.273 192.788C528.092 193.119 528.001 193.519 528.001 193.988V199.092H526.513ZM539.907 202.612C539.299 202.612 538.733 202.516 538.211 202.324C537.699 202.132 537.256 201.865 536.883 201.524C536.52 201.193 536.243 200.804 536.051 200.356L537.443 199.716C537.592 200.121 537.875 200.463 538.291 200.74C538.717 201.028 539.251 201.172 539.891 201.172C540.381 201.172 540.824 201.076 541.219 200.884C541.624 200.703 541.944 200.425 542.179 200.052C542.413 199.689 542.531 199.247 542.531 198.724V196.788L542.803 197.076C542.504 197.663 542.072 198.111 541.507 198.42C540.952 198.729 540.339 198.884 539.667 198.884C538.856 198.884 538.131 198.697 537.491 198.324C536.851 197.94 536.349 197.423 535.987 196.772C535.624 196.111 535.443 195.38 535.443 194.58C535.443 193.769 535.624 193.039 535.987 192.388C536.349 191.737 536.845 191.225 537.475 190.852C538.115 190.468 538.84 190.276 539.651 190.276C540.323 190.276 540.931 190.431 541.475 190.74C542.029 191.039 542.472 191.455 542.803 191.988L542.579 192.388V190.468H544.035V198.724C544.035 199.471 543.859 200.137 543.507 200.724C543.155 201.311 542.664 201.769 542.035 202.1C541.416 202.441 540.707 202.612 539.907 202.612ZM539.795 197.444C540.307 197.444 540.765 197.316 541.171 197.06C541.587 196.804 541.917 196.463 542.163 196.036C542.408 195.599 542.531 195.113 542.531 194.58C542.531 194.057 542.408 193.577 542.163 193.14C541.917 192.703 541.587 192.356 541.171 192.1C540.765 191.844 540.307 191.716 539.795 191.716C539.272 191.716 538.797 191.844 538.371 192.1C537.944 192.356 537.608 192.703 537.363 193.14C537.128 193.567 537.011 194.047 537.011 194.58C537.011 195.113 537.128 195.599 537.363 196.036C537.608 196.463 537.939 196.804 538.355 197.06C538.781 197.316 539.261 197.444 539.795 197.444Z" fill="#1E1F24"/>
<path d="M231.011 52.0644C230.147 52.0644 229.379 51.883 228.707 51.5204C228.046 51.1577 227.529 50.6617 227.155 50.0324C226.793 49.3924 226.611 48.667 226.611 47.8564V39.9524H228.195V47.8244C228.195 48.3684 228.313 48.8537 228.547 49.2804C228.793 49.6964 229.123 50.0217 229.539 50.2564C229.966 50.491 230.457 50.6084 231.011 50.6084C231.566 50.6084 232.051 50.491 232.467 50.2564C232.894 50.0217 233.225 49.6964 233.459 49.2804C233.705 48.8537 233.827 48.3684 233.827 47.8244V39.9524H235.411V47.8564C235.411 48.667 235.225 49.3924 234.851 50.0324C234.489 50.6617 233.977 51.1577 233.315 51.5204C232.654 51.883 231.886 52.0644 231.011 52.0644ZM236.836 51.8724L240.724 45.8244L236.932 39.9524H238.724L241.94 44.9604H241.268L244.484 39.9524H246.276L242.484 45.8244L246.372 51.8724H244.58L241.268 46.6884H241.94L238.612 51.8724H236.836ZM197.16 71.8724V59.9524H201.064C202.269 59.9524 203.32 60.1977 204.216 60.6884C205.112 61.179 205.805 61.8724 206.296 62.7684C206.787 63.6537 207.032 64.699 207.032 65.9044C207.032 67.099 206.787 68.1444 206.296 69.0404C205.805 69.9364 205.112 70.635 204.216 71.1364C203.32 71.627 202.269 71.8724 201.064 71.8724H197.16ZM198.728 70.4324H201.08C201.965 70.4324 202.728 70.2457 203.368 69.8724C204.019 69.499 204.52 68.9764 204.872 68.3044C205.224 67.6217 205.4 66.8217 205.4 65.9044C205.4 64.9764 205.219 64.1764 204.856 63.5044C204.504 62.8324 204.003 62.315 203.352 61.9524C202.712 61.579 201.955 61.3924 201.08 61.3924H198.728V70.4324ZM212.811 72.0644C211.979 72.0644 211.238 71.867 210.587 71.4724C209.937 71.0777 209.425 70.539 209.051 69.8564C208.678 69.163 208.491 68.3897 208.491 67.5364C208.491 66.6724 208.673 65.9044 209.035 65.2324C209.409 64.5604 209.91 64.0324 210.539 63.6484C211.179 63.2537 211.894 63.0564 212.683 63.0564C213.323 63.0564 213.889 63.1737 214.379 63.4084C214.881 63.6324 215.302 63.9417 215.643 64.3364C215.995 64.7204 216.262 65.163 216.443 65.6644C216.635 66.155 216.731 66.667 216.731 67.2004C216.731 67.3177 216.721 67.451 216.699 67.6004C216.689 67.739 216.673 67.8724 216.651 68.0004H209.579V66.7204H215.787L215.083 67.2964C215.179 66.7417 215.126 66.2457 214.923 65.8084C214.721 65.371 214.422 65.0244 214.027 64.7684C213.633 64.5124 213.185 64.3844 212.683 64.3844C212.182 64.3844 211.723 64.5124 211.307 64.7684C210.891 65.0244 210.566 65.3924 210.331 65.8724C210.107 66.3417 210.017 66.9017 210.059 67.5524C210.017 68.1817 210.113 68.7364 210.347 69.2164C210.593 69.6857 210.934 70.0537 211.371 70.3204C211.819 70.5764 212.305 70.7044 212.827 70.7044C213.403 70.7044 213.889 70.571 214.283 70.3044C214.678 70.0377 214.998 69.6964 215.243 69.2804L216.491 69.9204C216.321 70.315 216.054 70.6777 215.691 71.0084C215.339 71.3284 214.918 71.5844 214.427 71.7764C213.947 71.9684 213.409 72.0644 212.811 72.0644ZM221.76 72.0644C220.896 72.0644 220.144 71.851 219.504 71.4244C218.864 70.9977 218.41 70.4217 218.144 69.6964L219.328 69.1204C219.573 69.6324 219.909 70.0377 220.336 70.3364C220.762 70.635 221.237 70.7844 221.76 70.7844C222.229 70.7844 222.618 70.6724 222.928 70.4484C223.237 70.2244 223.392 69.931 223.392 69.5684C223.392 69.3124 223.317 69.1097 223.168 68.9604C223.029 68.8004 222.858 68.6777 222.656 68.5924C222.453 68.4964 222.266 68.427 222.096 68.3844L220.8 68.0164C220.021 67.7924 219.45 67.4724 219.088 67.0564C218.736 66.6404 218.56 66.155 218.56 65.6004C218.56 65.0884 218.688 64.6457 218.944 64.2724C219.21 63.8884 219.568 63.5897 220.016 63.3764C220.474 63.163 220.986 63.0564 221.552 63.0564C222.309 63.0564 222.986 63.2484 223.584 63.6324C224.192 64.0164 224.624 64.555 224.88 65.2484L223.664 65.8084C223.472 65.3604 223.184 65.0084 222.8 64.7524C222.416 64.4857 221.984 64.3524 221.504 64.3524C221.066 64.3524 220.72 64.4644 220.464 64.6884C220.208 64.9017 220.08 65.1737 220.08 65.5044C220.08 65.7497 220.144 65.9524 220.272 66.1124C220.4 66.2617 220.554 66.379 220.736 66.4644C220.917 66.539 221.093 66.603 221.264 66.6564L222.672 67.0724C223.376 67.275 223.92 67.5897 224.304 68.0164C224.698 68.443 224.896 68.955 224.896 69.5524C224.896 70.0324 224.762 70.4644 224.496 70.8484C224.229 71.2324 223.861 71.531 223.392 71.7444C222.922 71.9577 222.378 72.0644 221.76 72.0644ZM226.843 71.8724V63.2484H228.331V71.8724H226.843ZM226.843 61.8724V59.9524H228.331V61.8724H226.843ZM234.752 75.3924C234.144 75.3924 233.579 75.2964 233.056 75.1044C232.544 74.9124 232.102 74.6457 231.728 74.3044C231.366 73.9737 231.088 73.5844 230.896 73.1364L232.288 72.4964C232.438 72.9017 232.72 73.243 233.136 73.5204C233.563 73.8084 234.096 73.9524 234.736 73.9524C235.227 73.9524 235.67 73.8564 236.064 73.6644C236.47 73.483 236.79 73.2057 237.024 72.8324C237.259 72.4697 237.376 72.027 237.376 71.5044V69.5684L237.648 69.8564C237.35 70.443 236.918 70.891 236.352 71.2004C235.798 71.5097 235.184 71.6644 234.512 71.6644C233.702 71.6644 232.976 71.4777 232.336 71.1044C231.696 70.7204 231.195 70.203 230.832 69.5524C230.47 68.891 230.288 68.1604 230.288 67.3604C230.288 66.5497 230.47 65.819 230.832 65.1684C231.195 64.5177 231.691 64.0057 232.32 63.6324C232.96 63.2484 233.686 63.0564 234.496 63.0564C235.168 63.0564 235.776 63.211 236.32 63.5204C236.875 63.819 237.318 64.235 237.648 64.7684L237.424 65.1684V63.2484H238.88V71.5044C238.88 72.251 238.704 72.9177 238.352 73.5044C238 74.091 237.51 74.5497 236.88 74.8804C236.262 75.2217 235.552 75.3924 234.752 75.3924ZM234.64 70.2244C235.152 70.2244 235.611 70.0964 236.016 69.8404C236.432 69.5844 236.763 69.243 237.008 68.8164C237.254 68.379 237.376 67.8937 237.376 67.3604C237.376 66.8377 237.254 66.3577 237.008 65.9204C236.763 65.483 236.432 65.1364 236.016 64.8804C235.611 64.6244 235.152 64.4964 234.64 64.4964C234.118 64.4964 233.643 64.6244 233.216 64.8804C232.79 65.1364 232.454 65.483 232.208 65.9204C231.974 66.347 231.856 66.827 231.856 67.3604C231.856 67.8937 231.974 68.379 232.208 68.8164C232.454 69.243 232.784 69.5844 233.2 69.8404C233.627 70.0964 234.107 70.2244 234.64 70.2244ZM241.187 71.8724V63.2484H242.643V64.9284L242.403 64.7844C242.617 64.2404 242.958 63.819 243.427 63.5204C243.907 63.211 244.467 63.0564 245.107 63.0564C245.726 63.0564 246.275 63.195 246.755 63.4724C247.246 63.7497 247.63 64.1337 247.907 64.6244C248.195 65.115 248.339 65.6697 248.339 66.2884V71.8724H246.835V66.7684C246.835 66.2884 246.75 65.883 246.579 65.5524C246.409 65.2217 246.163 64.9657 245.843 64.7844C245.534 64.5924 245.177 64.4964 244.771 64.4964C244.366 64.4964 244.003 64.5924 243.683 64.7844C243.374 64.9657 243.129 65.227 242.947 65.5684C242.766 65.899 242.675 66.299 242.675 66.7684V71.8724H241.187Z" fill="#1E1F24"/>
<path d="M366.672 52.0644C365.808 52.0644 365.04 51.883 364.368 51.5204C363.707 51.1577 363.19 50.6617 362.816 50.0324C362.454 49.3924 362.272 48.667 362.272 47.8564V39.9524H363.856V47.8244C363.856 48.3684 363.974 48.8537 364.208 49.2804C364.454 49.6964 364.784 50.0217 365.2 50.2564C365.627 50.491 366.118 50.6084 366.672 50.6084C367.227 50.6084 367.712 50.491 368.128 50.2564C368.555 50.0217 368.886 49.6964 369.12 49.2804C369.366 48.8537 369.488 48.3684 369.488 47.8244V39.9524H371.072V47.8564C371.072 48.667 370.886 49.3924 370.512 50.0324C370.15 50.6617 369.638 51.1577 368.976 51.5204C368.315 51.883 367.547 52.0644 366.672 52.0644ZM373.649 51.8724V39.9524H375.217V51.8724H373.649ZM362.352 71.8724V59.9524H366.256C367.462 59.9524 368.512 60.1977 369.408 60.6884C370.304 61.179 370.998 61.8724 371.488 62.7684C371.979 63.6537 372.224 64.699 372.224 65.9044C372.224 67.099 371.979 68.1444 371.488 69.0404C370.998 69.9364 370.304 70.635 369.408 71.1364C368.512 71.627 367.462 71.8724 366.256 71.8724H362.352ZM363.92 70.4324H366.272C367.158 70.4324 367.92 70.2457 368.56 69.8724C369.211 69.499 369.712 68.9764 370.064 68.3044C370.416 67.6217 370.592 66.8217 370.592 65.9044C370.592 64.9764 370.411 64.1764 370.048 63.5044C369.696 62.8324 369.195 62.315 368.544 61.9524C367.904 61.579 367.147 61.3924 366.272 61.3924H363.92V70.4324ZM378.004 72.0644C377.172 72.0644 376.43 71.867 375.78 71.4724C375.129 71.0777 374.617 70.539 374.244 69.8564C373.87 69.163 373.684 68.3897 373.684 67.5364C373.684 66.6724 373.865 65.9044 374.228 65.2324C374.601 64.5604 375.102 64.0324 375.732 63.6484C376.372 63.2537 377.086 63.0564 377.876 63.0564C378.516 63.0564 379.081 63.1737 379.572 63.4084C380.073 63.6324 380.494 63.9417 380.836 64.3364C381.188 64.7204 381.454 65.163 381.636 65.6644C381.828 66.155 381.924 66.667 381.924 67.2004C381.924 67.3177 381.913 67.451 381.892 67.6004C381.881 67.739 381.865 67.8724 381.844 68.0004H374.772V66.7204H380.98L380.276 67.2964C380.372 66.7417 380.318 66.2457 380.116 65.8084C379.913 65.371 379.614 65.0244 379.22 64.7684C378.825 64.5124 378.377 64.3844 377.876 64.3844C377.374 64.3844 376.916 64.5124 376.5 64.7684C376.084 65.0244 375.758 65.3924 375.524 65.8724C375.3 66.3417 375.209 66.9017 375.252 67.5524C375.209 68.1817 375.305 68.7364 375.54 69.2164C375.785 69.6857 376.126 70.0537 376.564 70.3204C377.012 70.5764 377.497 70.7044 378.02 70.7044C378.596 70.7044 379.081 70.571 379.476 70.3044C379.87 70.0377 380.19 69.6964 380.436 69.2804L381.684 69.9204C381.513 70.315 381.246 70.6777 380.884 71.0084C380.532 71.3284 380.11 71.5844 379.62 71.7764C379.14 71.9684 378.601 72.0644 378.004 72.0644ZM386.952 72.0644C386.088 72.0644 385.336 71.851 384.696 71.4244C384.056 70.9977 383.603 70.4217 383.336 69.6964L384.52 69.1204C384.765 69.6324 385.101 70.0377 385.528 70.3364C385.955 70.635 386.429 70.7844 386.952 70.7844C387.421 70.7844 387.811 70.6724 388.12 70.4484C388.429 70.2244 388.584 69.931 388.584 69.5684C388.584 69.3124 388.509 69.1097 388.36 68.9604C388.221 68.8004 388.051 68.6777 387.848 68.5924C387.645 68.4964 387.459 68.427 387.288 68.3844L385.992 68.0164C385.213 67.7924 384.643 67.4724 384.28 67.0564C383.928 66.6404 383.752 66.155 383.752 65.6004C383.752 65.0884 383.88 64.6457 384.136 64.2724C384.403 63.8884 384.76 63.5897 385.208 63.3764C385.667 63.163 386.179 63.0564 386.744 63.0564C387.501 63.0564 388.179 63.2484 388.776 63.6324C389.384 64.0164 389.816 64.555 390.072 65.2484L388.856 65.8084C388.664 65.3604 388.376 65.0084 387.992 64.7524C387.608 64.4857 387.176 64.3524 386.696 64.3524C386.259 64.3524 385.912 64.4644 385.656 64.6884C385.4 64.9017 385.272 65.1737 385.272 65.5044C385.272 65.7497 385.336 65.9524 385.464 66.1124C385.592 66.2617 385.747 66.379 385.928 66.4644C386.109 66.539 386.285 66.603 386.456 66.6564L387.864 67.0724C388.568 67.275 389.112 67.5897 389.496 68.0164C389.891 68.443 390.088 68.955 390.088 69.5524C390.088 70.0324 389.955 70.4644 389.688 70.8484C389.421 71.2324 389.053 71.531 388.584 71.7444C388.115 71.9577 387.571 72.0644 386.952 72.0644ZM392.036 71.8724V63.2484H393.524V71.8724H392.036ZM392.036 61.8724V59.9524H393.524V61.8724H392.036ZM399.945 75.3924C399.337 75.3924 398.771 75.2964 398.249 75.1044C397.737 74.9124 397.294 74.6457 396.921 74.3044C396.558 73.9737 396.281 73.5844 396.089 73.1364L397.481 72.4964C397.63 72.9017 397.913 73.243 398.329 73.5204C398.755 73.8084 399.289 73.9524 399.929 73.9524C400.419 73.9524 400.862 73.8564 401.257 73.6644C401.662 73.483 401.982 73.2057 402.217 72.8324C402.451 72.4697 402.569 72.027 402.569 71.5044V69.5684L402.841 69.8564C402.542 70.443 402.11 70.891 401.545 71.2004C400.99 71.5097 400.377 71.6644 399.705 71.6644C398.894 71.6644 398.169 71.4777 397.529 71.1044C396.889 70.7204 396.387 70.203 396.025 69.5524C395.662 68.891 395.481 68.1604 395.481 67.3604C395.481 66.5497 395.662 65.819 396.025 65.1684C396.387 64.5177 396.883 64.0057 397.513 63.6324C398.153 63.2484 398.878 63.0564 399.689 63.0564C400.361 63.0564 400.969 63.211 401.513 63.5204C402.067 63.819 402.51 64.235 402.841 64.7684L402.617 65.1684V63.2484H404.073V71.5044C404.073 72.251 403.897 72.9177 403.545 73.5044C403.193 74.091 402.702 74.5497 402.073 74.8804C401.454 75.2217 400.745 75.3924 399.945 75.3924ZM399.833 70.2244C400.345 70.2244 400.803 70.0964 401.209 69.8404C401.625 69.5844 401.955 69.243 402.201 68.8164C402.446 68.379 402.569 67.8937 402.569 67.3604C402.569 66.8377 402.446 66.3577 402.201 65.9204C401.955 65.483 401.625 65.1364 401.209 64.8804C400.803 64.6244 400.345 64.4964 399.833 64.4964C399.31 64.4964 398.835 64.6244 398.409 64.8804C397.982 65.1364 397.646 65.483 397.401 65.9204C397.166 66.347 397.049 66.827 397.049 67.3604C397.049 67.8937 397.166 68.379 397.401 68.8164C397.646 69.243 397.977 69.5844 398.393 69.8404C398.819 70.0964 399.299 70.2244 399.833 70.2244ZM406.38 71.8724V63.2484H407.836V64.9284L407.596 64.7844C407.809 64.2404 408.15 63.819 408.62 63.5204C409.1 63.211 409.66 63.0564 410.3 63.0564C410.918 63.0564 411.468 63.195 411.948 63.4724C412.438 63.7497 412.822 64.1337 413.1 64.6244C413.388 65.115 413.532 65.6697 413.532 66.2884V71.8724H412.028V66.7684C412.028 66.2884 411.942 65.883 411.772 65.5524C411.601 65.2217 411.356 64.9657 411.036 64.7844C410.726 64.5924 410.369 64.4964 409.964 64.4964C409.558 64.4964 409.196 64.5924 408.876 64.7844C408.566 64.9657 408.321 65.227 408.14 65.5684C407.958 65.899 407.868 66.299 407.868 66.7684V71.8724H406.38Z" fill="#1E1F24"/>
<path d="M216.961 461.711L213.617 449.791H215.265L218.065 460.287H217.681L220.593 449.791H222.241L225.137 460.287H224.737L227.553 449.791H229.201L225.857 461.711H224.113L221.201 451.263H221.617L218.705 461.711H216.961ZM233.905 461.903C233.073 461.903 232.332 461.705 231.681 461.311C231.03 460.916 230.518 460.377 230.145 459.695C229.772 459.001 229.585 458.228 229.585 457.375C229.585 456.511 229.766 455.743 230.129 455.071C230.502 454.399 231.004 453.871 231.633 453.487C232.273 453.092 232.988 452.895 233.777 452.895C234.417 452.895 234.982 453.012 235.473 453.247C235.974 453.471 236.396 453.78 236.737 454.175C237.089 454.559 237.356 455.001 237.537 455.503C237.729 455.993 237.825 456.505 237.825 457.039C237.825 457.156 237.814 457.289 237.793 457.439C237.782 457.577 237.766 457.711 237.745 457.839H230.673V456.559H236.881L236.177 457.135C236.273 456.58 236.22 456.084 236.017 455.647C235.814 455.209 235.516 454.863 235.121 454.607C234.726 454.351 234.278 454.223 233.777 454.223C233.276 454.223 232.817 454.351 232.401 454.607C231.985 454.863 231.66 455.231 231.425 455.711C231.201 456.18 231.11 456.74 231.153 457.391C231.11 458.02 231.206 458.575 231.441 459.055C231.686 459.524 232.028 459.892 232.465 460.159C232.913 460.415 233.398 460.543 233.921 460.543C234.497 460.543 234.982 460.409 235.377 460.143C235.772 459.876 236.092 459.535 236.337 459.119L237.585 459.759C237.414 460.153 237.148 460.516 236.785 460.847C236.433 461.167 236.012 461.423 235.521 461.615C235.041 461.807 234.502 461.903 233.905 461.903ZM244.229 461.903C243.536 461.903 242.901 461.748 242.325 461.439C241.76 461.129 241.323 460.692 241.013 460.127L241.221 459.871V461.711H239.765V449.599H241.253V454.943L241.029 454.575C241.349 454.063 241.787 453.657 242.341 453.359C242.896 453.049 243.531 452.895 244.245 452.895C245.056 452.895 245.781 453.092 246.421 453.487C247.072 453.881 247.584 454.42 247.957 455.103C248.331 455.775 248.517 456.543 248.517 457.407C248.517 458.249 248.331 459.012 247.957 459.695C247.584 460.377 247.072 460.916 246.421 461.311C245.781 461.705 245.051 461.903 244.229 461.903ZM244.117 460.463C244.661 460.463 245.147 460.329 245.573 460.063C246 459.796 246.331 459.433 246.565 458.975C246.811 458.505 246.933 457.983 246.933 457.407C246.933 456.809 246.811 456.287 246.565 455.839C246.331 455.38 246 455.017 245.573 454.751C245.147 454.473 244.661 454.335 244.117 454.335C243.573 454.335 243.083 454.468 242.645 454.735C242.219 455.001 241.877 455.369 241.621 455.839C241.376 456.297 241.253 456.82 241.253 457.407C241.253 457.983 241.376 458.505 241.621 458.975C241.877 459.433 242.219 459.796 242.645 460.063C243.083 460.329 243.573 460.463 244.117 460.463ZM145.879 481.711V469.791H149.783C150.988 469.791 152.039 470.036 152.935 470.527C153.831 471.017 154.524 471.711 155.015 472.607C155.505 473.492 155.751 474.537 155.751 475.743C155.751 476.937 155.505 477.983 155.015 478.879C154.524 479.775 153.831 480.473 152.935 480.975C152.039 481.465 150.988 481.711 149.783 481.711H145.879ZM147.447 480.271H149.799C150.684 480.271 151.447 480.084 152.087 479.711C152.737 479.337 153.239 478.815 153.591 478.143C153.943 477.46 154.119 476.66 154.119 475.743C154.119 474.815 153.937 474.015 153.575 473.343C153.223 472.671 152.721 472.153 152.071 471.791C151.431 471.417 150.673 471.231 149.799 471.231H147.447V480.271ZM161.53 481.903C160.698 481.903 159.957 481.705 159.306 481.311C158.655 480.916 158.143 480.377 157.77 479.695C157.397 479.001 157.21 478.228 157.21 477.375C157.21 476.511 157.391 475.743 157.754 475.071C158.127 474.399 158.629 473.871 159.258 473.487C159.898 473.092 160.613 472.895 161.402 472.895C162.042 472.895 162.607 473.012 163.098 473.247C163.599 473.471 164.021 473.78 164.362 474.175C164.714 474.559 164.981 475.001 165.162 475.503C165.354 475.993 165.45 476.505 165.45 477.039C165.45 477.156 165.439 477.289 165.418 477.439C165.407 477.577 165.391 477.711 165.37 477.839H158.298V476.559H164.506L163.802 477.135C163.898 476.58 163.845 476.084 163.642 475.647C163.439 475.209 163.141 474.863 162.746 474.607C162.351 474.351 161.903 474.223 161.402 474.223C160.901 474.223 160.442 474.351 160.026 474.607C159.61 474.863 159.285 475.231 159.05 475.711C158.826 476.18 158.735 476.74 158.778 477.391C158.735 478.02 158.831 478.575 159.066 479.055C159.311 479.524 159.653 479.892 160.09 480.159C160.538 480.415 161.023 480.543 161.546 480.543C162.122 480.543 162.607 480.409 163.002 480.143C163.397 479.876 163.717 479.535 163.962 479.119L165.21 479.759C165.039 480.153 164.773 480.516 164.41 480.847C164.058 481.167 163.637 481.423 163.146 481.615C162.666 481.807 162.127 481.903 161.53 481.903ZM169.634 481.711L166.258 473.087H167.922L170.626 480.383H170.05L172.77 473.087H174.434L171.042 481.711H169.634ZM179.577 481.903C178.745 481.903 178.004 481.705 177.353 481.311C176.702 480.916 176.19 480.377 175.817 479.695C175.444 479.001 175.257 478.228 175.257 477.375C175.257 476.511 175.438 475.743 175.801 475.071C176.174 474.399 176.676 473.871 177.305 473.487C177.945 473.092 178.66 472.895 179.449 472.895C180.089 472.895 180.654 473.012 181.145 473.247C181.646 473.471 182.068 473.78 182.409 474.175C182.761 474.559 183.028 475.001 183.209 475.503C183.401 475.993 183.497 476.505 183.497 477.039C183.497 477.156 183.486 477.289 183.465 477.439C183.454 477.577 183.438 477.711 183.417 477.839H176.345V476.559H182.553L181.849 477.135C181.945 476.58 181.892 476.084 181.689 475.647C181.486 475.209 181.188 474.863 180.793 474.607C180.398 474.351 179.95 474.223 179.449 474.223C178.948 474.223 178.489 474.351 178.073 474.607C177.657 474.863 177.332 475.231 177.097 475.711C176.873 476.18 176.782 476.74 176.825 477.391C176.782 478.02 176.878 478.575 177.113 479.055C177.358 479.524 177.7 479.892 178.137 480.159C178.585 480.415 179.07 480.543 179.593 480.543C180.169 480.543 180.654 480.409 181.049 480.143C181.444 479.876 181.764 479.535 182.009 479.119L183.257 479.759C183.086 480.153 182.82 480.516 182.457 480.847C182.105 481.167 181.684 481.423 181.193 481.615C180.713 481.807 180.174 481.903 179.577 481.903ZM185.437 481.711V469.599H186.925V481.711H185.437ZM193.33 481.903C192.498 481.903 191.746 481.711 191.074 481.327C190.402 480.932 189.869 480.393 189.474 479.711C189.079 479.028 188.882 478.255 188.882 477.391C188.882 476.527 189.074 475.759 189.458 475.087C189.853 474.415 190.386 473.881 191.058 473.487C191.73 473.092 192.487 472.895 193.33 472.895C194.162 472.895 194.914 473.092 195.586 473.487C196.258 473.871 196.786 474.399 197.17 475.071C197.565 475.743 197.762 476.516 197.762 477.391C197.762 478.265 197.559 479.044 197.154 479.727C196.749 480.399 196.21 480.932 195.538 481.327C194.877 481.711 194.141 481.903 193.33 481.903ZM193.33 480.463C193.863 480.463 194.343 480.329 194.77 480.063C195.207 479.796 195.549 479.428 195.794 478.959C196.05 478.489 196.178 477.967 196.178 477.391C196.178 476.804 196.05 476.287 195.794 475.839C195.549 475.38 195.207 475.017 194.77 474.751C194.343 474.473 193.863 474.335 193.33 474.335C192.786 474.335 192.295 474.473 191.858 474.751C191.431 475.017 191.09 475.38 190.834 475.839C190.578 476.287 190.45 476.804 190.45 477.391C190.45 477.967 190.578 478.489 190.834 478.959C191.09 479.428 191.431 479.796 191.858 480.063C192.295 480.329 192.786 480.463 193.33 480.463ZM199.703 484.911V473.087H201.159V474.943L200.967 474.575C201.287 474.063 201.724 473.657 202.279 473.359C202.833 473.049 203.468 472.895 204.183 472.895C204.993 472.895 205.719 473.092 206.359 473.487C207.009 473.881 207.521 474.42 207.895 475.103C208.268 475.775 208.455 476.543 208.455 477.407C208.455 478.249 208.268 479.012 207.895 479.695C207.521 480.377 207.009 480.916 206.359 481.311C205.719 481.705 204.988 481.903 204.167 481.903C203.473 481.903 202.839 481.748 202.263 481.439C201.697 481.129 201.26 480.692 200.951 480.127L201.191 479.871V484.911H199.703ZM204.055 480.463C204.599 480.463 205.084 480.329 205.511 480.063C205.937 479.796 206.268 479.433 206.503 478.975C206.748 478.505 206.871 477.983 206.871 477.407C206.871 476.809 206.748 476.287 206.503 475.839C206.268 475.38 205.937 475.017 205.511 474.751C205.084 474.473 204.599 474.335 204.055 474.335C203.511 474.335 203.02 474.468 202.583 474.735C202.156 475.001 201.815 475.369 201.559 475.839C201.313 476.297 201.191 476.82 201.191 477.407C201.191 477.983 201.313 478.505 201.559 478.975C201.815 479.433 202.156 479.796 202.583 480.063C203.02 480.329 203.511 480.463 204.055 480.463ZM210.406 481.711V473.087H211.862V474.847L211.654 474.575C211.867 474.031 212.209 473.615 212.678 473.327C213.147 473.039 213.675 472.895 214.262 472.895C214.934 472.895 215.537 473.081 216.07 473.455C216.614 473.828 216.987 474.319 217.19 474.927L216.774 474.943C216.998 474.271 217.377 473.764 217.91 473.423C218.443 473.071 219.035 472.895 219.686 472.895C220.283 472.895 220.822 473.033 221.302 473.311C221.793 473.588 222.182 473.972 222.47 474.463C222.758 474.953 222.902 475.508 222.902 476.127V481.711H221.398V476.607C221.398 476.127 221.313 475.721 221.142 475.391C220.971 475.06 220.737 474.804 220.438 474.623C220.15 474.431 219.809 474.335 219.414 474.335C219.03 474.335 218.683 474.431 218.374 474.623C218.075 474.804 217.835 475.065 217.654 475.407C217.483 475.737 217.398 476.137 217.398 476.607V481.711H215.894V476.607C215.894 476.127 215.809 475.721 215.638 475.391C215.467 475.06 215.233 474.804 214.934 474.623C214.646 474.431 214.305 474.335 213.91 474.335C213.526 474.335 213.179 474.431 212.87 474.623C212.571 474.804 212.331 475.065 212.15 475.407C211.979 475.737 211.894 476.137 211.894 476.607V481.711H210.406ZM228.983 481.903C228.151 481.903 227.41 481.705 226.759 481.311C226.109 480.916 225.597 480.377 225.223 479.695C224.85 479.001 224.663 478.228 224.663 477.375C224.663 476.511 224.845 475.743 225.207 475.071C225.581 474.399 226.082 473.871 226.711 473.487C227.351 473.092 228.066 472.895 228.855 472.895C229.495 472.895 230.061 473.012 230.551 473.247C231.053 473.471 231.474 473.78 231.815 474.175C232.167 474.559 232.434 475.001 232.615 475.503C232.807 475.993 232.903 476.505 232.903 477.039C232.903 477.156 232.893 477.289 232.871 477.439C232.861 477.577 232.845 477.711 232.823 477.839H225.751V476.559H231.959L231.255 477.135C231.351 476.58 231.298 476.084 231.095 475.647C230.893 475.209 230.594 474.863 230.199 474.607C229.805 474.351 229.357 474.223 228.855 474.223C228.354 474.223 227.895 474.351 227.479 474.607C227.063 474.863 226.738 475.231 226.503 475.711C226.279 476.18 226.189 476.74 226.231 477.391C226.189 478.02 226.285 478.575 226.519 479.055C226.765 479.524 227.106 479.892 227.543 480.159C227.991 480.415 228.477 480.543 228.999 480.543C229.575 480.543 230.061 480.409 230.455 480.143C230.85 479.876 231.17 479.535 231.415 479.119L232.663 479.759C232.493 480.153 232.226 480.516 231.863 480.847C231.511 481.167 231.09 481.423 230.599 481.615C230.119 481.807 229.581 481.903 228.983 481.903ZM234.843 481.711V473.087H236.299V474.767L236.059 474.623C236.273 474.079 236.614 473.657 237.083 473.359C237.563 473.049 238.123 472.895 238.763 472.895C239.382 472.895 239.931 473.033 240.411 473.311C240.902 473.588 241.286 473.972 241.563 474.463C241.851 474.953 241.995 475.508 241.995 476.127V481.711H240.491V476.607C240.491 476.127 240.406 475.721 240.235 475.391C240.065 475.06 239.819 474.804 239.499 474.623C239.19 474.431 238.833 474.335 238.427 474.335C238.022 474.335 237.659 474.431 237.339 474.623C237.03 474.804 236.785 475.065 236.603 475.407C236.422 475.737 236.331 476.137 236.331 476.607V481.711H234.843ZM247.629 481.807C246.786 481.807 246.135 481.567 245.677 481.087C245.229 480.607 245.005 479.929 245.005 479.055V474.511H243.437V473.087H243.757C244.141 473.087 244.445 472.969 244.669 472.735C244.893 472.5 245.005 472.191 245.005 471.807V471.103H246.493V473.087H248.429V474.511H246.493V479.007C246.493 479.295 246.535 479.545 246.621 479.759C246.717 479.972 246.871 480.143 247.085 480.271C247.298 480.388 247.581 480.447 247.933 480.447C248.007 480.447 248.098 480.441 248.205 480.431C248.322 480.42 248.429 480.409 248.525 480.399V481.711C248.386 481.743 248.231 481.764 248.061 481.775C247.89 481.796 247.746 481.807 247.629 481.807Z" fill="#1E1F24"/>
<path d="M362.352 461.711V449.791H369.904V451.231H363.92V455.087H369.344V456.527H363.92V461.711H362.352ZM371.02 461.711V453.087H372.476V454.671L372.316 454.447C372.519 453.956 372.828 453.593 373.244 453.359C373.66 453.113 374.167 452.991 374.764 452.991H375.292V454.399H374.54C373.932 454.399 373.441 454.591 373.068 454.975C372.695 455.348 372.508 455.881 372.508 456.575V461.711H371.02ZM380.71 461.903C379.878 461.903 379.126 461.711 378.454 461.327C377.782 460.932 377.249 460.393 376.854 459.711C376.459 459.028 376.262 458.255 376.262 457.391C376.262 456.527 376.454 455.759 376.838 455.087C377.233 454.415 377.766 453.881 378.438 453.487C379.11 453.092 379.867 452.895 380.71 452.895C381.542 452.895 382.294 453.092 382.966 453.487C383.638 453.871 384.166 454.399 384.55 455.071C384.945 455.743 385.142 456.516 385.142 457.391C385.142 458.265 384.939 459.044 384.534 459.727C384.129 460.399 383.59 460.932 382.918 461.327C382.257 461.711 381.521 461.903 380.71 461.903ZM380.71 460.463C381.243 460.463 381.723 460.329 382.15 460.063C382.587 459.796 382.929 459.428 383.174 458.959C383.43 458.489 383.558 457.967 383.558 457.391C383.558 456.804 383.43 456.287 383.174 455.839C382.929 455.38 382.587 455.017 382.15 454.751C381.723 454.473 381.243 454.335 380.71 454.335C380.166 454.335 379.675 454.473 379.238 454.751C378.811 455.017 378.47 455.38 378.214 455.839C377.958 456.287 377.83 456.804 377.83 457.391C377.83 457.967 377.958 458.489 378.214 458.959C378.47 459.428 378.811 459.796 379.238 460.063C379.675 460.329 380.166 460.463 380.71 460.463ZM387.083 461.711V453.087H388.539V454.767L388.299 454.623C388.512 454.079 388.853 453.657 389.323 453.359C389.803 453.049 390.363 452.895 391.003 452.895C391.621 452.895 392.171 453.033 392.651 453.311C393.141 453.588 393.525 453.972 393.803 454.463C394.091 454.953 394.235 455.508 394.235 456.127V461.711H392.731V456.607C392.731 456.127 392.645 455.721 392.475 455.391C392.304 455.06 392.059 454.804 391.739 454.623C391.429 454.431 391.072 454.335 390.667 454.335C390.261 454.335 389.899 454.431 389.579 454.623C389.269 454.804 389.024 455.065 388.843 455.407C388.661 455.737 388.571 456.137 388.571 456.607V461.711H387.083ZM399.868 461.807C399.025 461.807 398.375 461.567 397.916 461.087C397.468 460.607 397.244 459.929 397.244 459.055V454.511H395.676V453.087H395.996C396.38 453.087 396.684 452.969 396.908 452.735C397.132 452.5 397.244 452.191 397.244 451.807V451.103H398.732V453.087H400.668V454.511H398.732V459.007C398.732 459.295 398.775 459.545 398.86 459.759C398.956 459.972 399.111 460.143 399.324 460.271C399.537 460.388 399.82 460.447 400.172 460.447C400.247 460.447 400.337 460.441 400.444 460.431C400.561 460.42 400.668 460.409 400.764 460.399V461.711C400.625 461.743 400.471 461.764 400.3 461.775C400.129 461.796 399.985 461.807 399.868 461.807ZM402.82 458.079V456.719H408.82V458.079H402.82ZM415.191 461.903C414.359 461.903 413.618 461.705 412.967 461.311C412.317 460.916 411.805 460.377 411.431 459.695C411.058 459.001 410.871 458.228 410.871 457.375C410.871 456.511 411.053 455.743 411.415 455.071C411.789 454.399 412.29 453.871 412.919 453.487C413.559 453.092 414.274 452.895 415.063 452.895C415.703 452.895 416.269 453.012 416.759 453.247C417.261 453.471 417.682 453.78 418.023 454.175C418.375 454.559 418.642 455.001 418.823 455.503C419.015 455.993 419.111 456.505 419.111 457.039C419.111 457.156 419.101 457.289 419.079 457.439C419.069 457.577 419.053 457.711 419.031 457.839H411.959V456.559H418.167L417.463 457.135C417.559 456.58 417.506 456.084 417.303 455.647C417.101 455.209 416.802 454.863 416.407 454.607C416.013 454.351 415.565 454.223 415.063 454.223C414.562 454.223 414.103 454.351 413.687 454.607C413.271 454.863 412.946 455.231 412.711 455.711C412.487 456.18 412.397 456.74 412.439 457.391C412.397 458.02 412.493 458.575 412.727 459.055C412.973 459.524 413.314 459.892 413.751 460.159C414.199 460.415 414.685 460.543 415.207 460.543C415.783 460.543 416.269 460.409 416.663 460.143C417.058 459.876 417.378 459.535 417.623 459.119L418.871 459.759C418.701 460.153 418.434 460.516 418.071 460.847C417.719 461.167 417.298 461.423 416.807 461.615C416.327 461.807 415.789 461.903 415.191 461.903ZM421.051 461.711V453.087H422.507V454.767L422.267 454.623C422.481 454.079 422.822 453.657 423.291 453.359C423.771 453.049 424.331 452.895 424.971 452.895C425.59 452.895 426.139 453.033 426.619 453.311C427.11 453.588 427.494 453.972 427.771 454.463C428.059 454.953 428.203 455.508 428.203 456.127V461.711H426.699V456.607C426.699 456.127 426.614 455.721 426.443 455.391C426.273 455.06 426.027 454.804 425.707 454.623C425.398 454.431 425.041 454.335 424.635 454.335C424.23 454.335 423.867 454.431 423.547 454.623C423.238 454.804 422.993 455.065 422.811 455.407C422.63 455.737 422.539 456.137 422.539 456.607V461.711H421.051ZM434.253 461.903C433.442 461.903 432.711 461.705 432.061 461.311C431.421 460.916 430.914 460.377 430.541 459.695C430.167 459.012 429.981 458.249 429.981 457.407C429.981 456.543 430.167 455.775 430.541 455.103C430.914 454.42 431.421 453.881 432.061 453.487C432.711 453.092 433.442 452.895 434.253 452.895C434.967 452.895 435.602 453.049 436.157 453.359C436.711 453.657 437.149 454.063 437.469 454.575L437.229 454.943V449.599H438.733V461.711H437.277V459.871L437.469 460.127C437.17 460.692 436.733 461.129 436.157 461.439C435.591 461.748 434.957 461.903 434.253 461.903ZM434.381 460.463C434.925 460.463 435.41 460.329 435.837 460.063C436.263 459.796 436.599 459.433 436.845 458.975C437.101 458.505 437.229 457.983 437.229 457.407C437.229 456.82 437.101 456.297 436.845 455.839C436.599 455.369 436.263 455.001 435.837 454.735C435.41 454.468 434.925 454.335 434.381 454.335C433.847 454.335 433.362 454.473 432.925 454.751C432.498 455.017 432.162 455.38 431.917 455.839C431.671 456.287 431.549 456.809 431.549 457.407C431.549 457.983 431.671 458.505 431.917 458.975C432.162 459.433 432.498 459.796 432.925 460.063C433.351 460.329 433.837 460.463 434.381 460.463ZM362.352 481.711V469.791H370.112V471.231H363.92V475.007H369.792V476.447H363.92V480.271H370.112V481.711H362.352ZM371.88 481.711V473.087H373.336V474.767L373.096 474.623C373.309 474.079 373.65 473.657 374.12 473.359C374.6 473.049 375.16 472.895 375.8 472.895C376.418 472.895 376.968 473.033 377.448 473.311C377.938 473.588 378.322 473.972 378.6 474.463C378.888 474.953 379.032 475.508 379.032 476.127V481.711H377.528V476.607C377.528 476.127 377.442 475.721 377.272 475.391C377.101 475.06 376.856 474.804 376.536 474.623C376.226 474.431 375.869 474.335 375.464 474.335C375.058 474.335 374.696 474.431 374.376 474.623C374.066 474.804 373.821 475.065 373.64 475.407C373.458 475.737 373.368 476.137 373.368 476.607V481.711H371.88ZM385.273 485.231C384.665 485.231 384.099 485.135 383.577 484.943C383.065 484.751 382.622 484.484 382.249 484.143C381.886 483.812 381.609 483.423 381.417 482.975L382.809 482.335C382.958 482.74 383.241 483.081 383.657 483.359C384.083 483.647 384.617 483.791 385.257 483.791C385.747 483.791 386.19 483.695 386.585 483.503C386.99 483.321 387.31 483.044 387.545 482.671C387.779 482.308 387.897 481.865 387.897 481.343V479.407L388.169 479.695C387.87 480.281 387.438 480.729 386.873 481.039C386.318 481.348 385.705 481.503 385.033 481.503C384.222 481.503 383.497 481.316 382.857 480.943C382.217 480.559 381.715 480.041 381.353 479.391C380.99 478.729 380.809 477.999 380.809 477.199C380.809 476.388 380.99 475.657 381.353 475.007C381.715 474.356 382.211 473.844 382.841 473.471C383.481 473.087 384.206 472.895 385.017 472.895C385.689 472.895 386.297 473.049 386.841 473.359C387.395 473.657 387.838 474.073 388.169 474.607L387.945 475.007V473.087H389.401V481.343C389.401 482.089 389.225 482.756 388.873 483.343C388.521 483.929 388.03 484.388 387.401 484.719C386.782 485.06 386.073 485.231 385.273 485.231ZM385.161 480.063C385.673 480.063 386.131 479.935 386.537 479.679C386.953 479.423 387.283 479.081 387.529 478.655C387.774 478.217 387.897 477.732 387.897 477.199C387.897 476.676 387.774 476.196 387.529 475.759C387.283 475.321 386.953 474.975 386.537 474.719C386.131 474.463 385.673 474.335 385.161 474.335C384.638 474.335 384.163 474.463 383.737 474.719C383.31 474.975 382.974 475.321 382.729 475.759C382.494 476.185 382.377 476.665 382.377 477.199C382.377 477.732 382.494 478.217 382.729 478.655C382.974 479.081 383.305 479.423 383.721 479.679C384.147 479.935 384.627 480.063 385.161 480.063ZM391.708 481.711V473.087H393.196V481.711H391.708ZM391.708 471.711V469.791H393.196V471.711H391.708ZM395.505 481.711V473.087H396.961V474.767L396.721 474.623C396.934 474.079 397.275 473.657 397.745 473.359C398.225 473.049 398.785 472.895 399.425 472.895C400.043 472.895 400.593 473.033 401.073 473.311C401.563 473.588 401.947 473.972 402.225 474.463C402.513 474.953 402.657 475.508 402.657 476.127V481.711H401.153V476.607C401.153 476.127 401.067 475.721 400.897 475.391C400.726 475.06 400.481 474.804 400.161 474.623C399.851 474.431 399.494 474.335 399.089 474.335C398.683 474.335 398.321 474.431 398.001 474.623C397.691 474.804 397.446 475.065 397.265 475.407C397.083 475.737 396.993 476.137 396.993 476.607V481.711H395.505ZM408.754 481.903C407.922 481.903 407.18 481.705 406.53 481.311C405.879 480.916 405.367 480.377 404.994 479.695C404.62 479.001 404.434 478.228 404.434 477.375C404.434 476.511 404.615 475.743 404.978 475.071C405.351 474.399 405.852 473.871 406.482 473.487C407.122 473.092 407.836 472.895 408.626 472.895C409.266 472.895 409.831 473.012 410.322 473.247C410.823 473.471 411.244 473.78 411.586 474.175C411.938 474.559 412.204 475.001 412.386 475.503C412.578 475.993 412.674 476.505 412.674 477.039C412.674 477.156 412.663 477.289 412.642 477.439C412.631 477.577 412.615 477.711 412.594 477.839H405.522V476.559H411.73L411.026 477.135C411.122 476.58 411.068 476.084 410.866 475.647C410.663 475.209 410.364 474.863 409.97 474.607C409.575 474.351 409.127 474.223 408.626 474.223C408.124 474.223 407.666 474.351 407.25 474.607C406.834 474.863 406.508 475.231 406.274 475.711C406.05 476.18 405.959 476.74 406.002 477.391C405.959 478.02 406.055 478.575 406.29 479.055C406.535 479.524 406.876 479.892 407.314 480.159C407.762 480.415 408.247 480.543 408.77 480.543C409.346 480.543 409.831 480.409 410.226 480.143C410.62 479.876 410.94 479.535 411.186 479.119L412.434 479.759C412.263 480.153 411.996 480.516 411.634 480.847C411.282 481.167 410.86 481.423 410.37 481.615C409.89 481.807 409.351 481.903 408.754 481.903ZM418.582 481.903C417.75 481.903 417.009 481.705 416.358 481.311C415.707 480.916 415.195 480.377 414.822 479.695C414.449 479.001 414.262 478.228 414.262 477.375C414.262 476.511 414.443 475.743 414.806 475.071C415.179 474.399 415.681 473.871 416.31 473.487C416.95 473.092 417.665 472.895 418.454 472.895C419.094 472.895 419.659 473.012 420.15 473.247C420.651 473.471 421.073 473.78 421.414 474.175C421.766 474.559 422.033 475.001 422.214 475.503C422.406 475.993 422.502 476.505 422.502 477.039C422.502 477.156 422.491 477.289 422.47 477.439C422.459 477.577 422.443 477.711 422.422 477.839H415.35V476.559H421.558L420.854 477.135C420.95 476.58 420.897 476.084 420.694 475.647C420.491 475.209 420.193 474.863 419.798 474.607C419.403 474.351 418.955 474.223 418.454 474.223C417.953 474.223 417.494 474.351 417.078 474.607C416.662 474.863 416.337 475.231 416.102 475.711C415.878 476.18 415.787 476.74 415.83 477.391C415.787 478.02 415.883 478.575 416.118 479.055C416.363 479.524 416.705 479.892 417.142 480.159C417.59 480.415 418.075 480.543 418.598 480.543C419.174 480.543 419.659 480.409 420.054 480.143C420.449 479.876 420.769 479.535 421.014 479.119L422.262 479.759C422.091 480.153 421.825 480.516 421.462 480.847C421.11 481.167 420.689 481.423 420.198 481.615C419.718 481.807 419.179 481.903 418.582 481.903ZM424.442 481.711V473.087H425.898V474.671L425.738 474.447C425.941 473.956 426.25 473.593 426.666 473.359C427.082 473.113 427.589 472.991 428.186 472.991H428.714V474.399H427.962C427.354 474.399 426.863 474.591 426.49 474.975C426.117 475.348 425.93 475.881 425.93 476.575V481.711H424.442ZM430.036 481.711V473.087H431.524V481.711H430.036ZM430.036 471.711V469.791H431.524V471.711H430.036ZM433.833 481.711V473.087H435.289V474.767L435.049 474.623C435.262 474.079 435.603 473.657 436.073 473.359C436.553 473.049 437.113 472.895 437.753 472.895C438.371 472.895 438.921 473.033 439.401 473.311C439.891 473.588 440.275 473.972 440.553 474.463C440.841 474.953 440.985 475.508 440.985 476.127V481.711H439.481V476.607C439.481 476.127 439.395 475.721 439.225 475.391C439.054 475.06 438.809 474.804 438.489 474.623C438.179 474.431 437.822 474.335 437.417 474.335C437.011 474.335 436.649 474.431 436.329 474.623C436.019 474.804 435.774 475.065 435.593 475.407C435.411 475.737 435.321 476.137 435.321 476.607V481.711H433.833ZM447.226 485.231C446.618 485.231 446.053 485.135 445.53 484.943C445.018 484.751 444.575 484.484 444.202 484.143C443.839 483.812 443.562 483.423 443.37 482.975L444.762 482.335C444.911 482.74 445.194 483.081 445.61 483.359C446.037 483.647 446.57 483.791 447.21 483.791C447.701 483.791 448.143 483.695 448.538 483.503C448.943 483.321 449.263 483.044 449.498 482.671C449.733 482.308 449.85 481.865 449.85 481.343V479.407L450.122 479.695C449.823 480.281 449.391 480.729 448.826 481.039C448.271 481.348 447.658 481.503 446.986 481.503C446.175 481.503 445.45 481.316 444.81 480.943C444.17 480.559 443.669 480.041 443.306 479.391C442.943 478.729 442.762 477.999 442.762 477.199C442.762 476.388 442.943 475.657 443.306 475.007C443.669 474.356 444.165 473.844 444.794 473.471C445.434 473.087 446.159 472.895 446.97 472.895C447.642 472.895 448.25 473.049 448.794 473.359C449.349 473.657 449.791 474.073 450.122 474.607L449.898 475.007V473.087H451.354V481.343C451.354 482.089 451.178 482.756 450.826 483.343C450.474 483.929 449.983 484.388 449.354 484.719C448.735 485.06 448.026 485.231 447.226 485.231ZM447.114 480.063C447.626 480.063 448.085 479.935 448.49 479.679C448.906 479.423 449.237 479.081 449.482 478.655C449.727 478.217 449.85 477.732 449.85 477.199C449.85 476.676 449.727 476.196 449.482 475.759C449.237 475.321 448.906 474.975 448.49 474.719C448.085 474.463 447.626 474.335 447.114 474.335C446.591 474.335 446.117 474.463 445.69 474.719C445.263 474.975 444.927 475.321 444.682 475.759C444.447 476.185 444.33 476.665 444.33 477.199C444.33 477.732 444.447 478.217 444.682 478.655C444.927 479.081 445.258 479.423 445.674 479.679C446.101 479.935 446.581 480.063 447.114 480.063Z" fill="#1E1F24"/>
<path d="M103.24 179.284C102.376 179.284 101.608 179.103 100.936 178.74C100.275 178.377 99.7576 177.881 99.3842 177.252C99.0216 176.612 98.8402 175.887 98.8402 175.076V167.172H100.424V175.044C100.424 175.588 100.542 176.073 100.776 176.5C101.022 176.916 101.352 177.241 101.768 177.476C102.195 177.711 102.686 177.828 103.24 177.828C103.795 177.828 104.28 177.711 104.696 177.476C105.123 177.241 105.454 176.916 105.688 176.5C105.934 176.073 106.056 175.588 106.056 175.044V167.172H107.64V175.076C107.64 175.887 107.454 176.612 107.08 177.252C106.718 177.881 106.206 178.377 105.544 178.74C104.883 179.103 104.115 179.284 103.24 179.284ZM109.065 179.092L112.953 173.044L109.161 167.172H110.953L114.169 172.18H113.497L116.713 167.172H118.505L114.713 173.044L118.601 179.092H116.809L113.497 173.908H114.169L110.841 179.092H109.065ZM51.5452 199.092V187.172H55.7532C56.5426 187.172 57.2359 187.321 57.8332 187.62C58.4306 187.919 58.8946 188.345 59.2252 188.9C59.5666 189.455 59.7372 190.105 59.7372 190.852C59.7372 191.695 59.5239 192.409 59.0972 192.996C58.6706 193.583 58.0946 194.004 57.3692 194.26L60.1372 199.092H58.3132L55.4012 193.924L56.4412 194.532H53.1132V199.092H51.5452ZM53.1132 193.092H55.8012C56.2706 193.092 56.6812 193.001 57.0332 192.82C57.3852 192.639 57.6572 192.377 57.8492 192.036C58.0519 191.695 58.1532 191.3 58.1532 190.852C58.1532 190.393 58.0519 189.999 57.8492 189.668C57.6572 189.327 57.3852 189.065 57.0332 188.884C56.6812 188.703 56.2706 188.612 55.8012 188.612H53.1132V193.092ZM65.2279 199.284C64.3959 199.284 63.6545 199.087 63.0039 198.692C62.3532 198.297 61.8412 197.759 61.4679 197.076C61.0945 196.383 60.9079 195.609 60.9079 194.756C60.9079 193.892 61.0892 193.124 61.4519 192.452C61.8252 191.78 62.3265 191.252 62.9559 190.868C63.5959 190.473 64.3105 190.276 65.0999 190.276C65.7399 190.276 66.3052 190.393 66.7959 190.628C67.2972 190.852 67.7185 191.161 68.0599 191.556C68.4119 191.94 68.6785 192.383 68.8599 192.884C69.0519 193.375 69.1479 193.887 69.1479 194.42C69.1479 194.537 69.1372 194.671 69.1159 194.82C69.1052 194.959 69.0892 195.092 69.0679 195.22H61.9959V193.94H68.2039L67.4999 194.516C67.5959 193.961 67.5425 193.465 67.3399 193.028C67.1372 192.591 66.8385 192.244 66.4439 191.988C66.0492 191.732 65.6012 191.604 65.0999 191.604C64.5985 191.604 64.1399 191.732 63.7239 191.988C63.3079 192.244 62.9825 192.612 62.7479 193.092C62.5239 193.561 62.4332 194.121 62.4759 194.772C62.4332 195.401 62.5292 195.956 62.7639 196.436C63.0092 196.905 63.3505 197.273 63.7879 197.54C64.2359 197.796 64.7212 197.924 65.2439 197.924C65.8199 197.924 66.3052 197.791 66.6999 197.524C67.0945 197.257 67.4145 196.916 67.6599 196.5L68.9079 197.14C68.7372 197.535 68.4705 197.897 68.1079 198.228C67.7559 198.548 67.3345 198.804 66.8439 198.996C66.3639 199.188 65.8252 199.284 65.2279 199.284ZM74.176 199.284C73.312 199.284 72.56 199.071 71.92 198.644C71.28 198.217 70.8266 197.641 70.56 196.916L71.744 196.34C71.9893 196.852 72.3253 197.257 72.752 197.556C73.1786 197.855 73.6533 198.004 74.176 198.004C74.6453 198.004 75.0346 197.892 75.344 197.668C75.6533 197.444 75.808 197.151 75.808 196.788C75.808 196.532 75.7333 196.329 75.584 196.18C75.4453 196.02 75.2746 195.897 75.072 195.812C74.8693 195.716 74.6826 195.647 74.512 195.604L73.216 195.236C72.4373 195.012 71.8666 194.692 71.504 194.276C71.152 193.86 70.976 193.375 70.976 192.82C70.976 192.308 71.104 191.865 71.36 191.492C71.6266 191.108 71.984 190.809 72.432 190.596C72.8906 190.383 73.4026 190.276 73.968 190.276C74.7253 190.276 75.4026 190.468 76 190.852C76.608 191.236 77.04 191.775 77.296 192.468L76.08 193.028C75.888 192.58 75.6 192.228 75.216 191.972C74.832 191.705 74.4 191.572 73.92 191.572C73.4826 191.572 73.136 191.684 72.88 191.908C72.624 192.121 72.496 192.393 72.496 192.724C72.496 192.969 72.56 193.172 72.688 193.332C72.816 193.481 72.9706 193.599 73.152 193.684C73.3333 193.759 73.5093 193.823 73.68 193.876L75.088 194.292C75.792 194.495 76.336 194.809 76.72 195.236C77.1146 195.663 77.312 196.175 77.312 196.772C77.312 197.252 77.1786 197.684 76.912 198.068C76.6453 198.452 76.2773 198.751 75.808 198.964C75.3386 199.177 74.7946 199.284 74.176 199.284ZM83.2279 199.284C82.3959 199.284 81.6545 199.087 81.0039 198.692C80.3532 198.297 79.8412 197.759 79.4679 197.076C79.0945 196.383 78.9079 195.609 78.9079 194.756C78.9079 193.892 79.0892 193.124 79.4519 192.452C79.8252 191.78 80.3265 191.252 80.9559 190.868C81.5959 190.473 82.3105 190.276 83.0999 190.276C83.7399 190.276 84.3052 190.393 84.7959 190.628C85.2972 190.852 85.7185 191.161 86.0599 191.556C86.4119 191.94 86.6785 192.383 86.8599 192.884C87.0519 193.375 87.1479 193.887 87.1479 194.42C87.1479 194.537 87.1372 194.671 87.1159 194.82C87.1052 194.959 87.0892 195.092 87.0679 195.22H79.9959V193.94H86.2039L85.4999 194.516C85.5959 193.961 85.5425 193.465 85.3399 193.028C85.1372 192.591 84.8385 192.244 84.4439 191.988C84.0492 191.732 83.6012 191.604 83.0999 191.604C82.5985 191.604 82.1399 191.732 81.7239 191.988C81.3079 192.244 80.9825 192.612 80.7479 193.092C80.5239 193.561 80.4332 194.121 80.4759 194.772C80.4332 195.401 80.5292 195.956 80.7639 196.436C81.0092 196.905 81.3505 197.273 81.7879 197.54C82.2359 197.796 82.7212 197.924 83.2439 197.924C83.8199 197.924 84.3052 197.791 84.6999 197.524C85.0945 197.257 85.4145 196.916 85.6599 196.5L86.9079 197.14C86.7372 197.535 86.4705 197.897 86.1079 198.228C85.7559 198.548 85.3345 198.804 84.8439 198.996C84.3639 199.188 83.8252 199.284 83.2279 199.284ZM91.5066 199.284C90.9413 199.284 90.4399 199.183 90.0026 198.98C89.5759 198.767 89.2399 198.479 88.9946 198.116C88.7493 197.743 88.6266 197.316 88.6266 196.836C88.6266 196.377 88.7226 195.967 88.9146 195.604C89.1173 195.231 89.4266 194.916 89.8426 194.66C90.2693 194.404 90.8026 194.223 91.4426 194.116L94.6426 193.588V194.836L91.7786 195.316C91.2239 195.412 90.8186 195.588 90.5626 195.844C90.3173 196.1 90.1946 196.415 90.1946 196.788C90.1946 197.14 90.3333 197.433 90.6106 197.668C90.8986 197.903 91.2559 198.02 91.6826 198.02C92.2266 198.02 92.6959 197.908 93.0906 197.684C93.4959 197.449 93.8106 197.135 94.0346 196.74C94.2693 196.345 94.3866 195.908 94.3866 195.428V193.236C94.3866 192.767 94.2106 192.388 93.8586 192.1C93.5173 191.801 93.0639 191.652 92.4986 191.652C92.0079 191.652 91.5706 191.78 91.1866 192.036C90.8133 192.281 90.5359 192.612 90.3546 193.028L89.0586 192.356C89.2186 191.961 89.4746 191.609 89.8266 191.3C90.1786 190.98 90.5893 190.729 91.0586 190.548C91.5279 190.367 92.0186 190.276 92.5306 190.276C93.1919 190.276 93.7733 190.404 94.2746 190.66C94.7759 190.905 95.1653 191.252 95.4426 191.7C95.7306 192.137 95.8746 192.649 95.8746 193.236V199.092H94.4186V197.46L94.6906 197.556C94.5093 197.897 94.2639 198.196 93.9546 198.452C93.6453 198.708 93.2826 198.911 92.8666 199.06C92.4506 199.209 91.9973 199.284 91.5066 199.284ZM98.1817 199.092V190.468H99.6377V192.052L99.4777 191.828C99.6804 191.337 99.9897 190.975 100.406 190.74C100.822 190.495 101.328 190.372 101.926 190.372H102.454V191.78H101.702C101.094 191.78 100.603 191.972 100.23 192.356C99.8564 192.729 99.6697 193.263 99.6697 193.956V199.092H98.1817ZM107.775 199.284C106.933 199.284 106.181 199.087 105.519 198.692C104.869 198.297 104.357 197.759 103.983 197.076C103.61 196.393 103.423 195.625 103.423 194.772C103.423 193.908 103.61 193.14 103.983 192.468C104.357 191.796 104.869 191.263 105.519 190.868C106.181 190.473 106.933 190.276 107.775 190.276C108.341 190.276 108.869 190.377 109.359 190.58C109.85 190.783 110.282 191.055 110.655 191.396C111.029 191.737 111.301 192.137 111.471 192.596L110.143 193.236C109.941 192.788 109.631 192.425 109.215 192.148C108.799 191.86 108.319 191.716 107.775 191.716C107.253 191.716 106.778 191.849 106.351 192.116C105.935 192.383 105.605 192.745 105.359 193.204C105.114 193.663 104.991 194.191 104.991 194.788C104.991 195.364 105.114 195.887 105.359 196.356C105.605 196.815 105.935 197.177 106.351 197.444C106.778 197.711 107.253 197.844 107.775 197.844C108.319 197.844 108.799 197.705 109.215 197.428C109.631 197.14 109.941 196.761 110.143 196.292L111.471 196.964C111.301 197.412 111.029 197.812 110.655 198.164C110.282 198.505 109.85 198.777 109.359 198.98C108.869 199.183 108.341 199.284 107.775 199.284ZM113.416 199.092V186.98H114.904V192.148L114.632 192.004C114.845 191.46 115.187 191.039 115.656 190.74C116.136 190.431 116.696 190.276 117.336 190.276C117.955 190.276 118.504 190.415 118.984 190.692C119.475 190.969 119.859 191.353 120.136 191.844C120.424 192.335 120.568 192.889 120.568 193.508V199.092H119.064V193.988C119.064 193.508 118.973 193.103 118.792 192.772C118.621 192.441 118.381 192.185 118.072 192.004C117.763 191.812 117.405 191.716 117 191.716C116.605 191.716 116.248 191.812 115.928 192.004C115.608 192.185 115.357 192.447 115.176 192.788C114.995 193.119 114.904 193.519 114.904 193.988V199.092H113.416Z" fill="#1E1F24"/>
<path d="M491.314 337.984V326.064H495.522C496.312 326.064 497.005 326.213 497.602 326.512C498.2 326.81 498.664 327.237 498.994 327.792C499.336 328.346 499.506 328.997 499.506 329.744C499.506 330.49 499.336 331.141 498.994 331.696C498.664 332.24 498.2 332.666 497.602 332.976C497.016 333.274 496.322 333.424 495.522 333.424H492.882V337.984H491.314ZM492.882 331.984H495.57C496.05 331.984 496.466 331.893 496.818 331.712C497.17 331.53 497.442 331.269 497.634 330.928C497.826 330.586 497.922 330.192 497.922 329.744C497.922 329.285 497.826 328.89 497.634 328.56C497.442 328.218 497.17 327.957 496.818 327.776C496.466 327.594 496.05 327.504 495.57 327.504H492.882V331.984ZM501.451 337.984V329.36H502.907V330.944L502.747 330.72C502.949 330.229 503.259 329.866 503.675 329.632C504.091 329.386 504.597 329.264 505.195 329.264H505.723V330.672H504.971C504.363 330.672 503.872 330.864 503.499 331.248C503.125 331.621 502.939 332.154 502.939 332.848V337.984H501.451ZM511.141 338.176C510.309 338.176 509.557 337.984 508.885 337.6C508.213 337.205 507.679 336.666 507.285 335.984C506.89 335.301 506.693 334.528 506.693 333.664C506.693 332.8 506.885 332.032 507.269 331.36C507.663 330.688 508.197 330.154 508.869 329.76C509.541 329.365 510.298 329.168 511.141 329.168C511.973 329.168 512.725 329.365 513.397 329.76C514.069 330.144 514.597 330.672 514.981 331.344C515.375 332.016 515.573 332.789 515.573 333.664C515.573 334.538 515.37 335.317 514.965 336C514.559 336.672 514.021 337.205 513.349 337.6C512.687 337.984 511.951 338.176 511.141 338.176ZM511.141 336.736C511.674 336.736 512.154 336.602 512.581 336.336C513.018 336.069 513.359 335.701 513.605 335.232C513.861 334.762 513.989 334.24 513.989 333.664C513.989 333.077 513.861 332.56 513.605 332.112C513.359 331.653 513.018 331.29 512.581 331.024C512.154 330.746 511.674 330.608 511.141 330.608C510.597 330.608 510.106 330.746 509.669 331.024C509.242 331.29 508.901 331.653 508.645 332.112C508.389 332.56 508.261 333.077 508.261 333.664C508.261 334.24 508.389 334.762 508.645 335.232C508.901 335.701 509.242 336.069 509.669 336.336C510.106 336.602 510.597 336.736 511.141 336.736ZM516.041 341.504C515.945 341.504 515.828 341.498 515.689 341.488C515.551 341.477 515.439 341.461 515.353 341.44V340.096C515.567 340.128 515.78 340.144 515.993 340.144C516.431 340.144 516.793 340.021 517.081 339.776C517.369 339.53 517.513 339.157 517.513 338.656V329.36H519.001V338.656C519.001 339.274 518.873 339.792 518.617 340.208C518.361 340.634 518.009 340.954 517.561 341.168C517.113 341.392 516.607 341.504 516.041 341.504ZM517.513 327.984V326.064H519.001V327.984H517.513ZM525.278 338.176C524.446 338.176 523.705 337.978 523.054 337.584C522.404 337.189 521.892 336.65 521.518 335.968C521.145 335.274 520.958 334.501 520.958 333.648C520.958 332.784 521.14 332.016 521.502 331.344C521.876 330.672 522.377 330.144 523.006 329.76C523.646 329.365 524.361 329.168 525.15 329.168C525.79 329.168 526.356 329.285 526.846 329.52C527.348 329.744 527.769 330.053 528.11 330.448C528.462 330.832 528.729 331.274 528.91 331.776C529.102 332.266 529.198 332.778 529.198 333.312C529.198 333.429 529.188 333.562 529.166 333.712C529.156 333.85 529.14 333.984 529.118 334.112H522.046V332.832H528.254L527.55 333.408C527.646 332.853 527.593 332.357 527.39 331.92C527.188 331.482 526.889 331.136 526.494 330.88C526.1 330.624 525.652 330.496 525.15 330.496C524.649 330.496 524.19 330.624 523.774 330.88C523.358 331.136 523.033 331.504 522.798 331.984C522.574 332.453 522.484 333.013 522.526 333.664C522.484 334.293 522.58 334.848 522.814 335.328C523.06 335.797 523.401 336.165 523.838 336.432C524.286 336.688 524.772 336.816 525.294 336.816C525.87 336.816 526.356 336.682 526.75 336.416C527.145 336.149 527.465 335.808 527.71 335.392L528.958 336.032C528.788 336.426 528.521 336.789 528.158 337.12C527.806 337.44 527.385 337.696 526.894 337.888C526.414 338.08 525.876 338.176 525.278 338.176ZM535.138 338.176C534.296 338.176 533.544 337.978 532.882 337.584C532.232 337.189 531.72 336.65 531.346 335.968C530.973 335.285 530.786 334.517 530.786 333.664C530.786 332.8 530.973 332.032 531.346 331.36C531.72 330.688 532.232 330.154 532.882 329.76C533.544 329.365 534.296 329.168 535.138 329.168C535.704 329.168 536.232 329.269 536.722 329.472C537.213 329.674 537.645 329.946 538.018 330.288C538.392 330.629 538.664 331.029 538.834 331.488L537.506 332.128C537.304 331.68 536.994 331.317 536.578 331.04C536.162 330.752 535.682 330.608 535.138 330.608C534.616 330.608 534.141 330.741 533.714 331.008C533.298 331.274 532.968 331.637 532.722 332.096C532.477 332.554 532.354 333.082 532.354 333.68C532.354 334.256 532.477 334.778 532.722 335.248C532.968 335.706 533.298 336.069 533.714 336.336C534.141 336.602 534.616 336.736 535.138 336.736C535.682 336.736 536.162 336.597 536.578 336.32C536.994 336.032 537.304 335.653 537.506 335.184L538.834 335.856C538.664 336.304 538.392 336.704 538.018 337.056C537.645 337.397 537.213 337.669 536.722 337.872C536.232 338.074 535.704 338.176 535.138 338.176ZM544.283 338.08C543.44 338.08 542.79 337.84 542.331 337.36C541.883 336.88 541.659 336.202 541.659 335.328V330.784H540.091V329.36H540.411C540.795 329.36 541.099 329.242 541.323 329.008C541.547 328.773 541.659 328.464 541.659 328.08V327.376H543.147V329.36H545.083V330.784H543.147V335.28C543.147 335.568 543.19 335.818 543.275 336.032C543.371 336.245 543.526 336.416 543.739 336.544C543.952 336.661 544.235 336.72 544.587 336.72C544.662 336.72 544.752 336.714 544.859 336.704C544.976 336.693 545.083 336.682 545.179 336.672V337.984C545.04 338.016 544.886 338.037 544.715 338.048C544.544 338.069 544.4 338.08 544.283 338.08ZM491.314 357.984V346.064H492.754L497.218 352.416H496.482L500.914 346.064H502.354V357.984H500.77V348.048L501.33 348.224L496.898 354.464H496.77L492.386 348.224L492.882 348.048V357.984H491.314ZM507.354 358.176C506.788 358.176 506.287 358.074 505.85 357.872C505.423 357.658 505.087 357.37 504.842 357.008C504.596 356.634 504.474 356.208 504.474 355.728C504.474 355.269 504.57 354.858 504.762 354.496C504.964 354.122 505.274 353.808 505.69 353.552C506.116 353.296 506.65 353.114 507.29 353.008L510.49 352.48V353.728L507.626 354.208C507.071 354.304 506.666 354.48 506.41 354.736C506.164 354.992 506.042 355.306 506.042 355.68C506.042 356.032 506.18 356.325 506.458 356.56C506.746 356.794 507.103 356.912 507.53 356.912C508.074 356.912 508.543 356.8 508.938 356.576C509.343 356.341 509.658 356.026 509.882 355.632C510.116 355.237 510.234 354.8 510.234 354.32V352.128C510.234 351.658 510.058 351.28 509.706 350.992C509.364 350.693 508.911 350.544 508.346 350.544C507.855 350.544 507.418 350.672 507.034 350.928C506.66 351.173 506.383 351.504 506.202 351.92L504.906 351.248C505.066 350.853 505.322 350.501 505.674 350.192C506.026 349.872 506.436 349.621 506.906 349.44C507.375 349.258 507.866 349.168 508.378 349.168C509.039 349.168 509.62 349.296 510.122 349.552C510.623 349.797 511.012 350.144 511.29 350.592C511.578 351.029 511.722 351.541 511.722 352.128V357.984H510.266V356.352L510.538 356.448C510.356 356.789 510.111 357.088 509.802 357.344C509.492 357.6 509.13 357.802 508.714 357.952C508.298 358.101 507.844 358.176 507.354 358.176ZM514.029 357.984V349.36H515.485V351.04L515.245 350.896C515.458 350.352 515.8 349.93 516.269 349.632C516.749 349.322 517.309 349.168 517.949 349.168C518.568 349.168 519.117 349.306 519.597 349.584C520.088 349.861 520.472 350.245 520.749 350.736C521.037 351.226 521.181 351.781 521.181 352.4V357.984H519.677V352.88C519.677 352.4 519.592 351.994 519.421 351.664C519.25 351.333 519.005 351.077 518.685 350.896C518.376 350.704 518.018 350.608 517.613 350.608C517.208 350.608 516.845 350.704 516.525 350.896C516.216 351.077 515.97 351.338 515.789 351.68C515.608 352.01 515.517 352.41 515.517 352.88V357.984H514.029ZM525.838 358.176C525.273 358.176 524.772 358.074 524.334 357.872C523.908 357.658 523.572 357.37 523.326 357.008C523.081 356.634 522.958 356.208 522.958 355.728C522.958 355.269 523.054 354.858 523.246 354.496C523.449 354.122 523.758 353.808 524.174 353.552C524.601 353.296 525.134 353.114 525.774 353.008L528.974 352.48V353.728L526.11 354.208C525.556 354.304 525.15 354.48 524.894 354.736C524.649 354.992 524.526 355.306 524.526 355.68C524.526 356.032 524.665 356.325 524.942 356.56C525.23 356.794 525.588 356.912 526.014 356.912C526.558 356.912 527.028 356.8 527.422 356.576C527.828 356.341 528.142 356.026 528.366 355.632C528.601 355.237 528.718 354.8 528.718 354.32V352.128C528.718 351.658 528.542 351.28 528.19 350.992C527.849 350.693 527.396 350.544 526.83 350.544C526.34 350.544 525.902 350.672 525.518 350.928C525.145 351.173 524.868 351.504 524.686 351.92L523.39 351.248C523.55 350.853 523.806 350.501 524.158 350.192C524.51 349.872 524.921 349.621 525.39 349.44C525.86 349.258 526.35 349.168 526.862 349.168C527.524 349.168 528.105 349.296 528.606 349.552C529.108 349.797 529.497 350.144 529.774 350.592C530.062 351.029 530.206 351.541 530.206 352.128V357.984H528.75V356.352L529.022 356.448C528.841 356.789 528.596 357.088 528.286 357.344C527.977 357.6 527.614 357.802 527.198 357.952C526.782 358.101 526.329 358.176 525.838 358.176ZM536.625 361.504C536.017 361.504 535.452 361.408 534.929 361.216C534.417 361.024 533.975 360.757 533.601 360.416C533.239 360.085 532.961 359.696 532.769 359.248L534.161 358.608C534.311 359.013 534.593 359.354 535.009 359.632C535.436 359.92 535.969 360.064 536.609 360.064C537.1 360.064 537.543 359.968 537.937 359.776C538.343 359.594 538.663 359.317 538.897 358.944C539.132 358.581 539.249 358.138 539.249 357.616V355.68L539.521 355.968C539.223 356.554 538.791 357.002 538.225 357.312C537.671 357.621 537.057 357.776 536.385 357.776C535.575 357.776 534.849 357.589 534.209 357.216C533.569 356.832 533.068 356.314 532.705 355.664C532.343 355.002 532.161 354.272 532.161 353.472C532.161 352.661 532.343 351.93 532.705 351.28C533.068 350.629 533.564 350.117 534.193 349.744C534.833 349.36 535.559 349.168 536.369 349.168C537.041 349.168 537.649 349.322 538.193 349.632C538.748 349.93 539.191 350.346 539.521 350.88L539.297 351.28V349.36H540.753V357.616C540.753 358.362 540.577 359.029 540.225 359.616C539.873 360.202 539.383 360.661 538.753 360.992C538.135 361.333 537.425 361.504 536.625 361.504ZM536.513 356.336C537.025 356.336 537.484 356.208 537.889 355.952C538.305 355.696 538.636 355.354 538.881 354.928C539.127 354.49 539.249 354.005 539.249 353.472C539.249 352.949 539.127 352.469 538.881 352.032C538.636 351.594 538.305 351.248 537.889 350.992C537.484 350.736 537.025 350.608 536.513 350.608C535.991 350.608 535.516 350.736 535.089 350.992C534.663 351.248 534.327 351.594 534.081 352.032C533.847 352.458 533.729 352.938 533.729 353.472C533.729 354.005 533.847 354.49 534.081 354.928C534.327 355.354 534.657 355.696 535.073 355.952C535.5 356.208 535.98 356.336 536.513 356.336ZM547.028 358.176C546.196 358.176 545.455 357.978 544.804 357.584C544.154 357.189 543.642 356.65 543.268 355.968C542.895 355.274 542.708 354.501 542.708 353.648C542.708 352.784 542.89 352.016 543.252 351.344C543.626 350.672 544.127 350.144 544.756 349.76C545.396 349.365 546.111 349.168 546.9 349.168C547.54 349.168 548.106 349.285 548.596 349.52C549.098 349.744 549.519 350.053 549.86 350.448C550.212 350.832 550.479 351.274 550.66 351.776C550.852 352.266 550.948 352.778 550.948 353.312C550.948 353.429 550.938 353.562 550.916 353.712C550.906 353.85 550.89 353.984 550.868 354.112H543.796V352.832H550.004L549.3 353.408C549.396 352.853 549.343 352.357 549.14 351.92C548.938 351.482 548.639 351.136 548.244 350.88C547.85 350.624 547.402 350.496 546.9 350.496C546.399 350.496 545.94 350.624 545.524 350.88C545.108 351.136 544.783 351.504 544.548 351.984C544.324 352.453 544.234 353.013 544.276 353.664C544.234 354.293 544.33 354.848 544.564 355.328C544.81 355.797 545.151 356.165 545.588 356.432C546.036 356.688 546.522 356.816 547.044 356.816C547.62 356.816 548.106 356.682 548.5 356.416C548.895 356.149 549.215 355.808 549.46 355.392L550.708 356.032C550.538 356.426 550.271 356.789 549.908 357.12C549.556 357.44 549.135 357.696 548.644 357.888C548.164 358.08 547.626 358.176 547.028 358.176ZM552.888 357.984V349.36H554.344V351.12L554.136 350.848C554.35 350.304 554.691 349.888 555.16 349.6C555.63 349.312 556.158 349.168 556.744 349.168C557.416 349.168 558.019 349.354 558.552 349.728C559.096 350.101 559.47 350.592 559.672 351.2L559.256 351.216C559.48 350.544 559.859 350.037 560.392 349.696C560.926 349.344 561.518 349.168 562.168 349.168C562.766 349.168 563.304 349.306 563.784 349.584C564.275 349.861 564.664 350.245 564.952 350.736C565.24 351.226 565.384 351.781 565.384 352.4V357.984H563.88V352.88C563.88 352.4 563.795 351.994 563.624 351.664C563.454 351.333 563.219 351.077 562.92 350.896C562.632 350.704 562.291 350.608 561.896 350.608C561.512 350.608 561.166 350.704 560.856 350.896C560.558 351.077 560.318 351.338 560.136 351.68C559.966 352.01 559.88 352.41 559.88 352.88V357.984H558.376V352.88C558.376 352.4 558.291 351.994 558.12 351.664C557.95 351.333 557.715 351.077 557.416 350.896C557.128 350.704 556.787 350.608 556.392 350.608C556.008 350.608 555.662 350.704 555.352 350.896C555.054 351.077 554.814 351.338 554.632 351.68C554.462 352.01 554.376 352.41 554.376 352.88V357.984H552.888ZM571.466 358.176C570.634 358.176 569.892 357.978 569.242 357.584C568.591 357.189 568.079 356.65 567.706 355.968C567.332 355.274 567.146 354.501 567.146 353.648C567.146 352.784 567.327 352.016 567.69 351.344C568.063 350.672 568.564 350.144 569.194 349.76C569.834 349.365 570.548 349.168 571.338 349.168C571.978 349.168 572.543 349.285 573.034 349.52C573.535 349.744 573.956 350.053 574.298 350.448C574.65 350.832 574.916 351.274 575.098 351.776C575.29 352.266 575.386 352.778 575.386 353.312C575.386 353.429 575.375 353.562 575.354 353.712C575.343 353.85 575.327 353.984 575.306 354.112H568.234V352.832H574.442L573.738 353.408C573.834 352.853 573.78 352.357 573.578 351.92C573.375 351.482 573.076 351.136 572.682 350.88C572.287 350.624 571.839 350.496 571.338 350.496C570.836 350.496 570.378 350.624 569.962 350.88C569.546 351.136 569.22 351.504 568.986 351.984C568.762 352.453 568.671 353.013 568.714 353.664C568.671 354.293 568.767 354.848 569.002 355.328C569.247 355.797 569.588 356.165 570.026 356.432C570.474 356.688 570.959 356.816 571.482 356.816C572.058 356.816 572.543 356.682 572.938 356.416C573.332 356.149 573.652 355.808 573.898 355.392L575.146 356.032C574.975 356.426 574.708 356.789 574.346 357.12C573.994 357.44 573.572 357.696 573.082 357.888C572.602 358.08 572.063 358.176 571.466 358.176ZM577.326 357.984V349.36H578.782V351.04L578.542 350.896C578.755 350.352 579.096 349.93 579.566 349.632C580.046 349.322 580.606 349.168 581.246 349.168C581.864 349.168 582.414 349.306 582.894 349.584C583.384 349.861 583.768 350.245 584.046 350.736C584.334 351.226 584.478 351.781 584.478 352.4V357.984H582.974V352.88C582.974 352.4 582.888 351.994 582.718 351.664C582.547 351.333 582.302 351.077 581.982 350.896C581.672 350.704 581.315 350.608 580.91 350.608C580.504 350.608 580.142 350.704 579.822 350.896C579.512 351.077 579.267 351.338 579.086 351.68C578.904 352.01 578.814 352.41 578.814 352.88V357.984H577.326ZM590.111 358.08C589.268 358.08 588.618 357.84 588.159 357.36C587.711 356.88 587.487 356.202 587.487 355.328V350.784H585.919V349.36H586.239C586.623 349.36 586.927 349.242 587.151 349.008C587.375 348.773 587.487 348.464 587.487 348.08V347.376H588.975V349.36H590.911V350.784H588.975V355.28C588.975 355.568 589.018 355.818 589.103 356.032C589.199 356.245 589.354 356.416 589.567 356.544C589.78 356.661 590.063 356.72 590.415 356.72C590.49 356.72 590.58 356.714 590.687 356.704C590.804 356.693 590.911 356.682 591.007 356.672V357.984C590.868 358.016 590.714 358.037 590.543 358.048C590.372 358.069 590.228 358.08 590.111 358.08Z" fill="#1E1F24"/>
<path d="M83.8729 337.984V326.064H87.7769C88.9822 326.064 90.0329 326.309 90.9289 326.8C91.8249 327.29 92.5182 327.984 93.0089 328.88C93.4996 329.765 93.7449 330.81 93.7449 332.016C93.7449 333.21 93.4996 334.256 93.0089 335.152C92.5182 336.048 91.8249 336.746 90.9289 337.248C90.0329 337.738 88.9822 337.984 87.7769 337.984H83.8729ZM85.4409 336.544H87.7929C88.6782 336.544 89.4409 336.357 90.0809 335.984C90.7316 335.61 91.2329 335.088 91.5849 334.416C91.9369 333.733 92.1129 332.933 92.1129 332.016C92.1129 331.088 91.9316 330.288 91.5689 329.616C91.2169 328.944 90.7156 328.426 90.0649 328.064C89.4249 327.69 88.6676 327.504 87.7929 327.504H85.4409V336.544ZM97.9749 338.176C97.4096 338.176 96.9082 338.074 96.4709 337.872C96.0442 337.658 95.7082 337.37 95.4629 337.008C95.2176 336.634 95.0949 336.208 95.0949 335.728C95.0949 335.269 95.1909 334.858 95.3829 334.496C95.5856 334.122 95.8949 333.808 96.3109 333.552C96.7376 333.296 97.2709 333.114 97.9109 333.008L101.111 332.48V333.728L98.2469 334.208C97.6922 334.304 97.2869 334.48 97.0309 334.736C96.7856 334.992 96.6629 335.306 96.6629 335.68C96.6629 336.032 96.8016 336.325 97.0789 336.56C97.3669 336.794 97.7242 336.912 98.1509 336.912C98.6949 336.912 99.1642 336.8 99.5589 336.576C99.9642 336.341 100.279 336.026 100.503 335.632C100.738 335.237 100.855 334.8 100.855 334.32V332.128C100.855 331.658 100.679 331.28 100.327 330.992C99.9856 330.693 99.5322 330.544 98.9669 330.544C98.4762 330.544 98.0389 330.672 97.6549 330.928C97.2816 331.173 97.0042 331.504 96.8229 331.92L95.5269 331.248C95.6869 330.853 95.9429 330.501 96.2949 330.192C96.6469 329.872 97.0576 329.621 97.5269 329.44C97.9962 329.258 98.4869 329.168 98.9989 329.168C99.6602 329.168 100.242 329.296 100.743 329.552C101.244 329.797 101.634 330.144 101.911 330.592C102.199 331.029 102.343 331.541 102.343 332.128V337.984H100.887V336.352L101.159 336.448C100.978 336.789 100.732 337.088 100.423 337.344C100.114 337.6 99.7509 337.802 99.3349 337.952C98.9189 338.101 98.4656 338.176 97.9749 338.176ZM107.998 338.08C107.155 338.08 106.504 337.84 106.046 337.36C105.598 336.88 105.374 336.202 105.374 335.328V330.784H103.806V329.36H104.126C104.51 329.36 104.814 329.242 105.038 329.008C105.262 328.773 105.374 328.464 105.374 328.08V327.376H106.862V329.36H108.798V330.784H106.862V335.28C106.862 335.568 106.904 335.818 106.99 336.032C107.086 336.245 107.24 336.416 107.454 336.544C107.667 336.661 107.95 336.72 108.302 336.72C108.376 336.72 108.467 336.714 108.574 336.704C108.691 336.693 108.798 336.682 108.894 336.672V337.984C108.755 338.016 108.6 338.037 108.43 338.048C108.259 338.069 108.115 338.08 107.998 338.08ZM113.256 338.176C112.691 338.176 112.189 338.074 111.752 337.872C111.325 337.658 110.989 337.37 110.744 337.008C110.499 336.634 110.376 336.208 110.376 335.728C110.376 335.269 110.472 334.858 110.664 334.496C110.867 334.122 111.176 333.808 111.592 333.552C112.019 333.296 112.552 333.114 113.192 333.008L116.392 332.48V333.728L113.528 334.208C112.973 334.304 112.568 334.48 112.312 334.736C112.067 334.992 111.944 335.306 111.944 335.68C111.944 336.032 112.083 336.325 112.36 336.56C112.648 336.794 113.005 336.912 113.432 336.912C113.976 336.912 114.445 336.8 114.84 336.576C115.245 336.341 115.56 336.026 115.784 335.632C116.019 335.237 116.136 334.8 116.136 334.32V332.128C116.136 331.658 115.96 331.28 115.608 330.992C115.267 330.693 114.813 330.544 114.248 330.544C113.757 330.544 113.32 330.672 112.936 330.928C112.563 331.173 112.285 331.504 112.104 331.92L110.808 331.248C110.968 330.853 111.224 330.501 111.576 330.192C111.928 329.872 112.339 329.621 112.808 329.44C113.277 329.258 113.768 329.168 114.28 329.168C114.941 329.168 115.523 329.296 116.024 329.552C116.525 329.797 116.915 330.144 117.192 330.592C117.48 331.029 117.624 331.541 117.624 332.128V337.984H116.168V336.352L116.44 336.448C116.259 336.789 116.013 337.088 115.704 337.344C115.395 337.6 115.032 337.802 114.616 337.952C114.2 338.101 113.747 338.176 113.256 338.176ZM59.7053 357.984L63.9773 346.064H65.8333L70.1053 357.984H68.4253L67.4493 355.184H62.3613L61.3853 357.984H59.7053ZM62.8573 353.744H66.9533L64.6813 347.2H65.1293L62.8573 353.744ZM71.4313 357.984V349.36H72.8873V351.04L72.6473 350.896C72.8606 350.352 73.2019 349.93 73.6713 349.632C74.1513 349.322 74.7113 349.168 75.3513 349.168C75.9699 349.168 76.5193 349.306 76.9993 349.584C77.4899 349.861 77.8739 350.245 78.1513 350.736C78.4393 351.226 78.5833 351.781 78.5833 352.4V357.984H77.0793V352.88C77.0793 352.4 76.9939 351.994 76.8233 351.664C76.6526 351.333 76.4073 351.077 76.0873 350.896C75.7779 350.704 75.4206 350.608 75.0153 350.608C74.6099 350.608 74.2473 350.704 73.9273 350.896C73.6179 351.077 73.3726 351.338 73.1913 351.68C73.0099 352.01 72.9193 352.41 72.9193 352.88V357.984H71.4313ZM83.2405 358.176C82.6752 358.176 82.1738 358.074 81.7365 357.872C81.3098 357.658 80.9738 357.37 80.7285 357.008C80.4832 356.634 80.3605 356.208 80.3605 355.728C80.3605 355.269 80.4565 354.858 80.6485 354.496C80.8512 354.122 81.1605 353.808 81.5765 353.552C82.0032 353.296 82.5365 353.114 83.1765 353.008L86.3765 352.48V353.728L83.5125 354.208C82.9578 354.304 82.5525 354.48 82.2965 354.736C82.0512 354.992 81.9285 355.306 81.9285 355.68C81.9285 356.032 82.0672 356.325 82.3445 356.56C82.6325 356.794 82.9898 356.912 83.4165 356.912C83.9605 356.912 84.4299 356.8 84.8245 356.576C85.2298 356.341 85.5445 356.026 85.7685 355.632C86.0032 355.237 86.1205 354.8 86.1205 354.32V352.128C86.1205 351.658 85.9445 351.28 85.5925 350.992C85.2512 350.693 84.7979 350.544 84.2325 350.544C83.7418 350.544 83.3045 350.672 82.9205 350.928C82.5472 351.173 82.2698 351.504 82.0885 351.92L80.7925 351.248C80.9525 350.853 81.2085 350.501 81.5605 350.192C81.9125 349.872 82.3232 349.621 82.7925 349.44C83.2618 349.258 83.7525 349.168 84.2645 349.168C84.9258 349.168 85.5072 349.296 86.0085 349.552C86.5099 349.797 86.8992 350.144 87.1765 350.592C87.4645 351.029 87.6085 351.541 87.6085 352.128V357.984H86.1525V356.352L86.4245 356.448C86.2432 356.789 85.9979 357.088 85.6885 357.344C85.3792 357.6 85.0165 357.802 84.6005 357.952C84.1845 358.101 83.7312 358.176 83.2405 358.176ZM89.9156 357.984V345.872H91.4036V357.984H89.9156ZM94.1765 361.504C93.9845 361.504 93.7925 361.488 93.6005 361.456C93.4085 361.424 93.2272 361.37 93.0565 361.296V359.968C93.1738 359.989 93.3178 360.01 93.4885 360.032C93.6698 360.064 93.8458 360.08 94.0165 360.08C94.5178 360.08 94.8965 359.968 95.1525 359.744C95.4192 359.53 95.6698 359.157 95.9045 358.624L96.4485 357.328L96.4165 358.624L92.7365 349.36H94.3525L97.2165 356.72H96.7365L99.5845 349.36H101.233L97.3445 359.008C97.1632 359.466 96.9285 359.882 96.6405 360.256C96.3632 360.64 96.0218 360.944 95.6165 361.168C95.2112 361.392 94.7312 361.504 94.1765 361.504ZM105.644 358.176C104.78 358.176 104.028 357.962 103.388 357.536C102.748 357.109 102.295 356.533 102.028 355.808L103.212 355.232C103.458 355.744 103.794 356.149 104.22 356.448C104.647 356.746 105.122 356.896 105.644 356.896C106.114 356.896 106.503 356.784 106.812 356.56C107.122 356.336 107.276 356.042 107.276 355.68C107.276 355.424 107.202 355.221 107.052 355.072C106.914 354.912 106.743 354.789 106.54 354.704C106.338 354.608 106.151 354.538 105.98 354.496L104.684 354.128C103.906 353.904 103.335 353.584 102.972 353.168C102.62 352.752 102.444 352.266 102.444 351.712C102.444 351.2 102.572 350.757 102.828 350.384C103.095 350 103.452 349.701 103.9 349.488C104.359 349.274 104.871 349.168 105.436 349.168C106.194 349.168 106.871 349.36 107.468 349.744C108.076 350.128 108.508 350.666 108.764 351.36L107.548 351.92C107.356 351.472 107.068 351.12 106.684 350.864C106.3 350.597 105.868 350.464 105.388 350.464C104.951 350.464 104.604 350.576 104.348 350.8C104.092 351.013 103.964 351.285 103.964 351.616C103.964 351.861 104.028 352.064 104.156 352.224C104.284 352.373 104.439 352.49 104.62 352.576C104.802 352.65 104.978 352.714 105.148 352.768L106.556 353.184C107.26 353.386 107.804 353.701 108.188 354.128C108.583 354.554 108.78 355.066 108.78 355.664C108.78 356.144 108.647 356.576 108.38 356.96C108.114 357.344 107.746 357.642 107.276 357.856C106.807 358.069 106.263 358.176 105.644 358.176ZM110.728 357.984V349.36H112.216V357.984H110.728ZM110.728 347.984V346.064H112.216V347.984H110.728ZM117.613 358.176C116.749 358.176 115.997 357.962 115.357 357.536C114.717 357.109 114.264 356.533 113.997 355.808L115.181 355.232C115.426 355.744 115.762 356.149 116.189 356.448C116.616 356.746 117.09 356.896 117.613 356.896C118.082 356.896 118.472 356.784 118.781 356.56C119.09 356.336 119.245 356.042 119.245 355.68C119.245 355.424 119.17 355.221 119.021 355.072C118.882 354.912 118.712 354.789 118.509 354.704C118.306 354.608 118.12 354.538 117.949 354.496L116.653 354.128C115.874 353.904 115.304 353.584 114.941 353.168C114.589 352.752 114.413 352.266 114.413 351.712C114.413 351.2 114.541 350.757 114.797 350.384C115.064 350 115.421 349.701 115.869 349.488C116.328 349.274 116.84 349.168 117.405 349.168C118.162 349.168 118.84 349.36 119.437 349.744C120.045 350.128 120.477 350.666 120.733 351.36L119.517 351.92C119.325 351.472 119.037 351.12 118.653 350.864C118.269 350.597 117.837 350.464 117.357 350.464C116.92 350.464 116.573 350.576 116.317 350.8C116.061 351.013 115.933 351.285 115.933 351.616C115.933 351.861 115.997 352.064 116.125 352.224C116.253 352.373 116.408 352.49 116.589 352.576C116.77 352.65 116.946 352.714 117.117 352.768L118.525 353.184C119.229 353.386 119.773 353.701 120.157 354.128C120.552 354.554 120.749 355.066 120.749 355.664C120.749 356.144 120.616 356.576 120.349 356.96C120.082 357.344 119.714 357.642 119.245 357.856C118.776 358.069 118.232 358.176 117.613 358.176Z" fill="#1E1F24"/>
<circle cx="236.737" cy="88.1408" r="5" fill="#75B68C"/>
<circle cx="169.502" cy="206.037" r="5" fill="#75B68C"/>
<circle cx="379.415" cy="88.1408" r="5" fill="#75B68C"/>
<circle cx="445.839" cy="206.037" r="5" fill="#75B68C"/>
<circle cx="408.432" cy="306.07" r="5" fill="#75B68C"/>
<circle cx="249.316" cy="400.618" r="5" fill="#75B68C"/>
<circle cx="350.064" cy="365.3" r="5" fill="#75B68C"/>
<circle cx="239.316" cy="289.667" r="5" fill="#75B68C"/>
<path d="M241.217 290.02L249.506 401.2L351.254 364.331L409.13 305.74L446.285 206.421L379.835 88.525L236.216 87.8105L170.479 205.707L241.217 290.02Z" fill="#75B68C" fill-opacity="0.4" stroke="#75B68C" stroke-width="2"/>
</g>
<defs>
<clipPath id="clip0_1502_485">
<rect width="649" height="521" fill="white"/>
</clipPath>
</defs>
</svg>
