<svg width="34" height="34" viewBox="0 0 34 34" fill="none" xmlns="http://www.w3.org/2000/svg">
<path d="M10.3435 14.4518C7.32461 10.1476 5.67318 7.78625 5.38922 7.36778C5.10526 6.93438 4.96329 6.56822 4.96329 6.26932C4.96329 6.00031 5.06043 5.76866 5.25471 5.57437C5.449 5.36514 5.68812 5.26052 5.97208 5.26052C6.36065 5.26052 7.02571 5.58184 7.96725 6.22448L14.289 10.4838C15.111 6.07503 15.6341 3.31766 15.8583 2.21172C16.0824 1.09084 16.5233 0.530396 17.1809 0.530396C17.5994 0.530396 17.9282 0.747099 18.1673 1.18051C18.4064 1.61392 19.0266 4.71503 20.028 10.4838C24.4816 7.49482 26.9027 5.88074 27.2913 5.64162C27.6948 5.38756 28.061 5.26052 28.3897 5.26052C28.6438 5.26052 28.8755 5.35767 29.0847 5.55195C29.2939 5.73129 29.3985 5.95547 29.3985 6.22448C29.3985 6.61306 29.0473 7.30053 28.3449 8.28691L24.0183 14.4518C29.3388 15.5129 32.2904 16.1107 32.8733 16.2452C33.4561 16.3797 33.7476 16.7309 33.7476 17.2988C33.7476 17.6127 33.643 17.8593 33.4337 18.0386C33.2245 18.2179 32.2082 18.4869 30.3849 18.8456L24.0183 20.1459C27.0372 24.3903 28.6886 26.7366 28.9726 27.185C29.2566 27.6184 29.3985 27.992 29.3985 28.3059C29.3985 28.5749 29.3089 28.8065 29.1295 29.0008C28.9502 29.1802 28.7185 29.2698 28.4346 29.2698C27.9713 29.2698 27.2539 28.9411 26.2825 28.2835L20.028 24.0914C19.1611 28.9336 18.6231 31.7956 18.4139 32.6773C18.2196 33.5591 17.8086 34 17.1809 34C16.882 34 16.613 33.8879 16.3739 33.6637C16.1348 33.4395 15.8807 32.5951 15.6117 31.1305L14.289 24.0914C9.9699 27.0057 7.59362 28.5973 7.16022 28.8663C6.74175 29.1353 6.34571 29.2698 5.97208 29.2698C5.71801 29.2698 5.48636 29.1802 5.27713 29.0008C5.0679 28.8065 4.96329 28.5749 4.96329 28.3059C4.96329 27.9173 5.32944 27.2149 6.06175 26.1986L10.3435 20.1459C4.58966 18.9951 1.52591 18.345 1.15228 18.1955C0.793599 18.0461 0.614258 17.7247 0.614258 17.2316C0.614258 16.9327 0.696456 16.701 0.860852 16.5366C1.04019 16.3722 1.61558 16.1929 2.58701 15.9986L10.3435 14.4518Z" fill="black"/>
</svg>
