<svg width="201" height="200" viewBox="0 0 201 200" fill="none" xmlns="http://www.w3.org/2000/svg">
<g clip-path="url(#clip0_432_708)">
<path d="M120.3 150C120.3 136.3 120 122.6 120.4 109C120.8 89.7 123.8 70.9 131.3 52.9C136.5 40.3 143.5 28.9 154.1 20C163.5 12.1 174.4 7.59998 186.5 5.69998C190.4 5.09998 194.4 4.89998 198.3 4.69998C199.6 4.59998 200.1 4.89998 200.1 6.29998C200 17.6 200.1 29 200.1 40.3C200.1 41.3 200.2 42 198.8 42C184.1 42.5 175.2 50.9 169.5 63.6C165.5 72.6 163.6 82.2 162.5 91.9C161.6 99.6 161.2 107.4 161.2 115.2C161.2 116.6 161.5 117 163 117C174.7 116.9 186.3 117 198 116.9C199.9 116.9 200.2 117.5 200.2 119.2C200.1 144.3 200.1 169.5 200.2 194.6C200.2 196.3 199.8 196.7 198.1 196.7C172.9 196.6 147.7 196.6 122.5 196.7C120.7 196.7 120.4 196.1 120.5 194.5C120.6 179.6 120.5 164.7 120.5 149.8L120.3 150ZM0.199797 150C0.199797 136.2 -0.100203 122.4 0.299797 108.6C0.799797 89.5 3.6998 70.7 11.0998 52.9C16.2998 40.3 23.2998 28.8 33.9998 19.9C43.3998 12.1 54.1998 7.59998 66.2998 5.69998C70.1998 5.09998 74.1998 4.89998 78.0998 4.69998C79.3998 4.59998 79.8998 4.79998 79.8998 6.29998C79.7998 17.7 79.8998 29.1 79.8998 40.5C79.8998 41.5 79.6998 42 78.5998 42C63.6998 42.5 54.6998 51 48.8998 63.9C44.8998 72.9 43.0998 82.4 41.8998 92C40.9998 99.7 40.5998 107.5 40.5998 115.3C40.5998 116.7 40.8998 117 42.2998 117C54.1998 116.9 65.9998 117 77.8998 116.9C79.4998 116.9 79.9998 117.2 79.9998 118.9C79.8998 144.2 79.8998 169.5 79.9998 194.7C79.9998 196.2 79.6998 196.7 78.0998 196.7C52.6998 196.6 27.2998 196.6 1.8998 196.7C0.499797 196.7 0.199797 196.3 0.199797 195C0.299797 180 0.199797 164.9 0.199797 149.9C0.0997969 150 0.0997969 150 0.199797 150Z" fill="#7183E3"/>
</g>
<defs>
<clipPath id="clip0_432_708">
<rect width="200.195" height="200" fill="white"/>
</clipPath>
</defs>
</svg>
