<?xml version="1.0" standalone="no"?><!DOCTYPE svg PUBLIC "-//W3C//DTD SVG 1.1//EN" "http://www.w3.org/Graphics/SVG/1.1/DTD/svg11.dtd"><svg t="1723552996183" class="icon" viewBox="0 0 1117 1024" version="1.1" xmlns="http://www.w3.org/2000/svg" p-id="30344" xmlns:xlink="http://www.w3.org/1999/xlink" width="218.1640625" height="200"><path d="M1024 1024H93.090909a93.090909 93.090909 0 0 1-93.090909-93.090909V93.090909a93.090909 93.090909 0 0 1 93.090909-93.090909h930.909091a93.090909 93.090909 0 0 1 93.090909 93.090909v837.818182a93.090909 93.090909 0 0 1-93.090909 93.090909zM93.090909 930.909091h930.909091V352.395636l-425.099636 245.434182a358.027636 358.027636 0 0 1-74.891637 18.059637L93.090909 367.104V930.909091zM93.090909 93.090909v166.493091l454.050909 262.190545a40.215273 40.215273 0 0 1 5.213091-4.654545L1024 244.875636V93.090909H93.090909z" fill="#ffffff" p-id="30345"></path></svg>